<ttFont>
    <TTGlyph name=".notdef" xMin="193" yMin="0" xMax="1034" yMax="1462">
      <contour>
        <pt x="193" y="1462" on="1"/>
        <pt x="1034" y="1462" on="1"/>
        <pt x="1034" y="0" on="1"/>
        <pt x="193" y="0" on="1"/>
      </contour>
      <contour>
        <pt x="297" y="104" on="1"/>
        <pt x="930" y="104" on="1"/>
        <pt x="930" y="1358" on="1"/>
        <pt x="297" y="1358" on="1"/>
      </contour>
    </TTGlyph>
    <TTGlyph name="A" xMin="0" yMin="0" xMax="1296" yMax="1468">
      <contour>
        <pt x="1120" y="0" on="1"/>
        <pt x="938" y="465" on="1"/>
        <pt x="352" y="465" on="1"/>
        <pt x="172" y="0" on="1"/>
        <pt x="0" y="0" on="1"/>
        <pt x="578" y="1468" on="1"/>
        <pt x="721" y="1468" on="1"/>
        <pt x="1296" y="0" on="1"/>
      </contour>
      <contour>
        <pt x="885" y="618" on="1"/>
        <pt x="715" y="1071" on="1"/>
        <pt x="682" y="1157" on="0"/>
        <pt x="647" y="1282" on="1"/>
        <pt x="625" y="1186" on="0"/>
        <pt x="584" y="1071" on="1"/>
        <pt x="412" y="618" on="1"/>
      </contour>
    </TTGlyph>
    <TTGlyph name="AE" xMin="-2" yMin="0" xMax="1665" yMax="1462">
      <contour>
        <pt x="1665" y="0" on="1"/>
        <pt x="915" y="0" on="1"/>
        <pt x="915" y="465" on="1"/>
        <pt x="401" y="465" on="1"/>
        <pt x="174" y="0" on="1"/>
        <pt x="-2" y="0" on="1"/>
        <pt x="696" y="1462" on="1"/>
        <pt x="1665" y="1462" on="1"/>
        <pt x="1665" y="1311" on="1"/>
        <pt x="1085" y="1311" on="1"/>
        <pt x="1085" y="840" on="1"/>
        <pt x="1626" y="840" on="1"/>
        <pt x="1626" y="690" on="1"/>
        <pt x="1085" y="690" on="1"/>
        <pt x="1085" y="152" on="1"/>
        <pt x="1665" y="152" on="1"/>
      </contour>
      <contour>
        <pt x="469" y="618" on="1"/>
        <pt x="915" y="618" on="1"/>
        <pt x="915" y="1311" on="1"/>
        <pt x="797" y="1311" on="1"/>
      </contour>
    </TTGlyph>
    <TTGlyph name="AEacute" xMin="-2" yMin="0" xMax="1665" yMax="1907">
      <component glyphName="AE" x="0" y="0" flags="0x204"/>
      <component glyphName="acute" x="588" y="338" flags="0x4"/>
    </TTGlyph>
    <TTGlyph name="Aacute" xMin="0" yMin="0" xMax="1296" yMax="1907">
      <component glyphName="A" x="0" y="0" flags="0x204"/>
      <component glyphName="acute" x="133" y="338" flags="0x4"/>
    </TTGlyph>
    <TTGlyph name="Abreve" xMin="0" yMin="0" xMax="1296" yMax="1847">
      <component glyphName="A" x="0" y="0" flags="0x204"/>
      <component glyphName="breve" x="43" y="338" flags="0x4"/>
    </TTGlyph>
    <TTGlyph name="Acircumflex" xMin="0" yMin="0" xMax="1296" yMax="1907">
      <component glyphName="A" x="0" y="0" flags="0x204"/>
      <component glyphName="circumflex" x="35" y="338" flags="0x4"/>
    </TTGlyph>
    <TTGlyph name="Adieresis" xMin="0" yMin="0" xMax="1296" yMax="1829">
      <component glyphName="A" x="0" y="0" flags="0x204"/>
      <component glyphName="dieresis" x="55" y="338" flags="0x4"/>
    </TTGlyph>
    <TTGlyph name="Agrave" xMin="0" yMin="0" xMax="1296" yMax="1907">
      <component glyphName="A" x="0" y="0" flags="0x204"/>
      <component glyphName="grave" x="-62" y="338" flags="0x4"/>
    </TTGlyph>
    <TTGlyph name="Alpha" xMin="0" yMin="0" xMax="1296" yMax="1468">
      <component glyphName="A" x="0" y="0" flags="0x204"/>
    </TTGlyph>
    <TTGlyph name="Alphatonos" xMin="0" yMin="0" xMax="1296" yMax="1546">
      <component glyphName="A" x="0" y="0" flags="0x204"/>
      <component glyphName="tonos" x="-480" y="-105" flags="0x4"/>
    </TTGlyph>
    <TTGlyph name="Amacron" xMin="0" yMin="0" xMax="1296" yMax="1716">
      <component glyphName="A" x="0" y="0" flags="0x204"/>
      <component glyphName="macron" x="63" y="338" flags="0x4"/>
    </TTGlyph>
    <TTGlyph name="Aogonek" xMin="0" yMin="-446" xMax="1297" yMax="1468">
      <component glyphName="A" x="0" y="0" flags="0x204"/>
      <component glyphName="ogonek" x="928" y="0" flags="0x4"/>
    </TTGlyph>
    <TTGlyph name="Aring" xMin="0" yMin="0" xMax="1296" yMax="1798">
      <component glyphName="A" x="0" y="0" flags="0x204"/>
      <component glyphName="ring" x="57" y="129" flags="0x4"/>
    </TTGlyph>
    <TTGlyph name="Aringacute" xMin="0" yMin="0" xMax="1300" yMax="1962">
      <contour>
        <pt x="872" y="1430" on="1"/>
        <pt x="872" y="1297" on="0"/>
        <pt x="768" y="1241" on="1"/>
        <pt x="1300" y="0" on="1"/>
        <pt x="1126" y="0" on="1"/>
        <pt x="950" y="401" on="1"/>
        <pt x="340" y="401" on="1"/>
        <pt x="174" y="0" on="1"/>
        <pt x="0" y="0" on="1"/>
        <pt x="532" y="1239" on="1"/>
        <pt x="426" y="1291" on="0"/>
        <pt x="426" y="1427" on="1"/>
        <pt x="426" y="1528" on="0"/>
        <pt x="548" y="1642" on="0"/>
        <pt x="647" y="1642" on="1"/>
        <pt x="747" y="1642" on="0"/>
        <pt x="872" y="1525" on="0"/>
      </contour>
      <contour>
        <pt x="899" y="555" on="1"/>
        <pt x="721" y="987" on="1"/>
        <pt x="696" y="1045" on="0"/>
        <pt x="649" y="1190" on="1"/>
        <pt x="635" y="1142" on="0"/>
        <pt x="587" y="1007" on="0"/>
        <pt x="578" y="983" on="1"/>
        <pt x="401" y="555" on="1"/>
      </contour>
      <contour>
        <pt x="553" y="1712" on="1"/>
        <pt x="602" y="1771" on="0"/>
        <pt x="704" y="1920" on="0"/>
        <pt x="727" y="1962" on="1"/>
        <pt x="930" y="1962" on="1"/>
        <pt x="930" y="1946" on="1"/>
        <pt x="898" y="1900" on="0"/>
        <pt x="730" y="1739" on="0"/>
        <pt x="664" y="1694" on="1"/>
        <pt x="553" y="1694" on="1"/>
      </contour>
      <contour>
        <pt x="764" y="1427" on="1"/>
        <pt x="764" y="1484" on="0"/>
        <pt x="698" y="1544" on="0"/>
        <pt x="647" y="1544" on="1"/>
        <pt x="596" y="1544" on="0"/>
        <pt x="530" y="1484" on="0"/>
        <pt x="530" y="1427" on="1"/>
        <pt x="530" y="1372" on="0"/>
        <pt x="590" y="1311" on="0"/>
        <pt x="647" y="1311" on="1"/>
        <pt x="700" y="1311" on="0"/>
        <pt x="764" y="1372" on="0"/>
      </contour>
    </TTGlyph>
    <TTGlyph name="Atilde" xMin="0" yMin="0" xMax="1296" yMax="1839">
      <component glyphName="A" x="0" y="0" flags="0x204"/>
      <component glyphName="tilde" x="4" y="338" flags="0x4"/>
    </TTGlyph>
    <TTGlyph name="B" xMin="201" yMin="0" xMax="1214" yMax="1462">
      <contour>
        <pt x="201" y="1462" on="1"/>
        <pt x="614" y="1462" on="1"/>
        <pt x="905" y="1462" on="0"/>
        <pt x="1165" y="1288" on="0"/>
        <pt x="1165" y="1100" on="1"/>
        <pt x="1165" y="970" on="0"/>
        <pt x="1020" y="801" on="0"/>
        <pt x="881" y="776" on="1"/>
        <pt x="881" y="766" on="1"/>
        <pt x="1214" y="709" on="0"/>
        <pt x="1214" y="416" on="1"/>
        <pt x="1214" y="220" on="0"/>
        <pt x="949" y="0" on="0"/>
        <pt x="711" y="0" on="1"/>
        <pt x="201" y="0" on="1"/>
      </contour>
      <contour>
        <pt x="371" y="836" on="1"/>
        <pt x="651" y="836" on="1"/>
        <pt x="831" y="836" on="0"/>
        <pt x="989" y="949" on="0"/>
        <pt x="989" y="1083" on="1"/>
        <pt x="989" y="1206" on="0"/>
        <pt x="813" y="1315" on="0"/>
        <pt x="621" y="1315" on="1"/>
        <pt x="371" y="1315" on="1"/>
      </contour>
      <contour>
        <pt x="371" y="692" on="1"/>
        <pt x="371" y="145" on="1"/>
        <pt x="676" y="145" on="1"/>
        <pt x="853" y="145" on="0"/>
        <pt x="1032" y="282" on="0"/>
        <pt x="1032" y="428" on="1"/>
        <pt x="1032" y="564" on="0"/>
        <pt x="849" y="692" on="0"/>
        <pt x="662" y="692" on="1"/>
      </contour>
    </TTGlyph>
    <TTGlyph name="Beta" xMin="201" yMin="0" xMax="1214" yMax="1462">
      <component glyphName="B" x="0" y="0" flags="0x204"/>
    </TTGlyph>
    <TTGlyph name="C" xMin="125" yMin="-20" xMax="1231" yMax="1483">
      <contour>
        <pt x="827" y="1331" on="1"/>
        <pt x="586" y="1331" on="0"/>
        <pt x="307" y="1010" on="0"/>
        <pt x="307" y="731" on="1"/>
        <pt x="307" y="444" on="0"/>
        <pt x="576" y="131" on="0"/>
        <pt x="825" y="131" on="1"/>
        <pt x="978" y="131" on="0"/>
        <pt x="1174" y="186" on="1"/>
        <pt x="1174" y="37" on="1"/>
        <pt x="1022" y="-20" on="0"/>
        <pt x="799" y="-20" on="1"/>
        <pt x="476" y="-20" on="0"/>
        <pt x="125" y="372" on="0"/>
        <pt x="125" y="733" on="1"/>
        <pt x="125" y="959" on="0"/>
        <pt x="294" y="1299" on="0"/>
        <pt x="613" y="1483" on="0"/>
        <pt x="829" y="1483" on="1"/>
        <pt x="1059" y="1483" on="0"/>
        <pt x="1231" y="1399" on="1"/>
        <pt x="1159" y="1253" on="1"/>
        <pt x="993" y="1331" on="0"/>
      </contour>
    </TTGlyph>
    <TTGlyph name="Cacute" xMin="125" yMin="-20" xMax="1231" yMax="1907">
      <component glyphName="C" x="0" y="0" flags="0x204"/>
      <component glyphName="acute" x="264" y="338" flags="0x4"/>
    </TTGlyph>
    <TTGlyph name="Ccaron" xMin="125" yMin="-20" xMax="1231" yMax="1907">
      <component glyphName="C" x="0" y="0" flags="0x204"/>
      <component glyphName="caron" x="193" y="338" flags="0x4"/>
    </TTGlyph>
    <TTGlyph name="Ccedilla" xMin="125" yMin="-492" xMax="1231" yMax="1483">
      <component glyphName="C" x="0" y="0" flags="0x204"/>
      <component glyphName="cedilla" x="514" y="0" flags="0x4"/>
    </TTGlyph>
    <TTGlyph name="Ccircumflex" xMin="125" yMin="-20" xMax="1231" yMax="1907">
      <component glyphName="C" x="0" y="0" flags="0x204"/>
      <component glyphName="circumflex" x="172" y="338" flags="0x4"/>
    </TTGlyph>
    <TTGlyph name="Cdot" xMin="125" yMin="-20" xMax="1231" yMax="1841">
      <component glyphName="C" x="0" y="0" flags="0x204"/>
      <component glyphName="dotaccent" x="539" y="338" flags="0x4"/>
    </TTGlyph>
    <TTGlyph name="Chi" xMin="8" yMin="0" xMax="1174" yMax="1462">
      <component glyphName="X" x="0" y="0" flags="0x204"/>
    </TTGlyph>
    <TTGlyph name="D" xMin="201" yMin="0" xMax="1368" yMax="1462">
      <contour>
        <pt x="1368" y="745" on="1"/>
        <pt x="1368" y="383" on="0"/>
        <pt x="975" y="0" on="0"/>
        <pt x="606" y="0" on="1"/>
        <pt x="201" y="0" on="1"/>
        <pt x="201" y="1462" on="1"/>
        <pt x="649" y="1462" on="1"/>
        <pt x="990" y="1462" on="0"/>
        <pt x="1368" y="1084" on="0"/>
      </contour>
      <contour>
        <pt x="1188" y="739" on="1"/>
        <pt x="1188" y="1025" on="0"/>
        <pt x="901" y="1315" on="0"/>
        <pt x="618" y="1315" on="1"/>
        <pt x="371" y="1315" on="1"/>
        <pt x="371" y="147" on="1"/>
        <pt x="578" y="147" on="1"/>
        <pt x="882" y="147" on="0"/>
        <pt x="1188" y="446" on="0"/>
      </contour>
    </TTGlyph>
    <TTGlyph name="Dcaron" xMin="201" yMin="0" xMax="1368" yMax="1907">
      <component glyphName="D" x="0" y="0" flags="0x204"/>
      <component glyphName="caron" x="88" y="338" flags="0x4"/>
    </TTGlyph>
    <TTGlyph name="Dcroat" xMin="47" yMin="0" xMax="1352" yMax="1462">
      <component glyphName="Eth" x="0" y="0" flags="0x204"/>
    </TTGlyph>
    <TTGlyph name="Delta" xMin="39" yMin="0" xMax="1133" yMax="1462">
      <contour>
        <pt x="39" y="104" on="1"/>
        <pt x="502" y="1462" on="1"/>
        <pt x="668" y="1462" on="1"/>
        <pt x="1133" y="102" on="1"/>
        <pt x="1133" y="0" on="1"/>
        <pt x="39" y="0" on="1"/>
      </contour>
      <contour>
        <pt x="584" y="1268" on="1"/>
        <pt x="523" y="1043" on="0"/>
        <pt x="483" y="922" on="1"/>
        <pt x="223" y="152" on="1"/>
        <pt x="944" y="152" on="1"/>
        <pt x="686" y="913" on="1"/>
        <pt x="618" y="1115" on="0"/>
      </contour>
    </TTGlyph>
    <TTGlyph name="E" xMin="201" yMin="0" xMax="1016" yMax="1462">
      <contour>
        <pt x="1016" y="0" on="1"/>
        <pt x="201" y="0" on="1"/>
        <pt x="201" y="1462" on="1"/>
        <pt x="1016" y="1462" on="1"/>
        <pt x="1016" y="1311" on="1"/>
        <pt x="371" y="1311" on="1"/>
        <pt x="371" y="840" on="1"/>
        <pt x="977" y="840" on="1"/>
        <pt x="977" y="690" on="1"/>
        <pt x="371" y="690" on="1"/>
        <pt x="371" y="152" on="1"/>
        <pt x="1016" y="152" on="1"/>
      </contour>
    </TTGlyph>
    <TTGlyph name="Eacute" xMin="201" yMin="0" xMax="1016" yMax="1907">
      <component glyphName="E" x="0" y="0" flags="0x204"/>
      <component glyphName="acute" x="63" y="338" flags="0x4"/>
    </TTGlyph>
    <TTGlyph name="Ebreve" xMin="201" yMin="0" xMax="1016" yMax="1847">
      <component glyphName="E" x="0" y="0" flags="0x204"/>
      <component glyphName="breve" x="16" y="338" flags="0x4"/>
    </TTGlyph>
    <TTGlyph name="Ecaron" xMin="201" yMin="0" xMax="1016" yMax="1907">
      <component glyphName="E" x="0" y="0" flags="0x204"/>
      <component glyphName="caron" x="16" y="338" flags="0x4"/>
    </TTGlyph>
    <TTGlyph name="Ecircumflex" xMin="201" yMin="0" xMax="1016" yMax="1907">
      <component glyphName="E" x="0" y="0" flags="0x204"/>
      <component glyphName="circumflex" x="-5" y="338" flags="0x4"/>
    </TTGlyph>
    <TTGlyph name="Edieresis" xMin="201" yMin="0" xMax="1016" yMax="1829">
      <component glyphName="E" x="0" y="0" flags="0x204"/>
      <component glyphName="dieresis" x="18" y="338" flags="0x4"/>
    </TTGlyph>
    <TTGlyph name="Edotaccent" xMin="201" yMin="0" xMax="1016" yMax="1812">
      <component glyphName="E" x="0" y="0" flags="0x204"/>
      <component glyphName="dotaccent" x="367" y="309" flags="0x4"/>
    </TTGlyph>
    <TTGlyph name="Egrave" xMin="201" yMin="0" xMax="1016" yMax="1907">
      <component glyphName="E" x="0" y="0" flags="0x204"/>
      <component glyphName="grave" x="-73" y="338" flags="0x4"/>
    </TTGlyph>
    <TTGlyph name="Emacron" xMin="201" yMin="0" xMax="1016" yMax="1716">
      <component glyphName="E" x="0" y="0" flags="0x204"/>
      <component glyphName="macron" x="18" y="338" flags="0x4"/>
    </TTGlyph>
    <TTGlyph name="Eng" xMin="201" yMin="-385" xMax="1343" yMax="1462">
      <contour>
        <pt x="969" y="-385" on="1"/>
        <pt x="871" y="-385" on="0"/>
        <pt x="817" y="-358" on="1"/>
        <pt x="817" y="-213" on="1"/>
        <pt x="888" y="-233" on="0"/>
        <pt x="971" y="-233" on="1"/>
        <pt x="1076" y="-233" on="0"/>
        <pt x="1182" y="-111" on="0"/>
        <pt x="1182" y="0" on="1"/>
        <pt x="350" y="1227" on="1"/>
        <pt x="342" y="1227" on="1"/>
        <pt x="358" y="963" on="0"/>
        <pt x="358" y="805" on="1"/>
        <pt x="358" y="0" on="1"/>
        <pt x="201" y="0" on="1"/>
        <pt x="201" y="1462" on="1"/>
        <pt x="393" y="1462" on="1"/>
        <pt x="1190" y="260" on="1"/>
        <pt x="1198" y="260" on="1"/>
        <pt x="1184" y="409" on="0"/>
        <pt x="1184" y="633" on="1"/>
        <pt x="1184" y="1462" on="1"/>
        <pt x="1343" y="1462" on="1"/>
        <pt x="1343" y="14" on="1"/>
        <pt x="1343" y="-181" on="0"/>
        <pt x="1150" y="-385" on="0"/>
      </contour>
    </TTGlyph>
    <TTGlyph name="Eogonek" xMin="201" yMin="-446" xMax="1016" yMax="1462">
      <component glyphName="E" x="0" y="0" flags="0x204"/>
      <component glyphName="ogonek" x="627" y="0" flags="0x4"/>
    </TTGlyph>
    <TTGlyph name="Epsilon" xMin="201" yMin="0" xMax="1016" yMax="1462">
      <component glyphName="E" x="0" y="0" flags="0x204"/>
    </TTGlyph>
    <TTGlyph name="Epsilontonos" xMin="-44" yMin="0" xMax="1141" yMax="1546">
      <component glyphName="E" x="125" y="0" flags="0x4"/>
      <component glyphName="tonos" x="-552" y="-105" flags="0x4"/>
    </TTGlyph>
    <TTGlyph name="Eta" xMin="201" yMin="0" xMax="1311" yMax="1462">
      <component glyphName="H" x="0" y="0" flags="0x204"/>
    </TTGlyph>
    <TTGlyph name="Etatonos" xMin="-44" yMin="0" xMax="1461" yMax="1546">
      <component glyphName="H" x="150" y="0" flags="0x4"/>
      <component glyphName="tonos" x="-552" y="-105" flags="0x4"/>
    </TTGlyph>
    <TTGlyph name="Eth" xMin="47" yMin="0" xMax="1352" yMax="1462">
      <contour>
        <pt x="1352" y="745" on="1"/>
        <pt x="1352" y="383" on="0"/>
        <pt x="959" y="0" on="0"/>
        <pt x="590" y="0" on="1"/>
        <pt x="201" y="0" on="1"/>
        <pt x="201" y="649" on="1"/>
        <pt x="47" y="649" on="1"/>
        <pt x="47" y="799" on="1"/>
        <pt x="201" y="799" on="1"/>
        <pt x="201" y="1462" on="1"/>
        <pt x="635" y="1462" on="1"/>
        <pt x="972" y="1462" on="0"/>
        <pt x="1352" y="1087" on="0"/>
      </contour>
      <contour>
        <pt x="1171" y="739" on="1"/>
        <pt x="1171" y="1315" on="0"/>
        <pt x="602" y="1315" on="1"/>
        <pt x="371" y="1315" on="1"/>
        <pt x="371" y="799" on="1"/>
        <pt x="750" y="799" on="1"/>
        <pt x="750" y="649" on="1"/>
        <pt x="371" y="649" on="1"/>
        <pt x="371" y="147" on="1"/>
        <pt x="561" y="147" on="1"/>
        <pt x="1171" y="147" on="0"/>
      </contour>
    </TTGlyph>
    <TTGlyph name="Euro" xMin="63" yMin="-20" xMax="1161" yMax="1483">
      <contour>
        <pt x="795" y="1333" on="1"/>
        <pt x="476" y="1333" on="0"/>
        <pt x="397" y="930" on="1"/>
        <pt x="907" y="930" on="1"/>
        <pt x="907" y="801" on="1"/>
        <pt x="383" y="801" on="1"/>
        <pt x="381" y="744" on="1"/>
        <pt x="381" y="680" on="1"/>
        <pt x="383" y="635" on="1"/>
        <pt x="846" y="635" on="1"/>
        <pt x="846" y="506" on="1"/>
        <pt x="399" y="506" on="1"/>
        <pt x="436" y="326" on="0"/>
        <pt x="639" y="129" on="0"/>
        <pt x="809" y="129" on="1"/>
        <pt x="965" y="129" on="0"/>
        <pt x="1118" y="195" on="1"/>
        <pt x="1118" y="45" on="1"/>
        <pt x="972" y="-20" on="0"/>
        <pt x="801" y="-20" on="1"/>
        <pt x="564" y="-20" on="0"/>
        <pt x="275" y="249" on="0"/>
        <pt x="229" y="506" on="1"/>
        <pt x="63" y="506" on="1"/>
        <pt x="63" y="635" on="1"/>
        <pt x="215" y="635" on="1"/>
        <pt x="213" y="677" on="1"/>
        <pt x="213" y="721" on="1"/>
        <pt x="215" y="801" on="1"/>
        <pt x="63" y="801" on="1"/>
        <pt x="63" y="930" on="1"/>
        <pt x="227" y="930" on="1"/>
        <pt x="266" y="1191" on="0"/>
        <pt x="558" y="1483" on="0"/>
        <pt x="795" y="1483" on="1"/>
        <pt x="996" y="1483" on="0"/>
        <pt x="1161" y="1386" on="1"/>
        <pt x="1090" y="1247" on="1"/>
        <pt x="924" y="1333" on="0"/>
      </contour>
    </TTGlyph>
    <TTGlyph name="F" xMin="201" yMin="0" xMax="1016" yMax="1462">
      <contour>
        <pt x="371" y="0" on="1"/>
        <pt x="201" y="0" on="1"/>
        <pt x="201" y="1462" on="1"/>
        <pt x="1016" y="1462" on="1"/>
        <pt x="1016" y="1311" on="1"/>
        <pt x="371" y="1311" on="1"/>
        <pt x="371" y="776" on="1"/>
        <pt x="977" y="776" on="1"/>
        <pt x="977" y="625" on="1"/>
        <pt x="371" y="625" on="1"/>
      </contour>
    </TTGlyph>
    <TTGlyph name="G" xMin="125" yMin="-20" xMax="1341" yMax="1483">
      <contour>
        <pt x="844" y="766" on="1"/>
        <pt x="1341" y="766" on="1"/>
        <pt x="1341" y="55" on="1"/>
        <pt x="1225" y="18" on="0"/>
        <pt x="985" y="-20" on="0"/>
        <pt x="827" y="-20" on="1"/>
        <pt x="495" y="-20" on="0"/>
        <pt x="125" y="375" on="0"/>
        <pt x="125" y="731" on="1"/>
        <pt x="125" y="959" on="0"/>
        <pt x="308" y="1302" on="0"/>
        <pt x="652" y="1483" on="0"/>
        <pt x="883" y="1483" on="1"/>
        <pt x="1117" y="1483" on="0"/>
        <pt x="1319" y="1397" on="1"/>
        <pt x="1253" y="1247" on="1"/>
        <pt x="1055" y="1331" on="0"/>
        <pt x="872" y="1331" on="1"/>
        <pt x="605" y="1331" on="0"/>
        <pt x="305" y="1013" on="0"/>
        <pt x="305" y="731" on="1"/>
        <pt x="305" y="435" on="0"/>
        <pt x="594" y="129" on="0"/>
        <pt x="874" y="129" on="1"/>
        <pt x="1026" y="129" on="0"/>
        <pt x="1171" y="164" on="1"/>
        <pt x="1171" y="614" on="1"/>
        <pt x="844" y="614" on="1"/>
      </contour>
    </TTGlyph>
    <TTGlyph name="Gamma" xMin="201" yMin="0" xMax="1016" yMax="1462">
      <contour>
        <pt x="1016" y="1462" on="1"/>
        <pt x="1016" y="1309" on="1"/>
        <pt x="371" y="1309" on="1"/>
        <pt x="371" y="0" on="1"/>
        <pt x="201" y="0" on="1"/>
        <pt x="201" y="1462" on="1"/>
      </contour>
    </TTGlyph>
    <TTGlyph name="Gbreve" xMin="125" yMin="-20" xMax="1341" yMax="1847">
      <component glyphName="G" x="0" y="0" flags="0x204"/>
      <component glyphName="breve" x="256" y="338" flags="0x4"/>
    </TTGlyph>
    <TTGlyph name="Gcircumflex" xMin="125" yMin="-20" xMax="1341" yMax="1907">
      <component glyphName="G" x="0" y="0" flags="0x204"/>
      <component glyphName="circumflex" x="233" y="338" flags="0x4"/>
    </TTGlyph>
    <TTGlyph name="Gcommaaccent" xMin="125" yMin="-453" xMax="1341" yMax="1483">
      <component glyphName="G" x="0" y="0" flags="0x204"/>
      <component glyphName="commaaccent" x="295" y="0" flags="0x4"/>
    </TTGlyph>
    <TTGlyph name="Gdot" xMin="125" yMin="-20" xMax="1341" yMax="1841">
      <component glyphName="G" x="0" y="0" flags="0x204"/>
      <component glyphName="dotaccent" x="612" y="338" flags="0x4"/>
    </TTGlyph>
    <TTGlyph name="H" xMin="201" yMin="0" xMax="1311" yMax="1462">
      <contour>
        <pt x="1311" y="0" on="1"/>
        <pt x="1141" y="0" on="1"/>
        <pt x="1141" y="688" on="1"/>
        <pt x="371" y="688" on="1"/>
        <pt x="371" y="0" on="1"/>
        <pt x="201" y="0" on="1"/>
        <pt x="201" y="1462" on="1"/>
        <pt x="371" y="1462" on="1"/>
        <pt x="371" y="840" on="1"/>
        <pt x="1141" y="840" on="1"/>
        <pt x="1141" y="1462" on="1"/>
        <pt x="1311" y="1462" on="1"/>
      </contour>
    </TTGlyph>
    <TTGlyph name="Hbar" xMin="0" yMin="0" xMax="1511" yMax="1462">
      <contour>
        <pt x="201" y="1214" on="1"/>
        <pt x="201" y="1462" on="1"/>
        <pt x="371" y="1462" on="1"/>
        <pt x="371" y="1214" on="1"/>
        <pt x="1141" y="1214" on="1"/>
        <pt x="1141" y="1462" on="1"/>
        <pt x="1311" y="1462" on="1"/>
        <pt x="1311" y="1214" on="1"/>
        <pt x="1511" y="1214" on="1"/>
        <pt x="1511" y="1073" on="1"/>
        <pt x="1311" y="1073" on="1"/>
        <pt x="1311" y="0" on="1"/>
        <pt x="1141" y="0" on="1"/>
        <pt x="1141" y="688" on="1"/>
        <pt x="371" y="688" on="1"/>
        <pt x="371" y="0" on="1"/>
        <pt x="201" y="0" on="1"/>
        <pt x="201" y="1073" on="1"/>
        <pt x="0" y="1073" on="1"/>
        <pt x="0" y="1214" on="1"/>
      </contour>
      <contour>
        <pt x="1141" y="840" on="1"/>
        <pt x="1141" y="1073" on="1"/>
        <pt x="371" y="1073" on="1"/>
        <pt x="371" y="840" on="1"/>
      </contour>
    </TTGlyph>
    <TTGlyph name="Hcircumflex" xMin="201" yMin="0" xMax="1311" yMax="1907">
      <component glyphName="H" x="0" y="0" flags="0x204"/>
      <component glyphName="circumflex" x="150" y="338" flags="0x4"/>
    </TTGlyph>
    <TTGlyph name="I" xMin="201" yMin="0" xMax="371" yMax="1462">
      <contour>
        <pt x="201" y="0" on="1"/>
        <pt x="201" y="1462" on="1"/>
        <pt x="371" y="1462" on="1"/>
        <pt x="371" y="0" on="1"/>
      </contour>
    </TTGlyph>
    <TTGlyph name="I.alt" xMin="84" yMin="0" xMax="598" yMax="1462">
      <contour>
        <pt x="598" y="0" on="1"/>
        <pt x="84" y="0" on="1"/>
        <pt x="84" y="98" on="1"/>
        <pt x="256" y="133" on="1"/>
        <pt x="256" y="1327" on="1"/>
        <pt x="84" y="1364" on="1"/>
        <pt x="84" y="1462" on="1"/>
        <pt x="598" y="1462" on="1"/>
        <pt x="598" y="1364" on="1"/>
        <pt x="426" y="1327" on="1"/>
        <pt x="426" y="133" on="1"/>
        <pt x="598" y="98" on="1"/>
      </contour>
    </TTGlyph>
    <TTGlyph name="IJ" xMin="201" yMin="-385" xMax="931" yMax="1462">
      <component glyphName="I" x="0" y="0" flags="0x4"/>
      <component glyphName="J" x="571" y="0" flags="0x4"/>
    </TTGlyph>
    <TTGlyph name="IJ.alt" xMin="84" yMin="-385" xMax="1040" yMax="1462">
      <component glyphName="I.alt" x="0" y="0" flags="0x4"/>
      <component glyphName="J" x="680" y="0" flags="0x4"/>
    </TTGlyph>
    <TTGlyph name="Iacute" xMin="179" yMin="0" xMax="572" yMax="1907">
      <component glyphName="I" x="0" y="0" flags="0x204"/>
      <component glyphName="acute" x="-214" y="338" flags="0x4"/>
    </TTGlyph>
    <TTGlyph name="Iacute.alt" xMin="84" yMin="0" xMax="627" yMax="1907">
      <component glyphName="I.alt" x="0" y="0" flags="0x204"/>
      <component glyphName="acute" x="-159" y="338" flags="0x4"/>
    </TTGlyph>
    <TTGlyph name="Ibreve" xMin="-25" yMin="0" xMax="595" yMax="1847">
      <component glyphName="I" x="0" y="0" flags="0x204"/>
      <component glyphName="breve" x="-318" y="338" flags="0x4"/>
    </TTGlyph>
    <TTGlyph name="Ibreve.alt" xMin="30" yMin="0" xMax="650" yMax="1847">
      <component glyphName="I.alt" x="0" y="0" flags="0x204"/>
      <component glyphName="breve" x="-263" y="338" flags="0x4"/>
    </TTGlyph>
    <TTGlyph name="Icircumflex" xMin="-57" yMin="0" xMax="617" yMax="1907">
      <component glyphName="I" x="0" y="0" flags="0x204"/>
      <component glyphName="circumflex" x="-325" y="338" flags="0x4"/>
    </TTGlyph>
    <TTGlyph name="Icircumflex.alt" xMin="-1" yMin="0" xMax="673" yMax="1907">
      <component glyphName="I.alt" x="0" y="0" flags="0x204"/>
      <component glyphName="circumflex" x="-269" y="338" flags="0x4"/>
    </TTGlyph>
    <TTGlyph name="Idieresis" xMin="5" yMin="0" xMax="568" yMax="1829">
      <component glyphName="I" x="0" y="0" flags="0x204"/>
      <component glyphName="dieresis" x="-304" y="338" flags="0x4"/>
    </TTGlyph>
    <TTGlyph name="Idieresis.alt" xMin="60" yMin="0" xMax="623" yMax="1829">
      <component glyphName="I.alt" x="0" y="0" flags="0x204"/>
      <component glyphName="dieresis" x="-249" y="338" flags="0x4"/>
    </TTGlyph>
    <TTGlyph name="Idotaccent" xMin="187" yMin="0" xMax="383" yMax="1841">
      <component glyphName="I" x="0" y="0" flags="0x204"/>
      <component glyphName="dotaccent" x="25" y="338" flags="0x4"/>
    </TTGlyph>
    <TTGlyph name="Idotaccent.alt" xMin="84" yMin="0" xMax="598" yMax="1841">
      <component glyphName="I.alt" x="0" y="0" flags="0x204"/>
      <component glyphName="dotaccent" x="80" y="338" flags="0x4"/>
    </TTGlyph>
    <TTGlyph name="Igrave" xMin="5" yMin="0" xMax="398" yMax="1907">
      <component glyphName="I" x="0" y="0" flags="0x204"/>
      <component glyphName="grave" x="-388" y="338" flags="0x4"/>
    </TTGlyph>
    <TTGlyph name="Igrave.alt" xMin="60" yMin="0" xMax="598" yMax="1907">
      <component glyphName="I.alt" x="0" y="0" flags="0x204"/>
      <component glyphName="grave" x="-333" y="338" flags="0x4"/>
    </TTGlyph>
    <TTGlyph name="Imacron" xMin="-13" yMin="0" xMax="587" yMax="1716">
      <component glyphName="I" x="0" y="0" flags="0x204"/>
      <component glyphName="macron" x="-314" y="338" flags="0x4"/>
    </TTGlyph>
    <TTGlyph name="Imacron.alt" xMin="42" yMin="0" xMax="642" yMax="1716">
      <component glyphName="I.alt" x="0" y="0" flags="0x204"/>
      <component glyphName="macron" x="-259" y="338" flags="0x4"/>
    </TTGlyph>
    <TTGlyph name="Iogonek" xMin="86" yMin="-446" xMax="418" yMax="1462">
      <component glyphName="I" x="0" y="0" flags="0x204"/>
      <component glyphName="ogonek" x="49" y="0" flags="0x4"/>
    </TTGlyph>
    <TTGlyph name="Iogonek.alt" xMin="84" yMin="-446" xMax="598" yMax="1462">
      <component glyphName="I.alt" x="0" y="0" flags="0x204"/>
      <component glyphName="ogonek" x="104" y="0" flags="0x4"/>
    </TTGlyph>
    <TTGlyph name="Iota" xMin="201" yMin="0" xMax="371" yMax="1462">
      <component glyphName="I" x="0" y="0" flags="0x204"/>
    </TTGlyph>
    <TTGlyph name="Iota.alt" xMin="84" yMin="0" xMax="598" yMax="1462">
      <component glyphName="I.alt" x="0" y="0" flags="0x204"/>
    </TTGlyph>
    <TTGlyph name="Iotadieresis" xMin="5" yMin="0" xMax="568" yMax="1829">
      <component glyphName="I" x="0" y="0" flags="0x204"/>
      <component glyphName="dieresis" x="-304" y="338" flags="0x4"/>
    </TTGlyph>
    <TTGlyph name="Iotadieresis.alt" xMin="60" yMin="0" xMax="623" yMax="1829">
      <component glyphName="I.alt" x="0" y="0" flags="0x204"/>
      <component glyphName="dieresis" x="-249" y="338" flags="0x4"/>
    </TTGlyph>
    <TTGlyph name="Iotatonos" xMin="-28" yMin="0" xMax="541" yMax="1546">
      <component glyphName="I" x="170" y="0" flags="0x4"/>
      <component glyphName="tonos" x="-536" y="-105" flags="0x4"/>
    </TTGlyph>
    <TTGlyph name="Iotatonos.alt" xMin="-28" yMin="0" xMax="836" yMax="1546">
      <component glyphName="I.alt" x="238" y="0" flags="0x4"/>
      <component glyphName="tonos" x="-536" y="-105" flags="0x4"/>
    </TTGlyph>
    <TTGlyph name="Itilde" xMin="-85" yMin="0" xMax="659" yMax="1839">
      <component glyphName="I" x="0" y="0" flags="0x204"/>
      <component glyphName="tilde" x="-349" y="338" flags="0x4"/>
    </TTGlyph>
    <TTGlyph name="Itilde.alt" xMin="-30" yMin="0" xMax="714" yMax="1839">
      <component glyphName="I.alt" x="0" y="0" flags="0x204"/>
      <component glyphName="tilde" x="-294" y="338" flags="0x4"/>
    </TTGlyph>
    <TTGlyph name="J" xMin="-160" yMin="-385" xMax="360" yMax="1462">
      <contour>
        <pt x="-12" y="-385" on="1"/>
        <pt x="-106" y="-385" on="0"/>
        <pt x="-160" y="-358" on="1"/>
        <pt x="-160" y="-213" on="1"/>
        <pt x="-89" y="-233" on="0"/>
        <pt x="-12" y="-233" on="1"/>
        <pt x="87" y="-233" on="0"/>
        <pt x="190" y="-113" on="0"/>
        <pt x="190" y="0" on="1"/>
        <pt x="190" y="1462" on="1"/>
        <pt x="360" y="1462" on="1"/>
        <pt x="360" y="14" on="1"/>
        <pt x="360" y="-176" on="0"/>
        <pt x="168" y="-385" on="0"/>
      </contour>
    </TTGlyph>
    <TTGlyph name="Jcircumflex" xMin="-160" yMin="-385" xMax="613" yMax="1907">
      <component glyphName="J" x="0" y="0" flags="0x204"/>
      <component glyphName="circumflex" x="-329" y="338" flags="0x4"/>
    </TTGlyph>
    <TTGlyph name="K" xMin="201" yMin="0" xMax="1257" yMax="1462">
      <contour>
        <pt x="1257" y="0" on="1"/>
        <pt x="1057" y="0" on="1"/>
        <pt x="524" y="709" on="1"/>
        <pt x="371" y="573" on="1"/>
        <pt x="371" y="0" on="1"/>
        <pt x="201" y="0" on="1"/>
        <pt x="201" y="1462" on="1"/>
        <pt x="371" y="1462" on="1"/>
        <pt x="371" y="737" on="1"/>
        <pt x="1034" y="1462" on="1"/>
        <pt x="1235" y="1462" on="1"/>
        <pt x="647" y="827" on="1"/>
      </contour>
    </TTGlyph>
    <TTGlyph name="Kappa" xMin="201" yMin="0" xMax="1257" yMax="1462">
      <component glyphName="K" x="0" y="0" flags="0x204"/>
    </TTGlyph>
    <TTGlyph name="Kcommaaccent" xMin="201" yMin="-453" xMax="1257" yMax="1462">
      <component glyphName="K" x="0" y="0" flags="0x204"/>
      <component glyphName="commaaccent" x="137" y="0" flags="0x4"/>
    </TTGlyph>
    <TTGlyph name="L" xMin="201" yMin="0" xMax="1016" yMax="1462">
      <contour>
        <pt x="201" y="0" on="1"/>
        <pt x="201" y="1462" on="1"/>
        <pt x="371" y="1462" on="1"/>
        <pt x="371" y="154" on="1"/>
        <pt x="1016" y="154" on="1"/>
        <pt x="1016" y="0" on="1"/>
      </contour>
    </TTGlyph>
    <TTGlyph name="Lacute" xMin="201" yMin="0" xMax="1016" yMax="1907">
      <component glyphName="L" x="0" y="0" flags="0x204"/>
      <component glyphName="acute" x="-157" y="338" flags="0x4"/>
    </TTGlyph>
    <TTGlyph name="Lambda" xMin="0" yMin="0" xMax="1235" yMax="1462">
      <contour>
        <pt x="1235" y="0" on="1"/>
        <pt x="1053" y="0" on="1"/>
        <pt x="723" y="928" on="1"/>
        <pt x="636" y="1180" on="0"/>
        <pt x="614" y="1270" on="1"/>
        <pt x="581" y="1131" on="0"/>
        <pt x="510" y="930" on="1"/>
        <pt x="182" y="0" on="1"/>
        <pt x="0" y="0" on="1"/>
        <pt x="528" y="1462" on="1"/>
        <pt x="705" y="1462" on="1"/>
      </contour>
    </TTGlyph>
    <TTGlyph name="Lcaron" xMin="201" yMin="0" xMax="1016" yMax="1463">
      <component glyphName="L" x="0" y="0" flags="0x204"/>
      <component glyphName="caroncommaaccent" x="285" y="-93" flags="0x4"/>
    </TTGlyph>
    <TTGlyph name="Lcommaaccent" xMin="201" yMin="-453" xMax="1016" yMax="1462">
      <component glyphName="L" x="0" y="0" flags="0x204"/>
      <component glyphName="commaaccent" x="49" y="0" flags="0x4"/>
    </TTGlyph>
    <TTGlyph name="Ldot" xMin="201" yMin="0" xMax="1016" yMax="1462">
      <component glyphName="L" x="0" y="0" flags="0x204"/>
      <component glyphName="dotaccent" x="516" y="-665" flags="0x4"/>
    </TTGlyph>
    <TTGlyph name="Lslash" xMin="29" yMin="0" xMax="1016" yMax="1462">
      <contour>
        <pt x="201" y="0" on="1"/>
        <pt x="201" y="508" on="1"/>
        <pt x="96" y="449" on="1"/>
        <pt x="29" y="563" on="1"/>
        <pt x="201" y="664" on="1"/>
        <pt x="201" y="1462" on="1"/>
        <pt x="371" y="1462" on="1"/>
        <pt x="371" y="764" on="1"/>
        <pt x="668" y="938" on="1"/>
        <pt x="735" y="817" on="1"/>
        <pt x="371" y="606" on="1"/>
        <pt x="371" y="154" on="1"/>
        <pt x="1016" y="154" on="1"/>
        <pt x="1016" y="0" on="1"/>
      </contour>
    </TTGlyph>
    <TTGlyph name="M" xMin="201" yMin="0" xMax="1649" yMax="1462">
      <contour>
        <pt x="848" y="0" on="1"/>
        <pt x="352" y="1296" on="1"/>
        <pt x="344" y="1296" on="1"/>
        <pt x="358" y="1142" on="0"/>
        <pt x="358" y="930" on="1"/>
        <pt x="358" y="0" on="1"/>
        <pt x="201" y="0" on="1"/>
        <pt x="201" y="1462" on="1"/>
        <pt x="457" y="1462" on="1"/>
        <pt x="920" y="256" on="1"/>
        <pt x="928" y="256" on="1"/>
        <pt x="1395" y="1462" on="1"/>
        <pt x="1649" y="1462" on="1"/>
        <pt x="1649" y="0" on="1"/>
        <pt x="1479" y="0" on="1"/>
        <pt x="1479" y="942" on="1"/>
        <pt x="1479" y="1104" on="0"/>
        <pt x="1493" y="1294" on="1"/>
        <pt x="1485" y="1294" on="1"/>
        <pt x="985" y="0" on="1"/>
      </contour>
    </TTGlyph>
    <TTGlyph name="Mu" xMin="201" yMin="0" xMax="1649" yMax="1462">
      <component glyphName="M" x="0" y="0" flags="0x204"/>
    </TTGlyph>
    <TTGlyph name="N" xMin="201" yMin="0" xMax="1343" yMax="1462">
      <contour>
        <pt x="1343" y="0" on="1"/>
        <pt x="1149" y="0" on="1"/>
        <pt x="350" y="1227" on="1"/>
        <pt x="342" y="1227" on="1"/>
        <pt x="358" y="1011" on="0"/>
        <pt x="358" y="831" on="1"/>
        <pt x="358" y="0" on="1"/>
        <pt x="201" y="0" on="1"/>
        <pt x="201" y="1462" on="1"/>
        <pt x="393" y="1462" on="1"/>
        <pt x="1190" y="240" on="1"/>
        <pt x="1198" y="240" on="1"/>
        <pt x="1196" y="267" on="0"/>
        <pt x="1182" y="560" on="0"/>
        <pt x="1184" y="623" on="1"/>
        <pt x="1184" y="1462" on="1"/>
        <pt x="1343" y="1462" on="1"/>
      </contour>
    </TTGlyph>
    <TTGlyph name="Nacute" xMin="201" yMin="0" xMax="1343" yMax="1907">
      <component glyphName="N" x="0" y="0" flags="0x204"/>
      <component glyphName="acute" x="258" y="338" flags="0x4"/>
    </TTGlyph>
    <TTGlyph name="Ncaron" xMin="201" yMin="0" xMax="1343" yMax="1907">
      <component glyphName="N" x="0" y="0" flags="0x204"/>
      <component glyphName="caron" x="166" y="338" flags="0x4"/>
    </TTGlyph>
    <TTGlyph name="Ncommaaccent" xMin="201" yMin="-453" xMax="1343" yMax="1462">
      <component glyphName="N" x="0" y="0" flags="0x204"/>
      <component glyphName="commaaccent" x="205" y="0" flags="0x4"/>
    </TTGlyph>
    <TTGlyph name="Ntilde" xMin="201" yMin="0" xMax="1343" yMax="1839">
      <component glyphName="N" x="0" y="0" flags="0x204"/>
      <component glyphName="tilde" x="147" y="338" flags="0x4"/>
    </TTGlyph>
    <TTGlyph name="Nu" xMin="201" yMin="0" xMax="1343" yMax="1462">
      <component glyphName="N" x="0" y="0" flags="0x204"/>
    </TTGlyph>
    <TTGlyph name="O" xMin="125" yMin="-20" xMax="1470" yMax="1485">
      <contour>
        <pt x="1470" y="733" on="1"/>
        <pt x="1470" y="382" on="0"/>
        <pt x="1115" y="-20" on="0"/>
        <pt x="799" y="-20" on="1"/>
        <pt x="476" y="-20" on="0"/>
        <pt x="125" y="375" on="0"/>
        <pt x="125" y="735" on="1"/>
        <pt x="125" y="1092" on="0"/>
        <pt x="477" y="1485" on="0"/>
        <pt x="801" y="1485" on="1"/>
        <pt x="1116" y="1485" on="0"/>
        <pt x="1470" y="1085" on="0"/>
      </contour>
      <contour>
        <pt x="305" y="733" on="1"/>
        <pt x="305" y="436" on="0"/>
        <pt x="558" y="129" on="0"/>
        <pt x="799" y="129" on="1"/>
        <pt x="1042" y="129" on="0"/>
        <pt x="1290" y="435" on="0"/>
        <pt x="1290" y="733" on="1"/>
        <pt x="1290" y="1028" on="0"/>
        <pt x="1043" y="1333" on="0"/>
        <pt x="801" y="1333" on="1"/>
        <pt x="558" y="1333" on="0"/>
        <pt x="305" y="1026" on="0"/>
      </contour>
    </TTGlyph>
    <TTGlyph name="OE" xMin="125" yMin="-20" xMax="1767" yMax="1485">
      <contour>
        <pt x="1767" y="0" on="1"/>
        <pt x="999" y="0" on="1"/>
        <pt x="897" y="-20" on="0"/>
        <pt x="805" y="-20" on="1"/>
        <pt x="478" y="-20" on="0"/>
        <pt x="125" y="373" on="0"/>
        <pt x="125" y="735" on="1"/>
        <pt x="125" y="1095" on="0"/>
        <pt x="473" y="1485" on="0"/>
        <pt x="793" y="1485" on="1"/>
        <pt x="895" y="1485" on="0"/>
        <pt x="985" y="1462" on="1"/>
        <pt x="1767" y="1462" on="1"/>
        <pt x="1767" y="1311" on="1"/>
        <pt x="1178" y="1311" on="1"/>
        <pt x="1178" y="840" on="1"/>
        <pt x="1729" y="840" on="1"/>
        <pt x="1729" y="690" on="1"/>
        <pt x="1178" y="690" on="1"/>
        <pt x="1178" y="152" on="1"/>
        <pt x="1767" y="152" on="1"/>
      </contour>
      <contour>
        <pt x="811" y="1333" on="1"/>
        <pt x="562" y="1333" on="0"/>
        <pt x="305" y="1028" on="0"/>
        <pt x="305" y="733" on="1"/>
        <pt x="305" y="436" on="0"/>
        <pt x="562" y="129" on="0"/>
        <pt x="809" y="129" on="1"/>
        <pt x="921" y="129" on="0"/>
        <pt x="1008" y="162" on="1"/>
        <pt x="1008" y="1303" on="1"/>
        <pt x="921" y="1333" on="0"/>
      </contour>
    </TTGlyph>
    <TTGlyph name="Oacute" xMin="125" yMin="-20" xMax="1470" yMax="1907">
      <component glyphName="O" x="0" y="0" flags="0x204"/>
      <component glyphName="acute" x="266" y="338" flags="0x4"/>
    </TTGlyph>
    <TTGlyph name="Obreve" xMin="125" yMin="-20" xMax="1470" yMax="1847">
      <component glyphName="O" x="0" y="0" flags="0x204"/>
      <component glyphName="breve" x="193" y="338" flags="0x4"/>
    </TTGlyph>
    <TTGlyph name="Ocircumflex" xMin="125" yMin="-20" xMax="1470" yMax="1907">
      <component glyphName="O" x="0" y="0" flags="0x204"/>
      <component glyphName="circumflex" x="180" y="338" flags="0x4"/>
    </TTGlyph>
    <TTGlyph name="Odieresis" xMin="125" yMin="-20" xMax="1470" yMax="1829">
      <component glyphName="O" x="0" y="0" flags="0x204"/>
      <component glyphName="dieresis" x="213" y="338" flags="0x4"/>
    </TTGlyph>
    <TTGlyph name="Ograve" xMin="125" yMin="-20" xMax="1470" yMax="1907">
      <component glyphName="O" x="0" y="0" flags="0x204"/>
      <component glyphName="grave" x="121" y="338" flags="0x4"/>
    </TTGlyph>
    <TTGlyph name="Ohorn" xMin="125" yMin="-20" xMax="1636" yMax="1556">
      <contour>
        <pt x="1468" y="733" on="1"/>
        <pt x="1468" y="379" on="0"/>
        <pt x="1113" y="-20" on="0"/>
        <pt x="799" y="-20" on="1"/>
        <pt x="476" y="-20" on="0"/>
        <pt x="125" y="373" on="0"/>
        <pt x="125" y="735" on="1"/>
        <pt x="125" y="1095" on="0"/>
        <pt x="478" y="1485" on="0"/>
        <pt x="801" y="1485" on="1"/>
        <pt x="1126" y="1485" on="0"/>
        <pt x="1305" y="1270" on="1"/>
        <pt x="1355" y="1282" on="0"/>
        <pt x="1413" y="1349" on="0"/>
        <pt x="1440" y="1451" on="0"/>
        <pt x="1440" y="1556" on="1"/>
        <pt x="1622" y="1556" on="1"/>
        <pt x="1636" y="1534" on="1"/>
        <pt x="1607" y="1379" on="0"/>
        <pt x="1476" y="1206" on="0"/>
        <pt x="1372" y="1167" on="1"/>
        <pt x="1468" y="991" on="0"/>
      </contour>
      <contour>
        <pt x="305" y="733" on="1"/>
        <pt x="305" y="435" on="0"/>
        <pt x="555" y="129" on="0"/>
        <pt x="799" y="129" on="1"/>
        <pt x="1042" y="129" on="0"/>
        <pt x="1288" y="434" on="0"/>
        <pt x="1288" y="733" on="1"/>
        <pt x="1288" y="1028" on="0"/>
        <pt x="1043" y="1333" on="0"/>
        <pt x="801" y="1333" on="1"/>
        <pt x="558" y="1333" on="0"/>
        <pt x="305" y="1030" on="0"/>
      </contour>
    </TTGlyph>
    <TTGlyph name="Ohungarumlaut" xMin="125" yMin="-20" xMax="1470" yMax="1907">
      <component glyphName="O" x="0" y="0" flags="0x204"/>
      <component glyphName="hungarumlaut" x="276" y="338" flags="0x4"/>
    </TTGlyph>
    <TTGlyph name="Omacron" xMin="125" yMin="-20" xMax="1470" yMax="1716">
      <component glyphName="O" x="0" y="0" flags="0x204"/>
      <component glyphName="macron" x="199" y="338" flags="0x4"/>
    </TTGlyph>
    <TTGlyph name="Omega" xMin="80" yMin="0" xMax="1524" yMax="1485">
      <component glyphName="uni03A9" x="0" y="0" flags="0x204"/>
    </TTGlyph>
    <TTGlyph name="Omegatonos" xMin="-28" yMin="0" xMax="1587" yMax="1546">
      <component glyphName="uni03A9" x="63" y="0" flags="0x4"/>
      <component glyphName="tonos" x="-536" y="-105" flags="0x4"/>
    </TTGlyph>
    <TTGlyph name="Omicron" xMin="125" yMin="-20" xMax="1470" yMax="1485">
      <component glyphName="O" x="0" y="0" flags="0x204"/>
    </TTGlyph>
    <TTGlyph name="Omicrontonos" xMin="-28" yMin="-20" xMax="1538" yMax="1546">
      <component glyphName="O" x="68" y="0" flags="0x4"/>
      <component glyphName="tonos" x="-536" y="-105" flags="0x4"/>
    </TTGlyph>
    <TTGlyph name="Oslash" xMin="125" yMin="-61" xMax="1470" yMax="1526">
      <contour>
        <pt x="1470" y="733" on="1"/>
        <pt x="1470" y="382" on="0"/>
        <pt x="1115" y="-20" on="0"/>
        <pt x="799" y="-20" on="1"/>
        <pt x="564" y="-20" on="0"/>
        <pt x="416" y="80" on="1"/>
        <pt x="315" y="-61" on="1"/>
        <pt x="195" y="18" on="1"/>
        <pt x="303" y="172" on="1"/>
        <pt x="125" y="370" on="0"/>
        <pt x="125" y="735" on="1"/>
        <pt x="125" y="1092" on="0"/>
        <pt x="477" y="1485" on="0"/>
        <pt x="801" y="1485" on="1"/>
        <pt x="1010" y="1485" on="0"/>
        <pt x="1167" y="1391" on="1"/>
        <pt x="1264" y="1526" on="1"/>
        <pt x="1384" y="1446" on="1"/>
        <pt x="1278" y="1298" on="1"/>
        <pt x="1470" y="1096" on="0"/>
      </contour>
      <contour>
        <pt x="1290" y="733" on="1"/>
        <pt x="1290" y="1005" on="0"/>
        <pt x="1180" y="1159" on="1"/>
        <pt x="508" y="211" on="1"/>
        <pt x="623" y="129" on="0"/>
        <pt x="799" y="129" on="1"/>
        <pt x="1042" y="129" on="0"/>
        <pt x="1290" y="435" on="0"/>
      </contour>
      <contour>
        <pt x="305" y="733" on="1"/>
        <pt x="305" y="471" on="0"/>
        <pt x="406" y="317" on="1"/>
        <pt x="1075" y="1260" on="1"/>
        <pt x="969" y="1333" on="0"/>
        <pt x="801" y="1333" on="1"/>
        <pt x="558" y="1333" on="0"/>
        <pt x="305" y="1026" on="0"/>
      </contour>
    </TTGlyph>
    <TTGlyph name="Oslashacute" xMin="125" yMin="-61" xMax="1470" yMax="1907">
      <component glyphName="Oslash" x="0" y="0" flags="0x204"/>
      <component glyphName="acute" x="281" y="338" flags="0x4"/>
    </TTGlyph>
    <TTGlyph name="Otilde" xMin="125" yMin="-20" xMax="1470" yMax="1839">
      <component glyphName="O" x="0" y="0" flags="0x204"/>
      <component glyphName="tilde" x="154" y="338" flags="0x4"/>
    </TTGlyph>
    <TTGlyph name="P" xMin="201" yMin="0" xMax="1128" yMax="1462">
      <contour>
        <pt x="1128" y="1036" on="1"/>
        <pt x="1128" y="814" on="0"/>
        <pt x="825" y="575" on="0"/>
        <pt x="543" y="575" on="1"/>
        <pt x="371" y="575" on="1"/>
        <pt x="371" y="0" on="1"/>
        <pt x="201" y="0" on="1"/>
        <pt x="201" y="1462" on="1"/>
        <pt x="580" y="1462" on="1"/>
        <pt x="1128" y="1462" on="0"/>
      </contour>
      <contour>
        <pt x="371" y="721" on="1"/>
        <pt x="524" y="721" on="1"/>
        <pt x="750" y="721" on="0"/>
        <pt x="952" y="867" on="0"/>
        <pt x="952" y="1028" on="1"/>
        <pt x="952" y="1173" on="0"/>
        <pt x="762" y="1315" on="0"/>
        <pt x="561" y="1315" on="1"/>
        <pt x="371" y="1315" on="1"/>
      </contour>
    </TTGlyph>
    <TTGlyph name="Phi" xMin="106" yMin="-20" xMax="1528" yMax="1483">
      <contour>
        <pt x="731" y="1483" on="1"/>
        <pt x="903" y="1483" on="1"/>
        <pt x="903" y="1303" on="1"/>
        <pt x="973" y="1303" on="1"/>
        <pt x="1144" y="1303" on="0"/>
        <pt x="1395" y="1167" on="0"/>
        <pt x="1528" y="919" on="0"/>
        <pt x="1528" y="760" on="1"/>
        <pt x="1528" y="594" on="0"/>
        <pt x="1379" y="335" on="0"/>
        <pt x="1120" y="205" on="0"/>
        <pt x="944" y="205" on="1"/>
        <pt x="903" y="205" on="1"/>
        <pt x="903" y="-20" on="1"/>
        <pt x="731" y="-20" on="1"/>
        <pt x="731" y="205" on="1"/>
        <pt x="686" y="205" on="1"/>
        <pt x="510" y="205" on="0"/>
        <pt x="252" y="337" on="0"/>
        <pt x="106" y="597" on="0"/>
        <pt x="106" y="758" on="1"/>
        <pt x="106" y="916" on="0"/>
        <pt x="241" y="1164" on="0"/>
        <pt x="493" y="1303" on="0"/>
        <pt x="664" y="1303" on="1"/>
        <pt x="731" y="1303" on="1"/>
      </contour>
      <contour>
        <pt x="903" y="348" on="1"/>
        <pt x="928" y="348" on="1"/>
        <pt x="1129" y="348" on="0"/>
        <pt x="1352" y="567" on="0"/>
        <pt x="1352" y="762" on="1"/>
        <pt x="1352" y="947" on="0"/>
        <pt x="1146" y="1157" on="0"/>
        <pt x="961" y="1157" on="1"/>
        <pt x="903" y="1157" on="1"/>
      </contour>
      <contour>
        <pt x="731" y="1157" on="1"/>
        <pt x="674" y="1157" on="1"/>
        <pt x="492" y="1157" on="0"/>
        <pt x="283" y="945" on="0"/>
        <pt x="283" y="762" on="1"/>
        <pt x="283" y="565" on="0"/>
        <pt x="505" y="348" on="0"/>
        <pt x="707" y="348" on="1"/>
        <pt x="731" y="348" on="1"/>
      </contour>
    </TTGlyph>
    <TTGlyph name="Pi" xMin="201" yMin="0" xMax="1292" yMax="1462">
      <contour>
        <pt x="1292" y="0" on="1"/>
        <pt x="1122" y="0" on="1"/>
        <pt x="1122" y="1311" on="1"/>
        <pt x="371" y="1311" on="1"/>
        <pt x="371" y="0" on="1"/>
        <pt x="201" y="0" on="1"/>
        <pt x="201" y="1462" on="1"/>
        <pt x="1292" y="1462" on="1"/>
      </contour>
    </TTGlyph>
    <TTGlyph name="Psi" xMin="109" yMin="0" xMax="1522" yMax="1462">
      <contour>
        <pt x="899" y="0" on="1"/>
        <pt x="729" y="0" on="1"/>
        <pt x="729" y="446" on="1"/>
        <pt x="684" y="446" on="1"/>
        <pt x="508" y="446" on="0"/>
        <pt x="253" y="568" on="0"/>
        <pt x="109" y="815" on="0"/>
        <pt x="109" y="979" on="1"/>
        <pt x="109" y="1462" on="1"/>
        <pt x="283" y="1462" on="1"/>
        <pt x="283" y="983" on="1"/>
        <pt x="283" y="795" on="0"/>
        <pt x="490" y="594" on="0"/>
        <pt x="702" y="594" on="1"/>
        <pt x="729" y="594" on="1"/>
        <pt x="729" y="1462" on="1"/>
        <pt x="899" y="1462" on="1"/>
        <pt x="899" y="594" on="1"/>
        <pt x="928" y="594" on="1"/>
        <pt x="1139" y="594" on="0"/>
        <pt x="1346" y="792" on="0"/>
        <pt x="1346" y="979" on="1"/>
        <pt x="1346" y="1462" on="1"/>
        <pt x="1522" y="1462" on="1"/>
        <pt x="1522" y="981" on="1"/>
        <pt x="1522" y="816" on="0"/>
        <pt x="1378" y="569" on="0"/>
        <pt x="1119" y="446" on="0"/>
        <pt x="944" y="446" on="1"/>
        <pt x="899" y="446" on="1"/>
      </contour>
    </TTGlyph>
    <TTGlyph name="Q" xMin="125" yMin="-348" xMax="1470" yMax="1485">
      <contour>
        <pt x="1470" y="733" on="1"/>
        <pt x="1470" y="452" on="0"/>
        <pt x="1244" y="80" on="0"/>
        <pt x="1038" y="14" on="1"/>
        <pt x="1386" y="-348" on="1"/>
        <pt x="1139" y="-348" on="1"/>
        <pt x="854" y="-18" on="1"/>
        <pt x="799" y="-20" on="1"/>
        <pt x="476" y="-20" on="0"/>
        <pt x="125" y="375" on="0"/>
        <pt x="125" y="735" on="1"/>
        <pt x="125" y="1092" on="0"/>
        <pt x="477" y="1485" on="0"/>
        <pt x="801" y="1485" on="1"/>
        <pt x="1116" y="1485" on="0"/>
        <pt x="1470" y="1085" on="0"/>
      </contour>
      <contour>
        <pt x="305" y="733" on="1"/>
        <pt x="305" y="436" on="0"/>
        <pt x="558" y="129" on="0"/>
        <pt x="799" y="129" on="1"/>
        <pt x="1042" y="129" on="0"/>
        <pt x="1290" y="435" on="0"/>
        <pt x="1290" y="733" on="1"/>
        <pt x="1290" y="1028" on="0"/>
        <pt x="1043" y="1333" on="0"/>
        <pt x="801" y="1333" on="1"/>
        <pt x="558" y="1333" on="0"/>
        <pt x="305" y="1026" on="0"/>
      </contour>
    </TTGlyph>
    <TTGlyph name="R" xMin="201" yMin="0" xMax="1231" yMax="1462">
      <contour>
        <pt x="371" y="608" on="1"/>
        <pt x="371" y="0" on="1"/>
        <pt x="201" y="0" on="1"/>
        <pt x="201" y="1462" on="1"/>
        <pt x="602" y="1462" on="1"/>
        <pt x="871" y="1462" on="0"/>
        <pt x="1128" y="1256" on="0"/>
        <pt x="1128" y="1049" on="1"/>
        <pt x="1128" y="759" on="0"/>
        <pt x="834" y="657" on="1"/>
        <pt x="1231" y="0" on="1"/>
        <pt x="1030" y="0" on="1"/>
        <pt x="676" y="608" on="1"/>
      </contour>
      <contour>
        <pt x="371" y="754" on="1"/>
        <pt x="604" y="754" on="1"/>
        <pt x="784" y="754" on="0"/>
        <pt x="952" y="897" on="0"/>
        <pt x="952" y="1040" on="1"/>
        <pt x="952" y="1185" on="0"/>
        <pt x="781" y="1313" on="0"/>
        <pt x="592" y="1313" on="1"/>
        <pt x="371" y="1313" on="1"/>
      </contour>
    </TTGlyph>
    <TTGlyph name="Racute" xMin="201" yMin="0" xMax="1231" yMax="1907">
      <component glyphName="R" x="0" y="0" flags="0x204"/>
      <component glyphName="acute" x="121" y="338" flags="0x4"/>
    </TTGlyph>
    <TTGlyph name="Rcaron" xMin="201" yMin="0" xMax="1231" yMax="1907">
      <component glyphName="R" x="0" y="0" flags="0x204"/>
      <component glyphName="caron" x="27" y="338" flags="0x4"/>
    </TTGlyph>
    <TTGlyph name="Rcommaaccent" xMin="201" yMin="-453" xMax="1231" yMax="1462">
      <component glyphName="R" x="0" y="0" flags="0x204"/>
      <component glyphName="commaaccent" x="125" y="0" flags="0x4"/>
    </TTGlyph>
    <TTGlyph name="Rho" xMin="201" yMin="0" xMax="1128" yMax="1462">
      <component glyphName="P" x="0" y="0" flags="0x204"/>
    </TTGlyph>
    <TTGlyph name="S" xMin="106" yMin="-20" xMax="1026" yMax="1483">
      <contour>
        <pt x="1026" y="389" on="1"/>
        <pt x="1026" y="196" on="0"/>
        <pt x="746" y="-20" on="0"/>
        <pt x="506" y="-20" on="1"/>
        <pt x="246" y="-20" on="0"/>
        <pt x="106" y="47" on="1"/>
        <pt x="106" y="211" on="1"/>
        <pt x="196" y="173" on="0"/>
        <pt x="408" y="129" on="0"/>
        <pt x="512" y="129" on="1"/>
        <pt x="682" y="129" on="0"/>
        <pt x="854" y="258" on="0"/>
        <pt x="854" y="373" on="1"/>
        <pt x="854" y="449" on="0"/>
        <pt x="793" y="546" on="0"/>
        <pt x="650" y="628" on="0"/>
        <pt x="504" y="680" on="1"/>
        <pt x="300" y="753" on="0"/>
        <pt x="125" y="953" on="0"/>
        <pt x="125" y="1114" on="1"/>
        <pt x="125" y="1283" on="0"/>
        <pt x="379" y="1483" on="0"/>
        <pt x="588" y="1483" on="1"/>
        <pt x="806" y="1483" on="0"/>
        <pt x="989" y="1403" on="1"/>
        <pt x="936" y="1255" on="1"/>
        <pt x="755" y="1331" on="0"/>
        <pt x="584" y="1331" on="1"/>
        <pt x="449" y="1331" on="0"/>
        <pt x="297" y="1215" on="0"/>
        <pt x="297" y="1112" on="1"/>
        <pt x="297" y="1036" on="0"/>
        <pt x="353" y="939" on="0"/>
        <pt x="486" y="858" on="0"/>
        <pt x="623" y="809" on="1"/>
        <pt x="853" y="727" on="0"/>
        <pt x="1026" y="539" on="0"/>
      </contour>
    </TTGlyph>
    <TTGlyph name="Sacute" xMin="106" yMin="-20" xMax="1026" yMax="1907">
      <component glyphName="S" x="0" y="0" flags="0x204"/>
      <component glyphName="acute" x="80" y="338" flags="0x4"/>
    </TTGlyph>
    <TTGlyph name="Scaron" xMin="106" yMin="-20" xMax="1026" yMax="1907">
      <component glyphName="S" x="0" y="0" flags="0x204"/>
      <component glyphName="caron" x="-28" y="338" flags="0x4"/>
    </TTGlyph>
    <TTGlyph name="Scedilla" xMin="106" yMin="-492" xMax="1026" yMax="1483">
      <component glyphName="S" x="0" y="0" flags="0x204"/>
      <component glyphName="cedilla" x="295" y="0" flags="0x4"/>
    </TTGlyph>
    <TTGlyph name="Scircumflex" xMin="106" yMin="-20" xMax="1026" yMax="1907">
      <component glyphName="S" x="0" y="0" flags="0x204"/>
      <component glyphName="circumflex" x="-22" y="338" flags="0x4"/>
    </TTGlyph>
    <TTGlyph name="Scommaaccent" xMin="106" yMin="-453" xMax="1026" yMax="1483">
      <component glyphName="S" x="0" y="0" flags="0x204"/>
      <component glyphName="commaaccent" x="6" y="0" flags="0x4"/>
    </TTGlyph>
    <TTGlyph name="Sigma" xMin="74" yMin="0" xMax="1116" yMax="1462">
      <contour>
        <pt x="74" y="0" on="1"/>
        <pt x="74" y="141" on="1"/>
        <pt x="555" y="764" on="1"/>
        <pt x="86" y="1319" on="1"/>
        <pt x="86" y="1462" on="1"/>
        <pt x="1057" y="1462" on="1"/>
        <pt x="1057" y="1309" on="1"/>
        <pt x="381" y="1309" on="1"/>
        <pt x="285" y="1311" on="1"/>
        <pt x="745" y="766" on="1"/>
        <pt x="264" y="152" on="1"/>
        <pt x="1116" y="152" on="1"/>
        <pt x="1116" y="0" on="1"/>
      </contour>
    </TTGlyph>
    <TTGlyph name="T" xMin="18" yMin="0" xMax="1114" yMax="1462">
      <contour>
        <pt x="651" y="0" on="1"/>
        <pt x="481" y="0" on="1"/>
        <pt x="481" y="1311" on="1"/>
        <pt x="18" y="1311" on="1"/>
        <pt x="18" y="1462" on="1"/>
        <pt x="1114" y="1462" on="1"/>
        <pt x="1114" y="1311" on="1"/>
        <pt x="651" y="1311" on="1"/>
      </contour>
    </TTGlyph>
    <TTGlyph name="Tau" xMin="18" yMin="0" xMax="1114" yMax="1462">
      <component glyphName="T" x="0" y="0" flags="0x204"/>
    </TTGlyph>
    <TTGlyph name="Tbar" xMin="18" yMin="0" xMax="1114" yMax="1462">
      <contour>
        <pt x="481" y="815" on="1"/>
        <pt x="481" y="1311" on="1"/>
        <pt x="18" y="1311" on="1"/>
        <pt x="18" y="1462" on="1"/>
        <pt x="1114" y="1462" on="1"/>
        <pt x="1114" y="1311" on="1"/>
        <pt x="651" y="1311" on="1"/>
        <pt x="651" y="815" on="1"/>
        <pt x="961" y="815" on="1"/>
        <pt x="961" y="674" on="1"/>
        <pt x="651" y="674" on="1"/>
        <pt x="651" y="0" on="1"/>
        <pt x="481" y="0" on="1"/>
        <pt x="481" y="674" on="1"/>
        <pt x="168" y="674" on="1"/>
        <pt x="168" y="815" on="1"/>
      </contour>
    </TTGlyph>
    <TTGlyph name="Tcaron" xMin="18" yMin="0" xMax="1114" yMax="1907">
      <component glyphName="T" x="0" y="0" flags="0x204"/>
      <component glyphName="caron" x="-36" y="338" flags="0x4"/>
    </TTGlyph>
    <TTGlyph name="Tcedilla" xMin="18" yMin="-492" xMax="1114" yMax="1462">
      <component glyphName="T" x="0" y="0" flags="0x204"/>
      <component glyphName="cedilla" x="319" y="0" flags="0x4"/>
    </TTGlyph>
    <TTGlyph name="Tcommaaccent" xMin="18" yMin="-453" xMax="1114" yMax="1462">
      <component glyphName="T" x="0" y="0" flags="0x204"/>
      <component glyphName="commaaccent" x="25" y="0" flags="0x4"/>
    </TTGlyph>
    <TTGlyph name="Theta" xMin="125" yMin="-20" xMax="1470" yMax="1485">
      <contour>
        <pt x="483" y="819" on="1"/>
        <pt x="1112" y="819" on="1"/>
        <pt x="1112" y="670" on="1"/>
        <pt x="483" y="670" on="1"/>
      </contour>
      <contour>
        <pt x="1470" y="733" on="1"/>
        <pt x="1470" y="382" on="0"/>
        <pt x="1115" y="-20" on="0"/>
        <pt x="799" y="-20" on="1"/>
        <pt x="476" y="-20" on="0"/>
        <pt x="125" y="375" on="0"/>
        <pt x="125" y="735" on="1"/>
        <pt x="125" y="1092" on="0"/>
        <pt x="477" y="1485" on="0"/>
        <pt x="801" y="1485" on="1"/>
        <pt x="1116" y="1485" on="0"/>
        <pt x="1470" y="1085" on="0"/>
      </contour>
      <contour>
        <pt x="305" y="733" on="1"/>
        <pt x="305" y="437" on="0"/>
        <pt x="555" y="129" on="0"/>
        <pt x="799" y="129" on="1"/>
        <pt x="1042" y="129" on="0"/>
        <pt x="1290" y="433" on="0"/>
        <pt x="1290" y="733" on="1"/>
        <pt x="1290" y="1031" on="0"/>
        <pt x="1043" y="1333" on="0"/>
        <pt x="801" y="1333" on="1"/>
        <pt x="556" y="1333" on="0"/>
        <pt x="305" y="1027" on="0"/>
      </contour>
    </TTGlyph>
    <TTGlyph name="Thorn" xMin="201" yMin="0" xMax="1145" yMax="1462">
      <contour>
        <pt x="1145" y="784" on="1"/>
        <pt x="1145" y="557" on="0"/>
        <pt x="842" y="319" on="0"/>
        <pt x="555" y="319" on="1"/>
        <pt x="371" y="319" on="1"/>
        <pt x="371" y="0" on="1"/>
        <pt x="201" y="0" on="1"/>
        <pt x="201" y="1462" on="1"/>
        <pt x="371" y="1462" on="1"/>
        <pt x="371" y="1206" on="1"/>
        <pt x="586" y="1206" on="1"/>
        <pt x="867" y="1206" on="0"/>
        <pt x="1145" y="999" on="0"/>
      </contour>
      <contour>
        <pt x="371" y="465" on="1"/>
        <pt x="539" y="465" on="1"/>
        <pt x="765" y="465" on="0"/>
        <pt x="967" y="608" on="0"/>
        <pt x="967" y="772" on="1"/>
        <pt x="967" y="921" on="0"/>
        <pt x="777" y="1059" on="0"/>
        <pt x="575" y="1059" on="1"/>
        <pt x="371" y="1059" on="1"/>
      </contour>
    </TTGlyph>
    <TTGlyph name="U" xMin="186" yMin="-20" xMax="1305" yMax="1462">
      <contour>
        <pt x="1305" y="1462" on="1"/>
        <pt x="1305" y="516" on="1"/>
        <pt x="1305" y="266" on="0"/>
        <pt x="1003" y="-20" on="0"/>
        <pt x="739" y="-20" on="1"/>
        <pt x="475" y="-20" on="0"/>
        <pt x="186" y="268" on="0"/>
        <pt x="186" y="520" on="1"/>
        <pt x="186" y="1462" on="1"/>
        <pt x="356" y="1462" on="1"/>
        <pt x="356" y="508" on="1"/>
        <pt x="356" y="325" on="0"/>
        <pt x="556" y="129" on="0"/>
        <pt x="750" y="129" on="1"/>
        <pt x="935" y="129" on="0"/>
        <pt x="1135" y="326" on="0"/>
        <pt x="1135" y="510" on="1"/>
        <pt x="1135" y="1462" on="1"/>
      </contour>
    </TTGlyph>
    <TTGlyph name="Uacute" xMin="186" yMin="-20" xMax="1305" yMax="1907">
      <component glyphName="U" x="0" y="0" flags="0x204"/>
      <component glyphName="acute" x="207" y="338" flags="0x4"/>
    </TTGlyph>
    <TTGlyph name="Ubreve" xMin="186" yMin="-20" xMax="1305" yMax="1847">
      <component glyphName="U" x="0" y="0" flags="0x204"/>
      <component glyphName="breve" x="139" y="338" flags="0x4"/>
    </TTGlyph>
    <TTGlyph name="Ucircumflex" xMin="186" yMin="-20" xMax="1305" yMax="1907">
      <component glyphName="U" x="0" y="0" flags="0x204"/>
      <component glyphName="circumflex" x="125" y="338" flags="0x4"/>
    </TTGlyph>
    <TTGlyph name="Udieresis" xMin="186" yMin="-20" xMax="1305" yMax="1829">
      <component glyphName="U" x="0" y="0" flags="0x204"/>
      <component glyphName="dieresis" x="152" y="338" flags="0x4"/>
    </TTGlyph>
    <TTGlyph name="Ugrave" xMin="186" yMin="-20" xMax="1305" yMax="1907">
      <component glyphName="U" x="0" y="0" flags="0x204"/>
      <component glyphName="grave" x="70" y="338" flags="0x4"/>
    </TTGlyph>
    <TTGlyph name="Uhorn" xMin="186" yMin="-20" xMax="1659" yMax="1556">
      <contour>
        <pt x="1305" y="1462" on="1"/>
        <pt x="1305" y="1264" on="1"/>
        <pt x="1363" y="1272" on="0"/>
        <pt x="1433" y="1334" on="0"/>
        <pt x="1464" y="1446" on="0"/>
        <pt x="1464" y="1556" on="1"/>
        <pt x="1645" y="1556" on="1"/>
        <pt x="1659" y="1534" on="1"/>
        <pt x="1626" y="1352" on="0"/>
        <pt x="1454" y="1168" on="0"/>
        <pt x="1305" y="1143" on="1"/>
        <pt x="1305" y="516" on="1"/>
        <pt x="1305" y="258" on="0"/>
        <pt x="1018" y="-20" on="0"/>
        <pt x="754" y="-20" on="1"/>
        <pt x="486" y="-20" on="0"/>
        <pt x="186" y="267" on="0"/>
        <pt x="186" y="520" on="1"/>
        <pt x="186" y="1462" on="1"/>
        <pt x="356" y="1462" on="1"/>
        <pt x="356" y="508" on="1"/>
        <pt x="356" y="325" on="0"/>
        <pt x="560" y="129" on="0"/>
        <pt x="758" y="129" on="1"/>
        <pt x="942" y="129" on="0"/>
        <pt x="1135" y="322" on="0"/>
        <pt x="1135" y="510" on="1"/>
        <pt x="1135" y="1462" on="1"/>
      </contour>
    </TTGlyph>
    <TTGlyph name="Uhungarumlaut" xMin="186" yMin="-20" xMax="1305" yMax="1907">
      <component glyphName="U" x="0" y="0" flags="0x204"/>
      <component glyphName="hungarumlaut" x="225" y="338" flags="0x4"/>
    </TTGlyph>
    <TTGlyph name="Umacron" xMin="186" yMin="-20" xMax="1305" yMax="1716">
      <component glyphName="U" x="0" y="0" flags="0x204"/>
      <component glyphName="macron" x="145" y="338" flags="0x4"/>
    </TTGlyph>
    <TTGlyph name="Uogonek" xMin="186" yMin="-446" xMax="1305" yMax="1462">
      <component glyphName="U" x="0" y="0" flags="0x204"/>
      <component glyphName="ogonek" x="545" y="0" flags="0x4"/>
    </TTGlyph>
    <TTGlyph name="Upsilon" xMin="0" yMin="0" xMax="1147" yMax="1462">
      <component glyphName="Y" x="0" y="0" flags="0x204"/>
    </TTGlyph>
    <TTGlyph name="Upsilondieresis" xMin="0" yMin="0" xMax="1147" yMax="1829">
      <component glyphName="Y" x="0" y="0" flags="0x204"/>
      <component glyphName="dieresis" x="-17" y="338" flags="0x4"/>
    </TTGlyph>
    <TTGlyph name="Upsilontonos" xMin="-44" yMin="0" xMax="1413" yMax="1546">
      <component glyphName="Y" x="266" y="0" flags="0x4"/>
      <component glyphName="tonos" x="-552" y="-105" flags="0x4"/>
    </TTGlyph>
    <TTGlyph name="Uring" xMin="186" yMin="-20" xMax="1305" yMax="2007">
      <component glyphName="U" x="0" y="0" flags="0x204"/>
      <component glyphName="ring" x="156" y="338" flags="0x4"/>
    </TTGlyph>
    <TTGlyph name="Utilde" xMin="186" yMin="-20" xMax="1305" yMax="1839">
      <component glyphName="U" x="0" y="0" flags="0x204"/>
      <component glyphName="tilde" x="111" y="338" flags="0x4"/>
    </TTGlyph>
    <TTGlyph name="V" xMin="0" yMin="0" xMax="1219" yMax="1462">
      <contour>
        <pt x="1036" y="1462" on="1"/>
        <pt x="1219" y="1462" on="1"/>
        <pt x="692" y="0" on="1"/>
        <pt x="524" y="0" on="1"/>
        <pt x="0" y="1462" on="1"/>
        <pt x="180" y="1462" on="1"/>
        <pt x="516" y="516" on="1"/>
        <pt x="574" y="353" on="0"/>
        <pt x="608" y="199" on="1"/>
        <pt x="644" y="361" on="0"/>
        <pt x="702" y="522" on="1"/>
      </contour>
    </TTGlyph>
    <TTGlyph name="W" xMin="27" yMin="0" xMax="1868" yMax="1462">
      <contour>
        <pt x="1477" y="0" on="1"/>
        <pt x="1309" y="0" on="1"/>
        <pt x="1014" y="979" on="1"/>
        <pt x="993" y="1044" on="0"/>
        <pt x="941" y="1242" on="0"/>
        <pt x="940" y="1262" on="1"/>
        <pt x="918" y="1130" on="0"/>
        <pt x="870" y="973" on="1"/>
        <pt x="584" y="0" on="1"/>
        <pt x="416" y="0" on="1"/>
        <pt x="27" y="1462" on="1"/>
        <pt x="207" y="1462" on="1"/>
        <pt x="438" y="559" on="1"/>
        <pt x="486" y="369" on="0"/>
        <pt x="508" y="215" on="1"/>
        <pt x="535" y="398" on="0"/>
        <pt x="588" y="573" on="1"/>
        <pt x="850" y="1462" on="1"/>
        <pt x="1030" y="1462" on="1"/>
        <pt x="1305" y="565" on="1"/>
        <pt x="1353" y="410" on="0"/>
        <pt x="1386" y="215" on="1"/>
        <pt x="1405" y="357" on="0"/>
        <pt x="1458" y="561" on="1"/>
        <pt x="1688" y="1462" on="1"/>
        <pt x="1868" y="1462" on="1"/>
      </contour>
    </TTGlyph>
    <TTGlyph name="Wacute" xMin="27" yMin="0" xMax="1868" yMax="1907">
      <component glyphName="W" x="0" y="0" flags="0x204"/>
      <component glyphName="acute" x="432" y="338" flags="0x4"/>
    </TTGlyph>
    <TTGlyph name="Wcircumflex" xMin="27" yMin="0" xMax="1868" yMax="1907">
      <component glyphName="W" x="0" y="0" flags="0x204"/>
      <component glyphName="circumflex" x="340" y="338" flags="0x4"/>
    </TTGlyph>
    <TTGlyph name="Wdieresis" xMin="27" yMin="0" xMax="1868" yMax="1829">
      <component glyphName="W" x="0" y="0" flags="0x204"/>
      <component glyphName="dieresis" x="356" y="338" flags="0x4"/>
    </TTGlyph>
    <TTGlyph name="Wgrave" xMin="27" yMin="0" xMax="1868" yMax="1907">
      <component glyphName="W" x="0" y="0" flags="0x204"/>
      <component glyphName="grave" x="279" y="338" flags="0x4"/>
    </TTGlyph>
    <TTGlyph name="X" xMin="8" yMin="0" xMax="1174" yMax="1462">
      <contour>
        <pt x="1174" y="0" on="1"/>
        <pt x="981" y="0" on="1"/>
        <pt x="588" y="643" on="1"/>
        <pt x="188" y="0" on="1"/>
        <pt x="8" y="0" on="1"/>
        <pt x="494" y="764" on="1"/>
        <pt x="41" y="1462" on="1"/>
        <pt x="229" y="1462" on="1"/>
        <pt x="592" y="883" on="1"/>
        <pt x="958" y="1462" on="1"/>
        <pt x="1139" y="1462" on="1"/>
        <pt x="686" y="770" on="1"/>
      </contour>
    </TTGlyph>
    <TTGlyph name="Xi" xMin="72" yMin="0" xMax="1061" yMax="1462">
      <contour>
        <pt x="195" y="840" on="1"/>
        <pt x="938" y="840" on="1"/>
        <pt x="938" y="690" on="1"/>
        <pt x="195" y="690" on="1"/>
      </contour>
      <contour>
        <pt x="113" y="1462" on="1"/>
        <pt x="1020" y="1462" on="1"/>
        <pt x="1020" y="1311" on="1"/>
        <pt x="113" y="1311" on="1"/>
      </contour>
      <contour>
        <pt x="1061" y="152" on="1"/>
        <pt x="1061" y="0" on="1"/>
        <pt x="72" y="0" on="1"/>
        <pt x="72" y="152" on="1"/>
      </contour>
    </TTGlyph>
    <TTGlyph name="Y" xMin="0" yMin="0" xMax="1147" yMax="1462">
      <contour>
        <pt x="573" y="731" on="1"/>
        <pt x="963" y="1462" on="1"/>
        <pt x="1147" y="1462" on="1"/>
        <pt x="659" y="567" on="1"/>
        <pt x="659" y="0" on="1"/>
        <pt x="487" y="0" on="1"/>
        <pt x="487" y="559" on="1"/>
        <pt x="0" y="1462" on="1"/>
        <pt x="186" y="1462" on="1"/>
      </contour>
    </TTGlyph>
    <TTGlyph name="Yacute" xMin="0" yMin="0" xMax="1147" yMax="1907">
      <component glyphName="Y" x="0" y="0" flags="0x204"/>
      <component glyphName="acute" x="49" y="338" flags="0x4"/>
    </TTGlyph>
    <TTGlyph name="Ycircumflex" xMin="0" yMin="0" xMax="1147" yMax="1907">
      <component glyphName="Y" x="0" y="0" flags="0x204"/>
      <component glyphName="circumflex" x="-32" y="338" flags="0x4"/>
    </TTGlyph>
    <TTGlyph name="Ydieresis" xMin="0" yMin="0" xMax="1147" yMax="1829">
      <component glyphName="Y" x="0" y="0" flags="0x204"/>
      <component glyphName="dieresis" x="-15" y="338" flags="0x4"/>
    </TTGlyph>
    <TTGlyph name="Ygrave" xMin="0" yMin="0" xMax="1147" yMax="1907">
      <component glyphName="Y" x="0" y="0" flags="0x204"/>
      <component glyphName="grave" x="-108" y="338" flags="0x4"/>
    </TTGlyph>
    <TTGlyph name="Z" xMin="82" yMin="0" xMax="1087" yMax="1462">
      <contour>
        <pt x="1087" y="0" on="1"/>
        <pt x="82" y="0" on="1"/>
        <pt x="82" y="133" on="1"/>
        <pt x="858" y="1309" on="1"/>
        <pt x="106" y="1309" on="1"/>
        <pt x="106" y="1462" on="1"/>
        <pt x="1065" y="1462" on="1"/>
        <pt x="1065" y="1329" on="1"/>
        <pt x="289" y="154" on="1"/>
        <pt x="1087" y="154" on="1"/>
      </contour>
    </TTGlyph>
    <TTGlyph name="Zacute" xMin="82" yMin="0" xMax="1087" yMax="1907">
      <component glyphName="Z" x="0" y="0" flags="0x204"/>
      <component glyphName="acute" x="66" y="338" flags="0x4"/>
    </TTGlyph>
    <TTGlyph name="Zcaron" xMin="82" yMin="0" xMax="1087" yMax="1907">
      <component glyphName="Z" x="0" y="0" flags="0x204"/>
      <component glyphName="caron" x="-19" y="338" flags="0x4"/>
    </TTGlyph>
    <TTGlyph name="Zdotaccent" xMin="82" yMin="0" xMax="1087" yMax="1841">
      <component glyphName="Z" x="0" y="0" flags="0x204"/>
      <component glyphName="dotaccent" x="324" y="338" flags="0x4"/>
    </TTGlyph>
    <TTGlyph name="Zeta" xMin="82" yMin="0" xMax="1087" yMax="1462">
      <component glyphName="Z" x="0" y="0" flags="0x204"/>
    </TTGlyph>
    <TTGlyph name="a" xMin="94" yMin="-20" xMax="973" yMax="1114">
      <contour>
        <pt x="850" y="0" on="1"/>
        <pt x="817" y="156" on="1"/>
        <pt x="809" y="156" on="1"/>
        <pt x="727" y="53" on="0"/>
        <pt x="564" y="-20" on="0"/>
        <pt x="442" y="-20" on="1"/>
        <pt x="279" y="-20" on="0"/>
        <pt x="94" y="148" on="0"/>
        <pt x="94" y="303" on="1"/>
        <pt x="94" y="635" on="0"/>
        <pt x="625" y="651" on="1"/>
        <pt x="811" y="657" on="1"/>
        <pt x="811" y="725" on="1"/>
        <pt x="811" y="854" on="0"/>
        <pt x="700" y="977" on="0"/>
        <pt x="578" y="977" on="1"/>
        <pt x="441" y="977" on="0"/>
        <pt x="268" y="893" on="1"/>
        <pt x="217" y="1020" on="1"/>
        <pt x="298" y="1064" on="0"/>
        <pt x="491" y="1114" on="0"/>
        <pt x="588" y="1114" on="1"/>
        <pt x="784" y="1114" on="0"/>
        <pt x="973" y="940" on="0"/>
        <pt x="973" y="748" on="1"/>
        <pt x="973" y="0" on="1"/>
      </contour>
      <contour>
        <pt x="475" y="117" on="1"/>
        <pt x="630" y="117" on="0"/>
        <pt x="807" y="287" on="0"/>
        <pt x="807" y="440" on="1"/>
        <pt x="807" y="539" on="1"/>
        <pt x="641" y="532" on="1"/>
        <pt x="443" y="525" on="0"/>
        <pt x="268" y="416" on="0"/>
        <pt x="268" y="301" on="1"/>
        <pt x="268" y="211" on="0"/>
        <pt x="377" y="117" on="0"/>
      </contour>
    </TTGlyph>
    <TTGlyph name="aacute" xMin="94" yMin="-20" xMax="973" yMax="1569">
      <component glyphName="a" x="0" y="0" flags="0x204"/>
      <component glyphName="acute" x="43" y="0" flags="0x4"/>
    </TTGlyph>
    <TTGlyph name="abreve" xMin="94" yMin="-20" xMax="973" yMax="1509">
      <component glyphName="a" x="0" y="0" flags="0x204"/>
      <component glyphName="breve" x="-28" y="0" flags="0x4"/>
    </TTGlyph>
    <TTGlyph name="acircumflex" xMin="94" yMin="-20" xMax="973" yMax="1569">
      <component glyphName="a" x="0" y="0" flags="0x204"/>
      <component glyphName="circumflex" x="-40" y="0" flags="0x4"/>
    </TTGlyph>
    <TTGlyph name="acute" xMin="393" yMin="1241" xMax="786" yMax="1569">
      <contour>
        <pt x="393" y="1266" on="1"/>
        <pt x="441" y="1328" on="0"/>
        <pt x="552" y="1504" on="0"/>
        <pt x="584" y="1569" on="1"/>
        <pt x="786" y="1569" on="1"/>
        <pt x="786" y="1548" on="1"/>
        <pt x="742" y="1483" on="0"/>
        <pt x="568" y="1293" on="0"/>
        <pt x="504" y="1241" on="1"/>
        <pt x="393" y="1241" on="1"/>
      </contour>
    </TTGlyph>
    <TTGlyph name="adieresis" xMin="94" yMin="-20" xMax="973" yMax="1491">
      <component glyphName="a" x="0" y="0" flags="0x204"/>
      <component glyphName="dieresis" x="-30" y="0" flags="0x4"/>
    </TTGlyph>
    <TTGlyph name="ae" xMin="94" yMin="-20" xMax="1651" yMax="1116">
      <contour>
        <pt x="94" y="303" on="1"/>
        <pt x="94" y="464" on="0"/>
        <pt x="342" y="643" on="0"/>
        <pt x="596" y="651" on="1"/>
        <pt x="780" y="657" on="1"/>
        <pt x="780" y="725" on="1"/>
        <pt x="780" y="854" on="0"/>
        <pt x="664" y="977" on="0"/>
        <pt x="545" y="977" on="1"/>
        <pt x="401" y="977" on="0"/>
        <pt x="238" y="893" on="1"/>
        <pt x="186" y="1020" on="1"/>
        <pt x="260" y="1061" on="0"/>
        <pt x="459" y="1114" on="0"/>
        <pt x="557" y="1114" on="1"/>
        <pt x="687" y="1114" on="0"/>
        <pt x="852" y="1027" on="0"/>
        <pt x="893" y="932" on="1"/>
        <pt x="946" y="1020" on="0"/>
        <pt x="1117" y="1116" on="0"/>
        <pt x="1227" y="1116" on="1"/>
        <pt x="1419" y="1116" on="0"/>
        <pt x="1651" y="849" on="0"/>
        <pt x="1651" y="627" on="1"/>
        <pt x="1651" y="520" on="1"/>
        <pt x="950" y="520" on="1"/>
        <pt x="958" y="125" on="0"/>
        <pt x="1272" y="125" on="1"/>
        <pt x="1363" y="125" on="0"/>
        <pt x="1520" y="160" on="0"/>
        <pt x="1604" y="199" on="1"/>
        <pt x="1604" y="51" on="1"/>
        <pt x="1518" y="13" on="0"/>
        <pt x="1369" y="-20" on="0"/>
        <pt x="1268" y="-20" on="1"/>
        <pt x="979" y="-20" on="0"/>
        <pt x="854" y="213" on="1"/>
        <pt x="773" y="86" on="0"/>
        <pt x="576" y="-20" on="0"/>
        <pt x="442" y="-20" on="1"/>
        <pt x="279" y="-20" on="0"/>
        <pt x="94" y="150" on="0"/>
      </contour>
      <contour>
        <pt x="268" y="301" on="1"/>
        <pt x="268" y="206" on="0"/>
        <pt x="375" y="117" on="0"/>
        <pt x="463" y="117" on="1"/>
        <pt x="608" y="117" on="0"/>
        <pt x="776" y="286" on="0"/>
        <pt x="776" y="440" on="1"/>
        <pt x="776" y="539" on="1"/>
        <pt x="618" y="532" on="1"/>
        <pt x="432" y="524" on="0"/>
        <pt x="268" y="415" on="0"/>
      </contour>
      <contour>
        <pt x="1225" y="977" on="1"/>
        <pt x="1104" y="977" on="0"/>
        <pt x="965" y="811" on="0"/>
        <pt x="954" y="653" on="1"/>
        <pt x="1473" y="653" on="1"/>
        <pt x="1473" y="809" on="0"/>
        <pt x="1345" y="977" on="0"/>
      </contour>
    </TTGlyph>
    <TTGlyph name="aeacute" xMin="94" yMin="-20" xMax="1651" yMax="1569">
      <component glyphName="ae" x="0" y="0" flags="0x204"/>
      <component glyphName="acute" x="389" y="0" flags="0x4"/>
    </TTGlyph>
    <TTGlyph name="afii00208" xMin="82" yMin="473" xMax="1966" yMax="625">
      <component glyphName="emdash" x="0" y="0" flags="0x204"/>
    </TTGlyph>
    <TTGlyph name="afii08941" xMin="68" yMin="0" xMax="1096" yMax="1481">
      <contour>
        <pt x="688" y="1481" on="1"/>
        <pt x="889" y="1481" on="0"/>
        <pt x="1047" y="1401" on="1"/>
        <pt x="987" y="1270" on="1"/>
        <pt x="835" y="1341" on="0"/>
        <pt x="688" y="1341" on="1"/>
        <pt x="566" y="1341" on="0"/>
        <pt x="440" y="1206" on="0"/>
        <pt x="440" y="1077" on="1"/>
        <pt x="440" y="891" on="1"/>
        <pt x="860" y="891" on="1"/>
        <pt x="860" y="762" on="1"/>
        <pt x="440" y="762" on="1"/>
        <pt x="440" y="596" on="1"/>
        <pt x="860" y="596" on="1"/>
        <pt x="860" y="467" on="1"/>
        <pt x="440" y="467" on="1"/>
        <pt x="440" y="434" on="1"/>
        <pt x="440" y="334" on="0"/>
        <pt x="375" y="198" on="0"/>
        <pt x="301" y="154" on="1"/>
        <pt x="1096" y="154" on="1"/>
        <pt x="1096" y="0" on="1"/>
        <pt x="68" y="0" on="1"/>
        <pt x="68" y="141" on="1"/>
        <pt x="274" y="189" on="0"/>
        <pt x="274" y="432" on="1"/>
        <pt x="274" y="467" on="1"/>
        <pt x="74" y="467" on="1"/>
        <pt x="74" y="596" on="1"/>
        <pt x="274" y="596" on="1"/>
        <pt x="274" y="762" on="1"/>
        <pt x="74" y="762" on="1"/>
        <pt x="74" y="891" on="1"/>
        <pt x="274" y="891" on="1"/>
        <pt x="274" y="1098" on="1"/>
        <pt x="274" y="1276" on="0"/>
        <pt x="498" y="1481" on="0"/>
      </contour>
    </TTGlyph>
    <TTGlyph name="afii10017" xMin="0" yMin="0" xMax="1296" yMax="1468">
      <component glyphName="A" x="0" y="0" flags="0x204"/>
    </TTGlyph>
    <TTGlyph name="afii10018" xMin="201" yMin="0" xMax="1149" yMax="1462">
      <contour>
        <pt x="1149" y="426" on="1"/>
        <pt x="1149" y="208" on="0"/>
        <pt x="890" y="0" on="0"/>
        <pt x="629" y="0" on="1"/>
        <pt x="201" y="0" on="1"/>
        <pt x="201" y="1462" on="1"/>
        <pt x="1063" y="1462" on="1"/>
        <pt x="1063" y="1311" on="1"/>
        <pt x="371" y="1311" on="1"/>
        <pt x="371" y="838" on="1"/>
        <pt x="598" y="838" on="1"/>
        <pt x="791" y="838" on="0"/>
        <pt x="1033" y="749" on="0"/>
        <pt x="1149" y="575" on="0"/>
      </contour>
      <contour>
        <pt x="371" y="147" on="1"/>
        <pt x="610" y="147" on="1"/>
        <pt x="800" y="147" on="0"/>
        <pt x="973" y="277" on="0"/>
        <pt x="973" y="426" on="1"/>
        <pt x="973" y="568" on="0"/>
        <pt x="797" y="688" on="0"/>
        <pt x="578" y="688" on="1"/>
        <pt x="371" y="688" on="1"/>
      </contour>
    </TTGlyph>
    <TTGlyph name="afii10019" xMin="201" yMin="0" xMax="1214" yMax="1462">
      <component glyphName="B" x="0" y="0" flags="0x204"/>
    </TTGlyph>
    <TTGlyph name="afii10020" xMin="201" yMin="0" xMax="1016" yMax="1462">
      <component glyphName="Gamma" x="0" y="0" flags="0x204"/>
    </TTGlyph>
    <TTGlyph name="afii10021" xMin="14" yMin="-381" xMax="1354" yMax="1462">
      <contour>
        <pt x="1354" y="-381" on="1"/>
        <pt x="1192" y="-381" on="1"/>
        <pt x="1192" y="0" on="1"/>
        <pt x="176" y="0" on="1"/>
        <pt x="176" y="-381" on="1"/>
        <pt x="14" y="-381" on="1"/>
        <pt x="14" y="154" on="1"/>
        <pt x="127" y="154" on="1"/>
        <pt x="281" y="413" on="0"/>
        <pt x="500" y="1155" on="0"/>
        <pt x="512" y="1462" on="1"/>
        <pt x="1169" y="1462" on="1"/>
        <pt x="1169" y="154" on="1"/>
        <pt x="1354" y="154" on="1"/>
      </contour>
      <contour>
        <pt x="999" y="154" on="1"/>
        <pt x="999" y="1309" on="1"/>
        <pt x="666" y="1309" on="1"/>
        <pt x="648" y="1067" on="0"/>
        <pt x="442" y="388" on="0"/>
        <pt x="305" y="154" on="1"/>
      </contour>
    </TTGlyph>
    <TTGlyph name="afii10022" xMin="201" yMin="0" xMax="1016" yMax="1462">
      <component glyphName="E" x="0" y="0" flags="0x204"/>
    </TTGlyph>
    <TTGlyph name="afii10023" xMin="201" yMin="0" xMax="1016" yMax="1829">
      <component glyphName="E" x="0" y="0" flags="0x204"/>
      <component glyphName="dieresis" x="39" y="338" flags="0x4"/>
    </TTGlyph>
    <TTGlyph name="afii10024" xMin="2" yMin="0" xMax="1724" yMax="1462">
      <contour>
        <pt x="598" y="752" on="1"/>
        <pt x="23" y="1462" on="1"/>
        <pt x="213" y="1462" on="1"/>
        <pt x="782" y="754" on="1"/>
        <pt x="782" y="1462" on="1"/>
        <pt x="946" y="1462" on="1"/>
        <pt x="946" y="754" on="1"/>
        <pt x="1516" y="1462" on="1"/>
        <pt x="1706" y="1462" on="1"/>
        <pt x="1130" y="754" on="1"/>
        <pt x="1724" y="0" on="1"/>
        <pt x="1528" y="0" on="1"/>
        <pt x="946" y="741" on="1"/>
        <pt x="946" y="0" on="1"/>
        <pt x="782" y="0" on="1"/>
        <pt x="782" y="741" on="1"/>
        <pt x="201" y="0" on="1"/>
        <pt x="2" y="0" on="1"/>
      </contour>
    </TTGlyph>
    <TTGlyph name="afii10025" xMin="74" yMin="-20" xMax="1077" yMax="1483">
      <contour>
        <pt x="1049" y="1120" on="1"/>
        <pt x="1049" y="976" on="0"/>
        <pt x="866" y="796" on="0"/>
        <pt x="705" y="772" on="1"/>
        <pt x="705" y="764" on="1"/>
        <pt x="888" y="739" on="0"/>
        <pt x="1077" y="559" on="0"/>
        <pt x="1077" y="414" on="1"/>
        <pt x="1077" y="209" on="0"/>
        <pt x="771" y="-20" on="0"/>
        <pt x="492" y="-20" on="1"/>
        <pt x="237" y="-20" on="0"/>
        <pt x="74" y="59" on="1"/>
        <pt x="74" y="217" on="1"/>
        <pt x="170" y="171" on="0"/>
        <pt x="393" y="121" on="0"/>
        <pt x="496" y="121" on="1"/>
        <pt x="694" y="121" on="0"/>
        <pt x="897" y="271" on="0"/>
        <pt x="897" y="412" on="1"/>
        <pt x="897" y="546" on="0"/>
        <pt x="672" y="684" on="0"/>
        <pt x="449" y="684" on="1"/>
        <pt x="231" y="684" on="1"/>
        <pt x="231" y="827" on="1"/>
        <pt x="440" y="827" on="1"/>
        <pt x="645" y="827" on="0"/>
        <pt x="870" y="974" on="0"/>
        <pt x="870" y="1106" on="1"/>
        <pt x="870" y="1213" on="0"/>
        <pt x="708" y="1341" on="0"/>
        <pt x="571" y="1341" on="1"/>
        <pt x="461" y="1341" on="0"/>
        <pt x="283" y="1291" on="0"/>
        <pt x="166" y="1217" on="1"/>
        <pt x="82" y="1331" on="1"/>
        <pt x="183" y="1406" on="0"/>
        <pt x="434" y="1483" on="0"/>
        <pt x="569" y="1483" on="1"/>
        <pt x="794" y="1483" on="0"/>
        <pt x="1049" y="1286" on="0"/>
      </contour>
    </TTGlyph>
    <TTGlyph name="afii10026" xMin="203" yMin="0" xMax="1362" yMax="1462">
      <contour>
        <pt x="203" y="1462" on="1"/>
        <pt x="362" y="1462" on="1"/>
        <pt x="362" y="649" on="1"/>
        <pt x="362" y="424" on="0"/>
        <pt x="348" y="242" on="1"/>
        <pt x="356" y="242" on="1"/>
        <pt x="1176" y="1462" on="1"/>
        <pt x="1362" y="1462" on="1"/>
        <pt x="1362" y="0" on="1"/>
        <pt x="1202" y="0" on="1"/>
        <pt x="1202" y="805" on="1"/>
        <pt x="1202" y="1006" on="0"/>
        <pt x="1219" y="1227" on="1"/>
        <pt x="1210" y="1227" on="1"/>
        <pt x="389" y="0" on="1"/>
        <pt x="203" y="0" on="1"/>
      </contour>
    </TTGlyph>
    <TTGlyph name="afii10027" xMin="203" yMin="0" xMax="1362" yMax="1886">
      <component glyphName="afii10026" x="0" y="0" flags="0x204"/>
      <component glyphName="cyrillicbreve" x="225" y="338" flags="0x4"/>
    </TTGlyph>
    <TTGlyph name="afii10028" xMin="201" yMin="0" xMax="1253" yMax="1462">
      <contour>
        <pt x="1253" y="0" on="1"/>
        <pt x="1047" y="0" on="1"/>
        <pt x="371" y="741" on="1"/>
        <pt x="371" y="0" on="1"/>
        <pt x="201" y="0" on="1"/>
        <pt x="201" y="1462" on="1"/>
        <pt x="371" y="1462" on="1"/>
        <pt x="371" y="754" on="1"/>
        <pt x="1030" y="1462" on="1"/>
        <pt x="1225" y="1462" on="1"/>
        <pt x="578" y="752" on="1"/>
      </contour>
    </TTGlyph>
    <TTGlyph name="afii10029" xMin="0" yMin="-25" xMax="1241" yMax="1462">
      <contour>
        <pt x="1241" y="0" on="1"/>
        <pt x="1071" y="0" on="1"/>
        <pt x="1071" y="1311" on="1"/>
        <pt x="596" y="1311" on="1"/>
        <pt x="565" y="1071" on="1"/>
        <pt x="504" y="592" on="0"/>
        <pt x="411" y="149" on="0"/>
        <pt x="259" y="-25" on="0"/>
        <pt x="133" y="-23" on="1"/>
        <pt x="59" y="-23" on="0"/>
        <pt x="0" y="2" on="1"/>
        <pt x="0" y="145" on="1"/>
        <pt x="54" y="119" on="0"/>
        <pt x="113" y="119" on="1"/>
        <pt x="166" y="119" on="0"/>
        <pt x="245" y="206" on="0"/>
        <pt x="306" y="421" on="0"/>
        <pt x="399" y="1022" on="0"/>
        <pt x="455" y="1462" on="1"/>
        <pt x="1241" y="1462" on="1"/>
      </contour>
    </TTGlyph>
    <TTGlyph name="afii10030" xMin="201" yMin="0" xMax="1649" yMax="1462">
      <component glyphName="M" x="0" y="0" flags="0x204"/>
    </TTGlyph>
    <TTGlyph name="afii10031" xMin="201" yMin="0" xMax="1311" yMax="1462">
      <component glyphName="H" x="0" y="0" flags="0x204"/>
    </TTGlyph>
    <TTGlyph name="afii10032" xMin="125" yMin="-20" xMax="1470" yMax="1485">
      <component glyphName="O" x="0" y="0" flags="0x204"/>
    </TTGlyph>
    <TTGlyph name="afii10033" xMin="201" yMin="0" xMax="1292" yMax="1462">
      <component glyphName="Pi" x="0" y="0" flags="0x204"/>
    </TTGlyph>
    <TTGlyph name="afii10034" xMin="201" yMin="0" xMax="1128" yMax="1462">
      <component glyphName="P" x="0" y="0" flags="0x204"/>
    </TTGlyph>
    <TTGlyph name="afii10035" xMin="125" yMin="-20" xMax="1231" yMax="1483">
      <component glyphName="C" x="0" y="0" flags="0x204"/>
    </TTGlyph>
    <TTGlyph name="afii10036" xMin="18" yMin="0" xMax="1114" yMax="1462">
      <component glyphName="T" x="0" y="0" flags="0x204"/>
    </TTGlyph>
    <TTGlyph name="afii10037" xMin="27" yMin="-20" xMax="1272" yMax="1462">
      <contour>
        <pt x="293" y="-20" on="1"/>
        <pt x="182" y="-20" on="0"/>
        <pt x="98" y="10" on="1"/>
        <pt x="98" y="176" on="1"/>
        <pt x="191" y="133" on="0"/>
        <pt x="287" y="133" on="1"/>
        <pt x="397" y="133" on="0"/>
        <pt x="530" y="234" on="0"/>
        <pt x="596" y="373" on="1"/>
        <pt x="27" y="1462" on="1"/>
        <pt x="215" y="1462" on="1"/>
        <pt x="647" y="631" on="1"/>
        <pt x="672" y="582" on="0"/>
        <pt x="686" y="535" on="1"/>
        <pt x="694" y="535" on="1"/>
        <pt x="722" y="619" on="0"/>
        <pt x="733" y="641" on="1"/>
        <pt x="1092" y="1462" on="1"/>
        <pt x="1272" y="1462" on="1"/>
        <pt x="805" y="416" on="1"/>
        <pt x="721" y="229" on="0"/>
        <pt x="586" y="59" on="0"/>
        <pt x="417" y="-20" on="0"/>
      </contour>
    </TTGlyph>
    <TTGlyph name="afii10038" xMin="106" yMin="-20" xMax="1528" yMax="1483">
      <component glyphName="Phi" x="0" y="0" flags="0x204"/>
    </TTGlyph>
    <TTGlyph name="afii10039" xMin="8" yMin="0" xMax="1174" yMax="1462">
      <component glyphName="X" x="0" y="0" flags="0x204"/>
    </TTGlyph>
    <TTGlyph name="afii10040" xMin="201" yMin="-381" xMax="1464" yMax="1462">
      <contour>
        <pt x="1292" y="154" on="1"/>
        <pt x="1464" y="154" on="1"/>
        <pt x="1464" y="-381" on="1"/>
        <pt x="1303" y="-381" on="1"/>
        <pt x="1303" y="0" on="1"/>
        <pt x="201" y="0" on="1"/>
        <pt x="201" y="1462" on="1"/>
        <pt x="371" y="1462" on="1"/>
        <pt x="371" y="154" on="1"/>
        <pt x="1122" y="154" on="1"/>
        <pt x="1122" y="1462" on="1"/>
        <pt x="1292" y="1462" on="1"/>
      </contour>
    </TTGlyph>
    <TTGlyph name="afii10041" xMin="170" yMin="0" xMax="1223" yMax="1462">
      <contour>
        <pt x="1223" y="0" on="1"/>
        <pt x="1053" y="0" on="1"/>
        <pt x="1053" y="604" on="1"/>
        <pt x="904" y="551" on="0"/>
        <pt x="706" y="512" on="0"/>
        <pt x="600" y="512" on="1"/>
        <pt x="393" y="512" on="0"/>
        <pt x="170" y="702" on="0"/>
        <pt x="170" y="881" on="1"/>
        <pt x="170" y="1462" on="1"/>
        <pt x="340" y="1462" on="1"/>
        <pt x="340" y="901" on="1"/>
        <pt x="340" y="780" on="0"/>
        <pt x="467" y="664" on="0"/>
        <pt x="610" y="664" on="1"/>
        <pt x="707" y="664" on="0"/>
        <pt x="884" y="693" on="0"/>
        <pt x="1053" y="748" on="1"/>
        <pt x="1053" y="1462" on="1"/>
        <pt x="1223" y="1462" on="1"/>
      </contour>
    </TTGlyph>
    <TTGlyph name="afii10042" xMin="201" yMin="0" xMax="1913" yMax="1462">
      <contour>
        <pt x="1913" y="0" on="1"/>
        <pt x="201" y="0" on="1"/>
        <pt x="201" y="1462" on="1"/>
        <pt x="371" y="1462" on="1"/>
        <pt x="371" y="154" on="1"/>
        <pt x="971" y="154" on="1"/>
        <pt x="971" y="1462" on="1"/>
        <pt x="1141" y="1462" on="1"/>
        <pt x="1141" y="154" on="1"/>
        <pt x="1741" y="154" on="1"/>
        <pt x="1741" y="1462" on="1"/>
        <pt x="1913" y="1462" on="1"/>
      </contour>
    </TTGlyph>
    <TTGlyph name="afii10043" xMin="201" yMin="-381" xMax="2052" yMax="1462">
      <contour>
        <pt x="201" y="0" on="1"/>
        <pt x="201" y="1462" on="1"/>
        <pt x="371" y="1462" on="1"/>
        <pt x="371" y="154" on="1"/>
        <pt x="954" y="154" on="1"/>
        <pt x="954" y="1462" on="1"/>
        <pt x="1126" y="1462" on="1"/>
        <pt x="1126" y="154" on="1"/>
        <pt x="1710" y="154" on="1"/>
        <pt x="1710" y="1462" on="1"/>
        <pt x="1880" y="1462" on="1"/>
        <pt x="1880" y="154" on="1"/>
        <pt x="2052" y="154" on="1"/>
        <pt x="2052" y="-381" on="1"/>
        <pt x="1890" y="-381" on="1"/>
        <pt x="1890" y="0" on="1"/>
      </contour>
    </TTGlyph>
    <TTGlyph name="afii10044" xMin="18" yMin="0" xMax="1303" yMax="1462">
      <contour>
        <pt x="1303" y="426" on="1"/>
        <pt x="1303" y="220" on="0"/>
        <pt x="1044" y="0" on="0"/>
        <pt x="795" y="0" on="1"/>
        <pt x="354" y="0" on="1"/>
        <pt x="354" y="1311" on="1"/>
        <pt x="18" y="1311" on="1"/>
        <pt x="18" y="1462" on="1"/>
        <pt x="524" y="1462" on="1"/>
        <pt x="524" y="838" on="1"/>
        <pt x="768" y="838" on="1"/>
        <pt x="1029" y="838" on="0"/>
        <pt x="1303" y="633" on="0"/>
      </contour>
      <contour>
        <pt x="524" y="147" on="1"/>
        <pt x="776" y="147" on="1"/>
        <pt x="957" y="147" on="0"/>
        <pt x="1126" y="286" on="0"/>
        <pt x="1126" y="426" on="1"/>
        <pt x="1126" y="562" on="0"/>
        <pt x="951" y="688" on="0"/>
        <pt x="748" y="688" on="1"/>
        <pt x="524" y="688" on="1"/>
      </contour>
    </TTGlyph>
    <TTGlyph name="afii10045" xMin="201" yMin="0" xMax="1546" yMax="1462">
      <contour>
        <pt x="201" y="0" on="1"/>
        <pt x="201" y="1462" on="1"/>
        <pt x="371" y="1462" on="1"/>
        <pt x="371" y="838" on="1"/>
        <pt x="610" y="838" on="1"/>
        <pt x="871" y="838" on="0"/>
        <pt x="1145" y="633" on="0"/>
        <pt x="1145" y="426" on="1"/>
        <pt x="1145" y="220" on="0"/>
        <pt x="886" y="0" on="0"/>
        <pt x="637" y="0" on="1"/>
      </contour>
      <contour>
        <pt x="371" y="145" on="1"/>
        <pt x="618" y="145" on="1"/>
        <pt x="799" y="145" on="0"/>
        <pt x="969" y="286" on="0"/>
        <pt x="969" y="426" on="1"/>
        <pt x="969" y="563" on="0"/>
        <pt x="790" y="686" on="0"/>
        <pt x="590" y="686" on="1"/>
        <pt x="371" y="686" on="1"/>
      </contour>
      <contour>
        <pt x="1546" y="0" on="1"/>
        <pt x="1376" y="0" on="1"/>
        <pt x="1376" y="1462" on="1"/>
        <pt x="1546" y="1462" on="1"/>
      </contour>
    </TTGlyph>
    <TTGlyph name="afii10046" xMin="201" yMin="0" xMax="1210" yMax="1462">
      <contour>
        <pt x="1210" y="426" on="1"/>
        <pt x="1210" y="223" on="0"/>
        <pt x="939" y="0" on="0"/>
        <pt x="688" y="0" on="1"/>
        <pt x="201" y="0" on="1"/>
        <pt x="201" y="1462" on="1"/>
        <pt x="371" y="1462" on="1"/>
        <pt x="371" y="838" on="1"/>
        <pt x="662" y="838" on="1"/>
        <pt x="929" y="838" on="0"/>
        <pt x="1210" y="627" on="0"/>
      </contour>
      <contour>
        <pt x="371" y="147" on="1"/>
        <pt x="670" y="147" on="1"/>
        <pt x="1034" y="147" on="0"/>
        <pt x="1034" y="426" on="1"/>
        <pt x="1034" y="561" on="0"/>
        <pt x="847" y="688" on="0"/>
        <pt x="641" y="688" on="1"/>
        <pt x="371" y="688" on="1"/>
      </contour>
    </TTGlyph>
    <TTGlyph name="afii10047" xMin="61" yMin="-20" xMax="1161" yMax="1483">
      <contour>
        <pt x="467" y="1331" on="1"/>
        <pt x="295" y="1331" on="0"/>
        <pt x="133" y="1255" on="1"/>
        <pt x="61" y="1399" on="1"/>
        <pt x="233" y="1483" on="0"/>
        <pt x="469" y="1483" on="1"/>
        <pt x="686" y="1483" on="0"/>
        <pt x="999" y="1307" on="0"/>
        <pt x="1161" y="981" on="0"/>
        <pt x="1161" y="760" on="1"/>
        <pt x="1161" y="384" on="0"/>
        <pt x="797" y="-20" on="0"/>
        <pt x="455" y="-20" on="1"/>
        <pt x="228" y="-20" on="0"/>
        <pt x="72" y="37" on="1"/>
        <pt x="72" y="186" on="1"/>
        <pt x="155" y="165" on="0"/>
        <pt x="327" y="131" on="0"/>
        <pt x="426" y="131" on="1"/>
        <pt x="697" y="131" on="0"/>
        <pt x="973" y="420" on="0"/>
        <pt x="981" y="692" on="1"/>
        <pt x="262" y="692" on="1"/>
        <pt x="262" y="844" on="1"/>
        <pt x="979" y="844" on="1"/>
        <pt x="957" y="1073" on="0"/>
        <pt x="686" y="1331" on="0"/>
      </contour>
    </TTGlyph>
    <TTGlyph name="afii10048" xMin="201" yMin="-20" xMax="2023" yMax="1485">
      <contour>
        <pt x="2023" y="733" on="1"/>
        <pt x="2023" y="379" on="0"/>
        <pt x="1682" y="-20" on="0"/>
        <pt x="1378" y="-20" on="1"/>
        <pt x="1077" y="-20" on="0"/>
        <pt x="736" y="347" on="0"/>
        <pt x="725" y="688" on="1"/>
        <pt x="371" y="688" on="1"/>
        <pt x="371" y="0" on="1"/>
        <pt x="201" y="0" on="1"/>
        <pt x="201" y="1462" on="1"/>
        <pt x="371" y="1462" on="1"/>
        <pt x="371" y="840" on="1"/>
        <pt x="727" y="840" on="1"/>
        <pt x="750" y="1151" on="0"/>
        <pt x="1087" y="1485" on="0"/>
        <pt x="1374" y="1485" on="1"/>
        <pt x="1681" y="1485" on="0"/>
        <pt x="2023" y="1084" on="0"/>
      </contour>
      <contour>
        <pt x="903" y="733" on="1"/>
        <pt x="903" y="437" on="0"/>
        <pt x="1141" y="129" on="0"/>
        <pt x="1372" y="129" on="1"/>
        <pt x="1606" y="129" on="0"/>
        <pt x="1843" y="435" on="0"/>
        <pt x="1843" y="733" on="1"/>
        <pt x="1843" y="1031" on="0"/>
        <pt x="1608" y="1333" on="0"/>
        <pt x="1376" y="1333" on="1"/>
        <pt x="1143" y="1333" on="0"/>
        <pt x="903" y="1028" on="0"/>
      </contour>
    </TTGlyph>
    <TTGlyph name="afii10049" xMin="51" yMin="0" xMax="1102" yMax="1462">
      <contour>
        <pt x="635" y="610" on="1"/>
        <pt x="252" y="0" on="1"/>
        <pt x="51" y="0" on="1"/>
        <pt x="461" y="639" on="1"/>
        <pt x="300" y="690" on="0"/>
        <pt x="154" y="897" on="0"/>
        <pt x="154" y="1055" on="1"/>
        <pt x="154" y="1251" on="0"/>
        <pt x="425" y="1462" on="0"/>
        <pt x="700" y="1462" on="1"/>
        <pt x="1102" y="1462" on="1"/>
        <pt x="1102" y="0" on="1"/>
        <pt x="932" y="0" on="1"/>
        <pt x="932" y="610" on="1"/>
      </contour>
      <contour>
        <pt x="932" y="1315" on="1"/>
        <pt x="705" y="1315" on="1"/>
        <pt x="522" y="1315" on="0"/>
        <pt x="332" y="1189" on="0"/>
        <pt x="332" y="1047" on="1"/>
        <pt x="332" y="756" on="0"/>
        <pt x="711" y="756" on="1"/>
        <pt x="932" y="756" on="1"/>
      </contour>
    </TTGlyph>
    <TTGlyph name="afii10050" xMin="201" yMin="0" xMax="1032" yMax="1763">
      <contour>
        <pt x="870" y="1462" on="1"/>
        <pt x="870" y="1763" on="1"/>
        <pt x="1032" y="1763" on="1"/>
        <pt x="1032" y="1309" on="1"/>
        <pt x="371" y="1309" on="1"/>
        <pt x="371" y="0" on="1"/>
        <pt x="201" y="0" on="1"/>
        <pt x="201" y="1462" on="1"/>
      </contour>
    </TTGlyph>
    <TTGlyph name="afii10051" xMin="18" yMin="-20" xMax="1346" yMax="1462">
      <contour>
        <pt x="975" y="-20" on="1"/>
        <pt x="879" y="-20" on="0"/>
        <pt x="825" y="2" on="1"/>
        <pt x="825" y="152" on="1"/>
        <pt x="880" y="133" on="0"/>
        <pt x="971" y="133" on="1"/>
        <pt x="1072" y="133" on="0"/>
        <pt x="1176" y="257" on="0"/>
        <pt x="1176" y="369" on="1"/>
        <pt x="1176" y="500" on="1"/>
        <pt x="1176" y="628" on="0"/>
        <pt x="1045" y="741" on="0"/>
        <pt x="905" y="741" on="1"/>
        <pt x="524" y="741" on="1"/>
        <pt x="524" y="0" on="1"/>
        <pt x="354" y="0" on="1"/>
        <pt x="354" y="1311" on="1"/>
        <pt x="18" y="1311" on="1"/>
        <pt x="18" y="1462" on="1"/>
        <pt x="969" y="1462" on="1"/>
        <pt x="969" y="1311" on="1"/>
        <pt x="524" y="1311" on="1"/>
        <pt x="524" y="893" on="1"/>
        <pt x="920" y="893" on="1"/>
        <pt x="1125" y="893" on="0"/>
        <pt x="1346" y="702" on="0"/>
        <pt x="1346" y="524" on="1"/>
        <pt x="1346" y="381" on="1"/>
        <pt x="1346" y="191" on="0"/>
        <pt x="1150" y="-20" on="0"/>
      </contour>
    </TTGlyph>
    <TTGlyph name="afii10052" xMin="201" yMin="0" xMax="1016" yMax="1907">
      <component glyphName="Gamma" x="0" y="0" flags="0x204"/>
      <component glyphName="acute" x="90" y="338" flags="0x4"/>
    </TTGlyph>
    <TTGlyph name="afii10053" xMin="125" yMin="-20" xMax="1251" yMax="1485">
      <contour>
        <pt x="834" y="1331" on="1"/>
        <pt x="608" y="1331" on="0"/>
        <pt x="339" y="1081" on="0"/>
        <pt x="309" y="840" on="1"/>
        <pt x="1032" y="840" on="1"/>
        <pt x="1032" y="690" on="1"/>
        <pt x="305" y="690" on="1"/>
        <pt x="315" y="416" on="0"/>
        <pt x="582" y="131" on="0"/>
        <pt x="831" y="131" on="1"/>
        <pt x="993" y="131" on="0"/>
        <pt x="1194" y="186" on="1"/>
        <pt x="1194" y="37" on="1"/>
        <pt x="1033" y="-20" on="0"/>
        <pt x="807" y="-20" on="1"/>
        <pt x="475" y="-20" on="0"/>
        <pt x="125" y="368" on="0"/>
        <pt x="125" y="733" on="1"/>
        <pt x="125" y="1084" on="0"/>
        <pt x="502" y="1485" on="0"/>
        <pt x="836" y="1485" on="1"/>
        <pt x="1073" y="1485" on="0"/>
        <pt x="1251" y="1397" on="1"/>
        <pt x="1180" y="1249" on="1"/>
        <pt x="1011" y="1331" on="0"/>
      </contour>
    </TTGlyph>
    <TTGlyph name="afii10054" xMin="106" yMin="-20" xMax="1026" yMax="1483">
      <component glyphName="S" x="0" y="0" flags="0x204"/>
    </TTGlyph>
    <TTGlyph name="afii10055" xMin="201" yMin="0" xMax="371" yMax="1462">
      <component glyphName="I" x="0" y="0" flags="0x204"/>
    </TTGlyph>
    <TTGlyph name="afii10055.alt" xMin="84" yMin="0" xMax="598" yMax="1462">
      <component glyphName="I.alt" x="0" y="0" flags="0x204"/>
    </TTGlyph>
    <TTGlyph name="afii10056" xMin="5" yMin="0" xMax="568" yMax="1829">
      <component glyphName="I" x="0" y="0" flags="0x204"/>
      <component glyphName="dieresis" x="-304" y="338" flags="0x4"/>
    </TTGlyph>
    <TTGlyph name="afii10056.alt" xMin="60" yMin="0" xMax="623" yMax="1829">
      <component glyphName="I.alt" x="0" y="0" flags="0x204"/>
      <component glyphName="dieresis" x="-249" y="338" flags="0x4"/>
    </TTGlyph>
    <TTGlyph name="afii10057" xMin="-160" yMin="-385" xMax="360" yMax="1462">
      <component glyphName="J" x="0" y="0" flags="0x204"/>
    </TTGlyph>
    <TTGlyph name="afii10058" xMin="0" yMin="-23" xMax="1827" yMax="1462">
      <contour>
        <pt x="1827" y="426" on="1"/>
        <pt x="1827" y="220" on="0"/>
        <pt x="1552" y="0" on="0"/>
        <pt x="1292" y="0" on="1"/>
        <pt x="965" y="0" on="1"/>
        <pt x="965" y="1311" on="1"/>
        <pt x="600" y="1311" on="1"/>
        <pt x="543" y="871" on="0"/>
        <pt x="459" y="349" on="0"/>
        <pt x="379" y="98" on="0"/>
        <pt x="240" y="-23" on="0"/>
        <pt x="133" y="-23" on="1"/>
        <pt x="64" y="-23" on="0"/>
        <pt x="0" y="2" on="1"/>
        <pt x="0" y="145" on="1"/>
        <pt x="50" y="119" on="0"/>
        <pt x="113" y="119" on="1"/>
        <pt x="161" y="119" on="0"/>
        <pt x="226" y="181" on="0"/>
        <pt x="269" y="284" on="0"/>
        <pt x="324" y="534" on="0"/>
        <pt x="392" y="980" on="0"/>
        <pt x="457" y="1462" on="1"/>
        <pt x="1135" y="1462" on="1"/>
        <pt x="1135" y="838" on="1"/>
        <pt x="1257" y="838" on="1"/>
        <pt x="1827" y="838" on="0"/>
      </contour>
      <contour>
        <pt x="1135" y="147" on="1"/>
        <pt x="1268" y="147" on="1"/>
        <pt x="1466" y="147" on="0"/>
        <pt x="1649" y="286" on="0"/>
        <pt x="1649" y="426" on="1"/>
        <pt x="1649" y="564" on="0"/>
        <pt x="1457" y="688" on="0"/>
        <pt x="1237" y="688" on="1"/>
        <pt x="1135" y="688" on="1"/>
      </contour>
    </TTGlyph>
    <TTGlyph name="afii10059" xMin="201" yMin="0" xMax="1876" yMax="1462">
      <contour>
        <pt x="1876" y="426" on="1"/>
        <pt x="1876" y="220" on="0"/>
        <pt x="1604" y="0" on="0"/>
        <pt x="1343" y="0" on="1"/>
        <pt x="1014" y="0" on="1"/>
        <pt x="1014" y="688" on="1"/>
        <pt x="371" y="688" on="1"/>
        <pt x="371" y="0" on="1"/>
        <pt x="201" y="0" on="1"/>
        <pt x="201" y="1462" on="1"/>
        <pt x="371" y="1462" on="1"/>
        <pt x="371" y="840" on="1"/>
        <pt x="1014" y="840" on="1"/>
        <pt x="1014" y="1462" on="1"/>
        <pt x="1186" y="1462" on="1"/>
        <pt x="1186" y="838" on="1"/>
        <pt x="1307" y="838" on="1"/>
        <pt x="1876" y="838" on="0"/>
      </contour>
      <contour>
        <pt x="1186" y="147" on="1"/>
        <pt x="1319" y="147" on="1"/>
        <pt x="1515" y="147" on="0"/>
        <pt x="1700" y="286" on="0"/>
        <pt x="1700" y="426" on="1"/>
        <pt x="1700" y="563" on="0"/>
        <pt x="1507" y="688" on="0"/>
        <pt x="1288" y="688" on="1"/>
        <pt x="1186" y="688" on="1"/>
      </contour>
    </TTGlyph>
    <TTGlyph name="afii10060" xMin="18" yMin="0" xMax="1346" yMax="1462">
      <contour>
        <pt x="524" y="893" on="1"/>
        <pt x="924" y="893" on="1"/>
        <pt x="1129" y="893" on="0"/>
        <pt x="1346" y="705" on="0"/>
        <pt x="1346" y="524" on="1"/>
        <pt x="1346" y="0" on="1"/>
        <pt x="1176" y="0" on="1"/>
        <pt x="1176" y="502" on="1"/>
        <pt x="1176" y="628" on="0"/>
        <pt x="1051" y="741" on="0"/>
        <pt x="911" y="741" on="1"/>
        <pt x="524" y="741" on="1"/>
        <pt x="524" y="0" on="1"/>
        <pt x="354" y="0" on="1"/>
        <pt x="354" y="1311" on="1"/>
        <pt x="18" y="1311" on="1"/>
        <pt x="18" y="1462" on="1"/>
        <pt x="1032" y="1462" on="1"/>
        <pt x="1032" y="1311" on="1"/>
        <pt x="524" y="1311" on="1"/>
      </contour>
    </TTGlyph>
    <TTGlyph name="afii10061" xMin="201" yMin="0" xMax="1253" yMax="1907">
      <component glyphName="afii10028" x="0" y="0" flags="0x204"/>
      <component glyphName="acute" x="162" y="338" flags="0x4"/>
    </TTGlyph>
    <TTGlyph name="afii10062" xMin="27" yMin="-20" xMax="1272" yMax="1886">
      <component glyphName="afii10037" x="0" y="0" flags="0x204"/>
      <component glyphName="cyrillicbreve" x="68" y="338" flags="0x4"/>
    </TTGlyph>
    <TTGlyph name="afii10065" xMin="94" yMin="-20" xMax="973" yMax="1114">
      <component glyphName="a" x="0" y="0" flags="0x204"/>
    </TTGlyph>
    <TTGlyph name="afii10066" xMin="119" yMin="-20" xMax="1108" yMax="1569">
      <contour>
        <pt x="119" y="657" on="1"/>
        <pt x="119" y="1017" on="0"/>
        <pt x="331" y="1420" on="0"/>
        <pt x="561" y="1470" on="1"/>
        <pt x="847" y="1531" on="0"/>
        <pt x="1065" y="1569" on="1"/>
        <pt x="1096" y="1423" on="1"/>
        <pt x="749" y="1365" on="0"/>
        <pt x="600" y="1331" on="1"/>
        <pt x="455" y="1298" on="0"/>
        <pt x="310" y="1052" on="0"/>
        <pt x="303" y="840" on="1"/>
        <pt x="315" y="840" on="1"/>
        <pt x="377" y="924" on="0"/>
        <pt x="573" y="1020" on="0"/>
        <pt x="680" y="1020" on="1"/>
        <pt x="882" y="1020" on="0"/>
        <pt x="1108" y="758" on="0"/>
        <pt x="1108" y="526" on="1"/>
        <pt x="1108" y="269" on="0"/>
        <pt x="846" y="-20" on="0"/>
        <pt x="612" y="-20" on="1"/>
        <pt x="381" y="-20" on="0"/>
        <pt x="119" y="334" on="0"/>
      </contour>
      <contour>
        <pt x="627" y="119" on="1"/>
        <pt x="932" y="119" on="0"/>
        <pt x="932" y="508" on="1"/>
        <pt x="932" y="879" on="0"/>
        <pt x="655" y="879" on="1"/>
        <pt x="579" y="879" on="0"/>
        <pt x="438" y="816" on="0"/>
        <pt x="321" y="712" on="0"/>
        <pt x="289" y="657" on="1"/>
        <pt x="289" y="394" on="0"/>
        <pt x="455" y="119" on="0"/>
      </contour>
    </TTGlyph>
    <TTGlyph name="afii10067" xMin="176" yMin="0" xMax="1100" yMax="1096">
      <contour>
        <pt x="1065" y="821" on="1"/>
        <pt x="1065" y="714" on="0"/>
        <pt x="942" y="603" on="0"/>
        <pt x="831" y="584" on="1"/>
        <pt x="831" y="575" on="1"/>
        <pt x="971" y="556" on="0"/>
        <pt x="1100" y="430" on="0"/>
        <pt x="1100" y="319" on="1"/>
        <pt x="1100" y="166" on="0"/>
        <pt x="875" y="0" on="0"/>
        <pt x="659" y="0" on="1"/>
        <pt x="176" y="0" on="1"/>
        <pt x="176" y="1096" on="1"/>
        <pt x="657" y="1096" on="1"/>
        <pt x="1065" y="1096" on="0"/>
      </contour>
      <contour>
        <pt x="934" y="330" on="1"/>
        <pt x="934" y="419" on="0"/>
        <pt x="799" y="500" on="0"/>
        <pt x="643" y="500" on="1"/>
        <pt x="342" y="500" on="1"/>
        <pt x="342" y="139" on="1"/>
        <pt x="647" y="139" on="1"/>
        <pt x="934" y="139" on="0"/>
      </contour>
      <contour>
        <pt x="903" y="805" on="1"/>
        <pt x="903" y="885" on="0"/>
        <pt x="780" y="952" on="0"/>
        <pt x="655" y="952" on="1"/>
        <pt x="342" y="952" on="1"/>
        <pt x="342" y="643" on="1"/>
        <pt x="623" y="643" on="1"/>
        <pt x="777" y="643" on="0"/>
        <pt x="903" y="719" on="0"/>
      </contour>
    </TTGlyph>
    <TTGlyph name="afii10068" xMin="176" yMin="0" xMax="836" yMax="1096">
      <contour>
        <pt x="836" y="954" on="1"/>
        <pt x="342" y="954" on="1"/>
        <pt x="342" y="0" on="1"/>
        <pt x="176" y="0" on="1"/>
        <pt x="176" y="1096" on="1"/>
        <pt x="836" y="1096" on="1"/>
      </contour>
    </TTGlyph>
    <TTGlyph name="afii10069" xMin="41" yMin="-379" xMax="1128" yMax="1096">
      <contour>
        <pt x="1128" y="-379" on="1"/>
        <pt x="967" y="-379" on="1"/>
        <pt x="967" y="0" on="1"/>
        <pt x="201" y="0" on="1"/>
        <pt x="201" y="-379" on="1"/>
        <pt x="41" y="-379" on="1"/>
        <pt x="41" y="143" on="1"/>
        <pt x="127" y="143" on="1"/>
        <pt x="261" y="325" on="0"/>
        <pt x="413" y="815" on="0"/>
        <pt x="416" y="1096" on="1"/>
        <pt x="971" y="1096" on="1"/>
        <pt x="971" y="143" on="1"/>
        <pt x="1128" y="143" on="1"/>
      </contour>
      <contour>
        <pt x="811" y="143" on="1"/>
        <pt x="811" y="965" on="1"/>
        <pt x="565" y="965" on="1"/>
        <pt x="552" y="743" on="0"/>
        <pt x="407" y="288" on="0"/>
        <pt x="299" y="143" on="1"/>
      </contour>
    </TTGlyph>
    <TTGlyph name="afii10070" xMin="115" yMin="-20" xMax="1042" yMax="1116">
      <component glyphName="e" x="0" y="0" flags="0x204"/>
    </TTGlyph>
    <TTGlyph name="afii10071" xMin="115" yMin="-20" xMax="1042" yMax="1491">
      <component glyphName="e" x="0" y="0" flags="0x204"/>
      <component glyphName="dieresis" x="8" y="0" flags="0x4"/>
    </TTGlyph>
    <TTGlyph name="afii10072" xMin="4" yMin="0" xMax="1503" yMax="1094">
      <contour>
        <pt x="676" y="1094" on="1"/>
        <pt x="829" y="1094" on="1"/>
        <pt x="829" y="563" on="1"/>
        <pt x="1282" y="1094" on="1"/>
        <pt x="1464" y="1094" on="1"/>
        <pt x="1006" y="563" on="1"/>
        <pt x="1503" y="0" on="1"/>
        <pt x="1311" y="0" on="1"/>
        <pt x="829" y="555" on="1"/>
        <pt x="829" y="0" on="1"/>
        <pt x="676" y="0" on="1"/>
        <pt x="676" y="555" on="1"/>
        <pt x="195" y="0" on="1"/>
        <pt x="4" y="0" on="1"/>
        <pt x="500" y="563" on="1"/>
        <pt x="43" y="1094" on="1"/>
        <pt x="225" y="1094" on="1"/>
        <pt x="676" y="563" on="1"/>
      </contour>
    </TTGlyph>
    <TTGlyph name="afii10073" xMin="68" yMin="-20" xMax="895" yMax="1116">
      <contour>
        <pt x="385" y="641" on="1"/>
        <pt x="696" y="641" on="0"/>
        <pt x="696" y="813" on="1"/>
        <pt x="696" y="975" on="0"/>
        <pt x="444" y="975" on="1"/>
        <pt x="367" y="975" on="0"/>
        <pt x="241" y="947" on="0"/>
        <pt x="139" y="905" on="1"/>
        <pt x="80" y="1040" on="1"/>
        <pt x="250" y="1116" on="0"/>
        <pt x="451" y="1116" on="1"/>
        <pt x="640" y="1116" on="0"/>
        <pt x="858" y="961" on="0"/>
        <pt x="858" y="827" on="1"/>
        <pt x="858" y="643" on="0"/>
        <pt x="653" y="586" on="1"/>
        <pt x="653" y="578" on="1"/>
        <pt x="779" y="541" on="0"/>
        <pt x="895" y="404" on="0"/>
        <pt x="895" y="301" on="1"/>
        <pt x="895" y="149" on="0"/>
        <pt x="650" y="-20" on="0"/>
        <pt x="434" y="-20" on="1"/>
        <pt x="197" y="-20" on="0"/>
        <pt x="68" y="51" on="1"/>
        <pt x="68" y="203" on="1"/>
        <pt x="251" y="117" on="0"/>
        <pt x="438" y="117" on="1"/>
        <pt x="582" y="117" on="0"/>
        <pt x="729" y="216" on="0"/>
        <pt x="729" y="309" on="1"/>
        <pt x="729" y="500" on="0"/>
        <pt x="418" y="500" on="1"/>
        <pt x="266" y="500" on="1"/>
        <pt x="266" y="641" on="1"/>
      </contour>
    </TTGlyph>
    <TTGlyph name="afii10074" xMin="176" yMin="0" xMax="1122" yMax="1096">
      <contour>
        <pt x="332" y="1096" on="1"/>
        <pt x="332" y="401" on="1"/>
        <pt x="325" y="219" on="1"/>
        <pt x="322" y="162" on="1"/>
        <pt x="915" y="1096" on="1"/>
        <pt x="1122" y="1096" on="1"/>
        <pt x="1122" y="0" on="1"/>
        <pt x="967" y="0" on="1"/>
        <pt x="967" y="670" on="1"/>
        <pt x="970" y="802" on="1"/>
        <pt x="975" y="932" on="1"/>
        <pt x="383" y="0" on="1"/>
        <pt x="176" y="0" on="1"/>
        <pt x="176" y="1096" on="1"/>
      </contour>
    </TTGlyph>
    <TTGlyph name="afii10075" xMin="176" yMin="0" xMax="1122" yMax="1548">
      <component glyphName="afii10074" x="0" y="0" flags="0x204"/>
      <component glyphName="cyrillicbreve" x="61" y="0" flags="0x4"/>
    </TTGlyph>
    <TTGlyph name="afii10076" xMin="176" yMin="0" xMax="1036" yMax="1096">
      <contour>
        <pt x="815" y="1096" on="1"/>
        <pt x="997" y="1096" on="1"/>
        <pt x="524" y="567" on="1"/>
        <pt x="1036" y="0" on="1"/>
        <pt x="842" y="0" on="1"/>
        <pt x="342" y="555" on="1"/>
        <pt x="342" y="0" on="1"/>
        <pt x="176" y="0" on="1"/>
        <pt x="176" y="1096" on="1"/>
        <pt x="342" y="1096" on="1"/>
        <pt x="342" y="563" on="1"/>
      </contour>
    </TTGlyph>
    <TTGlyph name="afii10077" xMin="16" yMin="-14" xMax="993" yMax="1096">
      <contour>
        <pt x="993" y="0" on="1"/>
        <pt x="825" y="0" on="1"/>
        <pt x="825" y="954" on="1"/>
        <pt x="496" y="954" on="1"/>
        <pt x="469" y="598" on="0"/>
        <pt x="373" y="180" on="0"/>
        <pt x="220" y="-14" on="0"/>
        <pt x="102" y="-14" on="1"/>
        <pt x="48" y="-14" on="0"/>
        <pt x="16" y="-2" on="1"/>
        <pt x="16" y="121" on="1"/>
        <pt x="38" y="115" on="0"/>
        <pt x="66" y="115" on="1"/>
        <pt x="181" y="115" on="0"/>
        <pt x="317" y="601" on="0"/>
        <pt x="352" y="1096" on="1"/>
        <pt x="993" y="1096" on="1"/>
      </contour>
    </TTGlyph>
    <TTGlyph name="afii10078" xMin="176" yMin="0" xMax="1327" yMax="1094">
      <contour>
        <pt x="745" y="160" on="1"/>
        <pt x="776" y="253" on="1"/>
        <pt x="819" y="371" on="1"/>
        <pt x="1116" y="1094" on="1"/>
        <pt x="1327" y="1094" on="1"/>
        <pt x="1327" y="0" on="1"/>
        <pt x="1180" y="0" on="1"/>
        <pt x="1180" y="905" on="1"/>
        <pt x="1160" y="847" on="1"/>
        <pt x="1102" y="694" on="1"/>
        <pt x="819" y="0" on="1"/>
        <pt x="680" y="0" on="1"/>
        <pt x="397" y="696" on="1"/>
        <pt x="344" y="830" on="0"/>
        <pt x="324" y="905" on="1"/>
        <pt x="324" y="0" on="1"/>
        <pt x="176" y="0" on="1"/>
        <pt x="176" y="1094" on="1"/>
        <pt x="379" y="1094" on="1"/>
        <pt x="666" y="399" on="1"/>
        <pt x="709" y="289" on="0"/>
      </contour>
    </TTGlyph>
    <TTGlyph name="afii10079" xMin="176" yMin="0" xMax="1122" yMax="1096">
      <contour>
        <pt x="342" y="1096" on="1"/>
        <pt x="342" y="637" on="1"/>
        <pt x="956" y="637" on="1"/>
        <pt x="956" y="1096" on="1"/>
        <pt x="1122" y="1096" on="1"/>
        <pt x="1122" y="0" on="1"/>
        <pt x="956" y="0" on="1"/>
        <pt x="956" y="494" on="1"/>
        <pt x="342" y="494" on="1"/>
        <pt x="342" y="0" on="1"/>
        <pt x="176" y="0" on="1"/>
        <pt x="176" y="1096" on="1"/>
      </contour>
    </TTGlyph>
    <TTGlyph name="afii10080" xMin="115" yMin="-20" xMax="1122" yMax="1116">
      <component glyphName="o" x="0" y="0" flags="0x204"/>
    </TTGlyph>
    <TTGlyph name="afii10081" xMin="176" yMin="0" xMax="1096" yMax="1096">
      <contour>
        <pt x="342" y="0" on="1"/>
        <pt x="176" y="0" on="1"/>
        <pt x="176" y="1096" on="1"/>
        <pt x="1096" y="1096" on="1"/>
        <pt x="1096" y="0" on="1"/>
        <pt x="928" y="0" on="1"/>
        <pt x="928" y="952" on="1"/>
        <pt x="342" y="952" on="1"/>
      </contour>
    </TTGlyph>
    <TTGlyph name="afii10082" xMin="176" yMin="-492" xMax="1141" yMax="1116">
      <component glyphName="p" x="0" y="0" flags="0x204"/>
    </TTGlyph>
    <TTGlyph name="afii10083" xMin="115" yMin="-20" xMax="907" yMax="1116">
      <component glyphName="c" x="0" y="0" flags="0x204"/>
    </TTGlyph>
    <TTGlyph name="afii10084" xMin="41" yMin="0" xMax="915" yMax="1096">
      <contour>
        <pt x="915" y="954" on="1"/>
        <pt x="559" y="954" on="1"/>
        <pt x="559" y="0" on="1"/>
        <pt x="393" y="0" on="1"/>
        <pt x="393" y="954" on="1"/>
        <pt x="41" y="954" on="1"/>
        <pt x="41" y="1096" on="1"/>
        <pt x="915" y="1096" on="1"/>
      </contour>
    </TTGlyph>
    <TTGlyph name="afii10085" xMin="2" yMin="-492" xMax="1030" yMax="1096">
      <component glyphName="y" x="0" y="0" flags="0x204"/>
    </TTGlyph>
    <TTGlyph name="afii10086" xMin="113" yMin="-492" xMax="1350" yMax="1556">
      <contour>
        <pt x="1350" y="549" on="1"/>
        <pt x="1350" y="300" on="0"/>
        <pt x="1067" y="5" on="0"/>
        <pt x="813" y="-16" on="1"/>
        <pt x="813" y="-492" on="1"/>
        <pt x="649" y="-492" on="1"/>
        <pt x="649" y="-16" on="1"/>
        <pt x="401" y="3" on="0"/>
        <pt x="113" y="305" on="0"/>
        <pt x="113" y="549" on="1"/>
        <pt x="113" y="798" on="0"/>
        <pt x="400" y="1092" on="0"/>
        <pt x="655" y="1112" on="1"/>
        <pt x="655" y="1556" on="1"/>
        <pt x="813" y="1556" on="1"/>
        <pt x="813" y="1112" on="1"/>
        <pt x="1064" y="1089" on="0"/>
        <pt x="1350" y="789" on="0"/>
      </contour>
      <contour>
        <pt x="287" y="549" on="1"/>
        <pt x="287" y="357" on="0"/>
        <pt x="463" y="139" on="0"/>
        <pt x="655" y="121" on="1"/>
        <pt x="655" y="973" on="1"/>
        <pt x="470" y="956" on="0"/>
        <pt x="287" y="749" on="0"/>
      </contour>
      <contour>
        <pt x="1178" y="549" on="1"/>
        <pt x="1178" y="932" on="0"/>
        <pt x="813" y="971" on="1"/>
        <pt x="813" y="121" on="1"/>
        <pt x="1003" y="140" on="0"/>
        <pt x="1178" y="358" on="0"/>
      </contour>
    </TTGlyph>
    <TTGlyph name="afii10087" xMin="39" yMin="0" xMax="1032" yMax="1096">
      <component glyphName="x" x="0" y="0" flags="0x204"/>
    </TTGlyph>
    <TTGlyph name="afii10088" xMin="176" yMin="-379" xMax="1245" yMax="1096">
      <contour>
        <pt x="1245" y="-379" on="1"/>
        <pt x="1079" y="-379" on="1"/>
        <pt x="1079" y="0" on="1"/>
        <pt x="176" y="0" on="1"/>
        <pt x="176" y="1096" on="1"/>
        <pt x="342" y="1096" on="1"/>
        <pt x="342" y="143" on="1"/>
        <pt x="924" y="143" on="1"/>
        <pt x="924" y="1096" on="1"/>
        <pt x="1090" y="1096" on="1"/>
        <pt x="1090" y="143" on="1"/>
        <pt x="1245" y="143" on="1"/>
      </contour>
    </TTGlyph>
    <TTGlyph name="afii10089" xMin="156" yMin="0" xMax="1069" yMax="1096">
      <contour>
        <pt x="322" y="1096" on="1"/>
        <pt x="322" y="696" on="1"/>
        <pt x="322" y="504" on="0"/>
        <pt x="541" y="504" on="1"/>
        <pt x="632" y="504" on="0"/>
        <pt x="798" y="560" on="0"/>
        <pt x="903" y="627" on="1"/>
        <pt x="903" y="1096" on="1"/>
        <pt x="1069" y="1096" on="1"/>
        <pt x="1069" y="0" on="1"/>
        <pt x="903" y="0" on="1"/>
        <pt x="903" y="496" on="1"/>
        <pt x="798" y="424" on="0"/>
        <pt x="619" y="365" on="0"/>
        <pt x="506" y="365" on="1"/>
        <pt x="342" y="365" on="0"/>
        <pt x="156" y="537" on="0"/>
        <pt x="156" y="684" on="1"/>
        <pt x="156" y="1096" on="1"/>
      </contour>
    </TTGlyph>
    <TTGlyph name="afii10090" xMin="176" yMin="0" xMax="1647" yMax="1096">
      <contour>
        <pt x="993" y="143" on="1"/>
        <pt x="1479" y="143" on="1"/>
        <pt x="1479" y="1096" on="1"/>
        <pt x="1647" y="1096" on="1"/>
        <pt x="1647" y="0" on="1"/>
        <pt x="176" y="0" on="1"/>
        <pt x="176" y="1096" on="1"/>
        <pt x="342" y="1096" on="1"/>
        <pt x="342" y="143" on="1"/>
        <pt x="827" y="143" on="1"/>
        <pt x="827" y="1096" on="1"/>
        <pt x="993" y="1096" on="1"/>
      </contour>
    </TTGlyph>
    <TTGlyph name="afii10091" xMin="176" yMin="-377" xMax="1802" yMax="1094">
      <contour>
        <pt x="993" y="143" on="1"/>
        <pt x="1479" y="143" on="1"/>
        <pt x="1479" y="1094" on="1"/>
        <pt x="1645" y="1094" on="1"/>
        <pt x="1645" y="143" on="1"/>
        <pt x="1802" y="143" on="1"/>
        <pt x="1802" y="-377" on="1"/>
        <pt x="1634" y="-377" on="1"/>
        <pt x="1634" y="0" on="1"/>
        <pt x="176" y="0" on="1"/>
        <pt x="176" y="1094" on="1"/>
        <pt x="342" y="1094" on="1"/>
        <pt x="342" y="143" on="1"/>
        <pt x="827" y="143" on="1"/>
        <pt x="827" y="1094" on="1"/>
        <pt x="993" y="1094" on="1"/>
      </contour>
    </TTGlyph>
    <TTGlyph name="afii10092" xMin="41" yMin="0" xMax="1309" yMax="1096">
      <contour>
        <pt x="557" y="643" on="1"/>
        <pt x="870" y="643" on="1"/>
        <pt x="1094" y="643" on="0"/>
        <pt x="1309" y="489" on="0"/>
        <pt x="1309" y="334" on="1"/>
        <pt x="1309" y="168" on="0"/>
        <pt x="1086" y="0" on="0"/>
        <pt x="866" y="0" on="1"/>
        <pt x="391" y="0" on="1"/>
        <pt x="391" y="954" on="1"/>
        <pt x="41" y="954" on="1"/>
        <pt x="41" y="1096" on="1"/>
        <pt x="557" y="1096" on="1"/>
      </contour>
      <contour>
        <pt x="1145" y="324" on="1"/>
        <pt x="1145" y="417" on="0"/>
        <pt x="1021" y="500" on="0"/>
        <pt x="864" y="500" on="1"/>
        <pt x="557" y="500" on="1"/>
        <pt x="557" y="139" on="1"/>
        <pt x="870" y="139" on="1"/>
        <pt x="1145" y="139" on="0"/>
      </contour>
    </TTGlyph>
    <TTGlyph name="afii10093" xMin="176" yMin="0" xMax="1401" yMax="1096">
      <contour>
        <pt x="342" y="643" on="1"/>
        <pt x="641" y="643" on="1"/>
        <pt x="850" y="643" on="0"/>
        <pt x="1051" y="488" on="0"/>
        <pt x="1051" y="334" on="1"/>
        <pt x="1051" y="169" on="0"/>
        <pt x="838" y="0" on="0"/>
        <pt x="631" y="0" on="1"/>
        <pt x="176" y="0" on="1"/>
        <pt x="176" y="1096" on="1"/>
        <pt x="342" y="1096" on="1"/>
      </contour>
      <contour>
        <pt x="1401" y="0" on="1"/>
        <pt x="1235" y="0" on="1"/>
        <pt x="1235" y="1096" on="1"/>
        <pt x="1401" y="1096" on="1"/>
      </contour>
      <contour>
        <pt x="342" y="500" on="1"/>
        <pt x="342" y="139" on="1"/>
        <pt x="623" y="139" on="1"/>
        <pt x="887" y="139" on="0"/>
        <pt x="887" y="324" on="1"/>
        <pt x="887" y="416" on="0"/>
        <pt x="765" y="500" on="0"/>
        <pt x="618" y="500" on="1"/>
      </contour>
    </TTGlyph>
    <TTGlyph name="afii10094" xMin="176" yMin="0" xMax="1100" yMax="1096">
      <contour>
        <pt x="342" y="643" on="1"/>
        <pt x="680" y="643" on="1"/>
        <pt x="1100" y="643" on="0"/>
        <pt x="1100" y="334" on="1"/>
        <pt x="1100" y="172" on="0"/>
        <pt x="881" y="0" on="0"/>
        <pt x="670" y="0" on="1"/>
        <pt x="176" y="0" on="1"/>
        <pt x="176" y="1096" on="1"/>
        <pt x="342" y="1096" on="1"/>
      </contour>
      <contour>
        <pt x="342" y="500" on="1"/>
        <pt x="342" y="139" on="1"/>
        <pt x="662" y="139" on="1"/>
        <pt x="794" y="139" on="0"/>
        <pt x="934" y="231" on="0"/>
        <pt x="934" y="324" on="1"/>
        <pt x="934" y="415" on="0"/>
        <pt x="805" y="500" on="0"/>
        <pt x="657" y="500" on="1"/>
      </contour>
    </TTGlyph>
    <TTGlyph name="afii10095" xMin="57" yMin="-20" xMax="893" yMax="1116">
      <contour>
        <pt x="342" y="-20" on="1"/>
        <pt x="175" y="-20" on="0"/>
        <pt x="57" y="37" on="1"/>
        <pt x="57" y="184" on="1"/>
        <pt x="117" y="161" on="0"/>
        <pt x="257" y="125" on="0"/>
        <pt x="348" y="125" on="1"/>
        <pt x="522" y="125" on="0"/>
        <pt x="711" y="311" on="0"/>
        <pt x="721" y="496" on="1"/>
        <pt x="166" y="496" on="1"/>
        <pt x="166" y="637" on="1"/>
        <pt x="719" y="637" on="1"/>
        <pt x="703" y="809" on="0"/>
        <pt x="534" y="969" on="0"/>
        <pt x="373" y="969" on="1"/>
        <pt x="270" y="969" on="0"/>
        <pt x="119" y="915" on="1"/>
        <pt x="72" y="1055" on="1"/>
        <pt x="127" y="1081" on="0"/>
        <pt x="291" y="1116" on="0"/>
        <pt x="371" y="1116" on="1"/>
        <pt x="627" y="1116" on="0"/>
        <pt x="893" y="823" on="0"/>
        <pt x="893" y="547" on="1"/>
        <pt x="893" y="278" on="0"/>
        <pt x="604" y="-20" on="0"/>
      </contour>
    </TTGlyph>
    <TTGlyph name="afii10096" xMin="176" yMin="-20" xMax="1587" yMax="1116">
      <contour>
        <pt x="1587" y="549" on="1"/>
        <pt x="1587" y="280" on="0"/>
        <pt x="1330" y="-20" on="0"/>
        <pt x="1106" y="-20" on="1"/>
        <pt x="893" y="-20" on="0"/>
        <pt x="643" y="247" on="0"/>
        <pt x="629" y="494" on="1"/>
        <pt x="342" y="494" on="1"/>
        <pt x="342" y="0" on="1"/>
        <pt x="176" y="0" on="1"/>
        <pt x="176" y="1096" on="1"/>
        <pt x="342" y="1096" on="1"/>
        <pt x="342" y="637" on="1"/>
        <pt x="631" y="637" on="1"/>
        <pt x="651" y="865" on="0"/>
        <pt x="903" y="1116" on="0"/>
        <pt x="1110" y="1116" on="1"/>
        <pt x="1330" y="1116" on="0"/>
        <pt x="1587" y="811" on="0"/>
      </contour>
      <contour>
        <pt x="801" y="549" on="1"/>
        <pt x="801" y="338" on="0"/>
        <pt x="947" y="119" on="0"/>
        <pt x="1108" y="119" on="1"/>
        <pt x="1266" y="119" on="0"/>
        <pt x="1415" y="332" on="0"/>
        <pt x="1415" y="549" on="1"/>
        <pt x="1415" y="759" on="0"/>
        <pt x="1269" y="975" on="0"/>
        <pt x="1108" y="975" on="1"/>
        <pt x="947" y="975" on="0"/>
        <pt x="801" y="759" on="0"/>
      </contour>
    </TTGlyph>
    <TTGlyph name="afii10097" xMin="37" yMin="0" xMax="961" yMax="1096">
      <contour>
        <pt x="231" y="0" on="1"/>
        <pt x="37" y="0" on="1"/>
        <pt x="352" y="463" on="1"/>
        <pt x="225" y="491" on="0"/>
        <pt x="90" y="652" on="0"/>
        <pt x="90" y="774" on="1"/>
        <pt x="90" y="924" on="0"/>
        <pt x="292" y="1096" on="0"/>
        <pt x="473" y="1096" on="1"/>
        <pt x="961" y="1096" on="1"/>
        <pt x="961" y="0" on="1"/>
        <pt x="795" y="0" on="1"/>
        <pt x="795" y="438" on="1"/>
        <pt x="518" y="438" on="1"/>
      </contour>
      <contour>
        <pt x="252" y="772" on="1"/>
        <pt x="252" y="582" on="0"/>
        <pt x="528" y="582" on="1"/>
        <pt x="795" y="582" on="1"/>
        <pt x="795" y="952" on="1"/>
        <pt x="494" y="952" on="1"/>
        <pt x="252" y="952" on="0"/>
      </contour>
    </TTGlyph>
    <TTGlyph name="afii10098" xMin="176" yMin="0" xMax="836" yMax="1417">
      <contour>
        <pt x="836" y="967" on="1"/>
        <pt x="342" y="967" on="1"/>
        <pt x="342" y="0" on="1"/>
        <pt x="176" y="0" on="1"/>
        <pt x="176" y="1096" on="1"/>
        <pt x="670" y="1096" on="1"/>
        <pt x="670" y="1417" on="1"/>
        <pt x="836" y="1417" on="1"/>
      </contour>
    </TTGlyph>
    <TTGlyph name="afii10099" xMin="20" yMin="-492" xMax="1092" yMax="1556">
      <contour>
        <pt x="815" y="-492" on="1"/>
        <pt x="736" y="-492" on="0"/>
        <pt x="684" y="-467" on="1"/>
        <pt x="684" y="-330" on="1"/>
        <pt x="742" y="-350" on="0"/>
        <pt x="797" y="-350" on="1"/>
        <pt x="926" y="-350" on="0"/>
        <pt x="926" y="-180" on="1"/>
        <pt x="926" y="670" on="1"/>
        <pt x="926" y="804" on="0"/>
        <pt x="804" y="936" on="0"/>
        <pt x="674" y="936" on="1"/>
        <pt x="501" y="936" on="0"/>
        <pt x="344" y="748" on="0"/>
        <pt x="344" y="537" on="1"/>
        <pt x="344" y="0" on="1"/>
        <pt x="176" y="0" on="1"/>
        <pt x="176" y="1243" on="1"/>
        <pt x="20" y="1243" on="1"/>
        <pt x="20" y="1370" on="1"/>
        <pt x="176" y="1370" on="1"/>
        <pt x="176" y="1556" on="1"/>
        <pt x="342" y="1556" on="1"/>
        <pt x="342" y="1370" on="1"/>
        <pt x="743" y="1370" on="1"/>
        <pt x="743" y="1243" on="1"/>
        <pt x="342" y="1243" on="1"/>
        <pt x="342" y="1047" on="1"/>
        <pt x="342" y="963" on="0"/>
        <pt x="334" y="907" on="1"/>
        <pt x="344" y="907" on="1"/>
        <pt x="393" y="986" on="0"/>
        <pt x="574" y="1077" on="0"/>
        <pt x="690" y="1077" on="1"/>
        <pt x="891" y="1077" on="0"/>
        <pt x="1092" y="886" on="0"/>
        <pt x="1092" y="676" on="1"/>
        <pt x="1092" y="-166" on="1"/>
        <pt x="1092" y="-322" on="0"/>
        <pt x="955" y="-492" on="0"/>
      </contour>
    </TTGlyph>
    <TTGlyph name="afii10100" xMin="176" yMin="0" xMax="836" yMax="1569">
      <component glyphName="afii10068" x="0" y="0" flags="0x204"/>
      <component glyphName="acute" x="-15" y="0" flags="0x4"/>
    </TTGlyph>
    <TTGlyph name="afii10101" xMin="115" yMin="-20" xMax="938" yMax="1116">
      <contour>
        <pt x="633" y="-20" on="1"/>
        <pt x="385" y="-20" on="0"/>
        <pt x="115" y="271" on="0"/>
        <pt x="115" y="543" on="1"/>
        <pt x="115" y="818" on="0"/>
        <pt x="390" y="1116" on="0"/>
        <pt x="641" y="1116" on="1"/>
        <pt x="723" y="1116" on="0"/>
        <pt x="881" y="1084" on="0"/>
        <pt x="938" y="1059" on="1"/>
        <pt x="889" y="918" on="1"/>
        <pt x="746" y="969" on="0"/>
        <pt x="637" y="969" on="1"/>
        <pt x="473" y="969" on="0"/>
        <pt x="303" y="806" on="0"/>
        <pt x="287" y="637" on="1"/>
        <pt x="840" y="637" on="1"/>
        <pt x="840" y="496" on="1"/>
        <pt x="285" y="496" on="1"/>
        <pt x="294" y="306" on="0"/>
        <pt x="464" y="125" on="0"/>
        <pt x="631" y="125" on="1"/>
        <pt x="771" y="125" on="0"/>
        <pt x="922" y="184" on="1"/>
        <pt x="922" y="37" on="1"/>
        <pt x="806" y="-20" on="0"/>
      </contour>
    </TTGlyph>
    <TTGlyph name="afii10102" xMin="106" yMin="-20" xMax="883" yMax="1116">
      <component glyphName="s" x="0" y="0" flags="0x204"/>
    </TTGlyph>
    <TTGlyph name="afii10103" xMin="162" yMin="0" xMax="358" yMax="1503">
      <component glyphName="i" x="0" y="0" flags="0x204"/>
    </TTGlyph>
    <TTGlyph name="afii10104" xMin="-20" yMin="0" xMax="543" yMax="1491">
      <component glyphName="dotlessi" x="0" y="0" flags="0x204"/>
      <component glyphName="dieresis" x="-329" y="0" flags="0x4"/>
    </TTGlyph>
    <TTGlyph name="afii10105" xMin="-111" yMin="-492" xMax="358" yMax="1503">
      <component glyphName="j" x="0" y="0" flags="0x204"/>
    </TTGlyph>
    <TTGlyph name="afii10106" xMin="16" yMin="-14" xMax="1602" yMax="1096">
      <contour>
        <pt x="944" y="643" on="1"/>
        <pt x="1188" y="643" on="1"/>
        <pt x="1399" y="643" on="0"/>
        <pt x="1602" y="488" on="0"/>
        <pt x="1602" y="334" on="1"/>
        <pt x="1602" y="0" on="0"/>
        <pt x="1165" y="0" on="1"/>
        <pt x="754" y="0" on="1"/>
        <pt x="754" y="954" on="1"/>
        <pt x="496" y="954" on="1"/>
        <pt x="456" y="436" on="0"/>
        <pt x="275" y="-14" on="0"/>
        <pt x="104" y="-14" on="1"/>
        <pt x="48" y="-14" on="0"/>
        <pt x="16" y="-2" on="1"/>
        <pt x="16" y="121" on="1"/>
        <pt x="38" y="115" on="0"/>
        <pt x="66" y="115" on="1"/>
        <pt x="181" y="115" on="0"/>
        <pt x="317" y="601" on="0"/>
        <pt x="352" y="1096" on="1"/>
        <pt x="944" y="1096" on="1"/>
      </contour>
      <contour>
        <pt x="1436" y="324" on="1"/>
        <pt x="1436" y="415" on="0"/>
        <pt x="1311" y="500" on="0"/>
        <pt x="1153" y="500" on="1"/>
        <pt x="922" y="500" on="1"/>
        <pt x="922" y="139" on="1"/>
        <pt x="1159" y="139" on="1"/>
        <pt x="1436" y="139" on="0"/>
      </contour>
    </TTGlyph>
    <TTGlyph name="afii10107" xMin="176" yMin="0" xMax="1700" yMax="1094">
      <contour>
        <pt x="1024" y="1094" on="1"/>
        <pt x="1024" y="641" on="1"/>
        <pt x="1280" y="641" on="1"/>
        <pt x="1497" y="641" on="0"/>
        <pt x="1700" y="488" on="0"/>
        <pt x="1700" y="334" on="1"/>
        <pt x="1700" y="0" on="0"/>
        <pt x="1266" y="0" on="1"/>
        <pt x="850" y="0" on="1"/>
        <pt x="850" y="494" on="1"/>
        <pt x="348" y="494" on="1"/>
        <pt x="348" y="0" on="1"/>
        <pt x="176" y="0" on="1"/>
        <pt x="176" y="1094" on="1"/>
        <pt x="348" y="1094" on="1"/>
        <pt x="348" y="637" on="1"/>
        <pt x="854" y="637" on="1"/>
        <pt x="854" y="1094" on="1"/>
      </contour>
      <contour>
        <pt x="1020" y="500" on="1"/>
        <pt x="1020" y="139" on="1"/>
        <pt x="1260" y="139" on="1"/>
        <pt x="1536" y="139" on="0"/>
        <pt x="1536" y="324" on="1"/>
        <pt x="1536" y="416" on="0"/>
        <pt x="1408" y="500" on="0"/>
        <pt x="1255" y="500" on="1"/>
      </contour>
    </TTGlyph>
    <TTGlyph name="afii10108" xMin="20" yMin="0" xMax="1092" yMax="1556">
      <component glyphName="hbar" x="0" y="0" flags="0x204"/>
    </TTGlyph>
    <TTGlyph name="afii10109" xMin="176" yMin="0" xMax="1036" yMax="1569">
      <component glyphName="afii10076" x="0" y="0" flags="0x204"/>
      <component glyphName="acute" x="51" y="0" flags="0x4"/>
    </TTGlyph>
    <TTGlyph name="afii10110" xMin="2" yMin="-492" xMax="1030" yMax="1548">
      <component glyphName="y" x="0" y="0" flags="0x204"/>
      <component glyphName="cyrillicbreve" x="-73" y="0" flags="0x4"/>
    </TTGlyph>
    <TTGlyph name="afii10145" xMin="201" yMin="-381" xMax="1292" yMax="1462">
      <contour>
        <pt x="1292" y="0" on="1"/>
        <pt x="827" y="0" on="1"/>
        <pt x="827" y="-381" on="1"/>
        <pt x="651" y="-381" on="1"/>
        <pt x="651" y="0" on="1"/>
        <pt x="201" y="0" on="1"/>
        <pt x="201" y="1462" on="1"/>
        <pt x="371" y="1462" on="1"/>
        <pt x="371" y="154" on="1"/>
        <pt x="1122" y="154" on="1"/>
        <pt x="1122" y="1462" on="1"/>
        <pt x="1292" y="1462" on="1"/>
      </contour>
    </TTGlyph>
    <TTGlyph name="afii10193" xMin="176" yMin="-377" xMax="1094" yMax="1094">
      <contour>
        <pt x="559" y="0" on="1"/>
        <pt x="176" y="0" on="1"/>
        <pt x="176" y="1094" on="1"/>
        <pt x="342" y="1094" on="1"/>
        <pt x="342" y="143" on="1"/>
        <pt x="928" y="143" on="1"/>
        <pt x="928" y="1094" on="1"/>
        <pt x="1094" y="1094" on="1"/>
        <pt x="1094" y="0" on="1"/>
        <pt x="725" y="0" on="1"/>
        <pt x="725" y="-377" on="1"/>
        <pt x="559" y="-377" on="1"/>
      </contour>
    </TTGlyph>
    <TTGlyph name="afii61248" xMin="141" yMin="-8" xMax="1546" yMax="1473">
      <contour>
        <pt x="1311" y="1462" on="1"/>
        <pt x="500" y="0" on="1"/>
        <pt x="352" y="0" on="1"/>
        <pt x="1163" y="1462" on="1"/>
      </contour>
      <contour>
        <pt x="1546" y="334" on="1"/>
        <pt x="1546" y="175" on="0"/>
        <pt x="1377" y="-8" on="0"/>
        <pt x="1229" y="-8" on="1"/>
        <pt x="1090" y="-8" on="0"/>
        <pt x="920" y="177" on="0"/>
        <pt x="920" y="334" on="1"/>
        <pt x="920" y="492" on="0"/>
        <pt x="1087" y="676" on="0"/>
        <pt x="1235" y="676" on="1"/>
        <pt x="1376" y="676" on="0"/>
        <pt x="1546" y="490" on="0"/>
      </contour>
      <contour>
        <pt x="1055" y="334" on="1"/>
        <pt x="1055" y="96" on="0"/>
        <pt x="1233" y="96" on="1"/>
        <pt x="1409" y="96" on="0"/>
        <pt x="1409" y="334" on="1"/>
        <pt x="1409" y="569" on="0"/>
        <pt x="1233" y="569" on="1"/>
        <pt x="1055" y="569" on="0"/>
      </contour>
      <contour>
        <pt x="489" y="788" on="1"/>
        <pt x="323" y="788" on="0"/>
        <pt x="141" y="965" on="0"/>
        <pt x="141" y="1126" on="1"/>
        <pt x="141" y="1294" on="0"/>
        <pt x="329" y="1473" on="0"/>
        <pt x="500" y="1473" on="1"/>
        <pt x="604" y="1473" on="0"/>
        <pt x="692" y="1438" on="1"/>
        <pt x="659" y="1335" on="1"/>
        <pt x="578" y="1366" on="0"/>
        <pt x="498" y="1366" on="1"/>
        <pt x="274" y="1366" on="0"/>
        <pt x="274" y="1128" on="1"/>
        <pt x="274" y="893" on="0"/>
        <pt x="494" y="893" on="1"/>
        <pt x="592" y="893" on="0"/>
        <pt x="682" y="926" on="1"/>
        <pt x="682" y="825" on="1"/>
        <pt x="604" y="788" on="0"/>
      </contour>
    </TTGlyph>
    <TTGlyph name="afii61289" xMin="119" yMin="-20" xMax="924" yMax="1483">
      <contour>
        <pt x="637" y="111" on="1"/>
        <pt x="811" y="111" on="0"/>
        <pt x="829" y="324" on="1"/>
        <pt x="924" y="324" on="1"/>
        <pt x="916" y="158" on="0"/>
        <pt x="763" y="-20" on="0"/>
        <pt x="621" y="-20" on="1"/>
        <pt x="471" y="-20" on="0"/>
        <pt x="311" y="161" on="0"/>
        <pt x="311" y="330" on="1"/>
        <pt x="311" y="573" on="1"/>
        <pt x="215" y="538" on="0"/>
        <pt x="119" y="516" on="1"/>
        <pt x="119" y="629" on="1"/>
        <pt x="197" y="650" on="0"/>
        <pt x="311" y="688" on="1"/>
        <pt x="311" y="1186" on="1"/>
        <pt x="311" y="1324" on="0"/>
        <pt x="461" y="1483" on="0"/>
        <pt x="596" y="1483" on="1"/>
        <pt x="713" y="1483" on="0"/>
        <pt x="848" y="1322" on="0"/>
        <pt x="848" y="1184" on="1"/>
        <pt x="848" y="999" on="0"/>
        <pt x="642" y="695" on="0"/>
        <pt x="467" y="621" on="1"/>
        <pt x="467" y="338" on="1"/>
        <pt x="467" y="234" on="0"/>
        <pt x="549" y="111" on="0"/>
      </contour>
      <contour>
        <pt x="723" y="1178" on="1"/>
        <pt x="723" y="1372" on="0"/>
        <pt x="596" y="1372" on="1"/>
        <pt x="529" y="1372" on="0"/>
        <pt x="467" y="1286" on="0"/>
        <pt x="467" y="1178" on="1"/>
        <pt x="467" y="741" on="1"/>
        <pt x="723" y="878" on="0"/>
      </contour>
    </TTGlyph>
    <TTGlyph name="afii61352" xMin="201" yMin="0" xMax="1987" yMax="1462">
      <contour>
        <pt x="1223" y="0" on="1"/>
        <pt x="1036" y="0" on="1"/>
        <pt x="344" y="1227" on="1"/>
        <pt x="336" y="1227" on="1"/>
        <pt x="352" y="939" on="0"/>
        <pt x="352" y="831" on="1"/>
        <pt x="352" y="0" on="1"/>
        <pt x="201" y="0" on="1"/>
        <pt x="201" y="1462" on="1"/>
        <pt x="395" y="1462" on="1"/>
        <pt x="1077" y="240" on="1"/>
        <pt x="1085" y="240" on="1"/>
        <pt x="1071" y="485" on="0"/>
        <pt x="1071" y="623" on="1"/>
        <pt x="1071" y="1462" on="1"/>
        <pt x="1223" y="1462" on="1"/>
      </contour>
      <contour>
        <pt x="1987" y="621" on="1"/>
        <pt x="1987" y="458" on="0"/>
        <pt x="1826" y="274" on="0"/>
        <pt x="1679" y="274" on="1"/>
        <pt x="1540" y="274" on="0"/>
        <pt x="1378" y="461" on="0"/>
        <pt x="1378" y="621" on="1"/>
        <pt x="1378" y="784" on="0"/>
        <pt x="1539" y="965" on="0"/>
        <pt x="1686" y="965" on="1"/>
        <pt x="1825" y="965" on="0"/>
        <pt x="1987" y="778" on="0"/>
      </contour>
      <contour>
        <pt x="1509" y="621" on="1"/>
        <pt x="1509" y="507" on="0"/>
        <pt x="1590" y="389" on="0"/>
        <pt x="1683" y="389" on="1"/>
        <pt x="1774" y="389" on="0"/>
        <pt x="1853" y="506" on="0"/>
        <pt x="1853" y="621" on="1"/>
        <pt x="1853" y="736" on="0"/>
        <pt x="1774" y="848" on="0"/>
        <pt x="1683" y="848" on="1"/>
        <pt x="1591" y="848" on="0"/>
        <pt x="1509" y="736" on="0"/>
      </contour>
      <contour>
        <pt x="1423" y="0" on="1"/>
        <pt x="1423" y="135" on="1"/>
        <pt x="1935" y="135" on="1"/>
        <pt x="1935" y="0" on="1"/>
      </contour>
    </TTGlyph>
    <TTGlyph name="agrave" xMin="94" yMin="-20" xMax="973" yMax="1569">
      <component glyphName="a" x="0" y="0" flags="0x204"/>
      <component glyphName="grave" x="-114" y="0" flags="0x4"/>
    </TTGlyph>
    <TTGlyph name="alpha" xMin="115" yMin="-20" xMax="1223" yMax="1116">
      <contour>
        <pt x="592" y="119" on="1"/>
        <pt x="761" y="119" on="0"/>
        <pt x="911" y="314" on="0"/>
        <pt x="911" y="532" on="1"/>
        <pt x="911" y="547" on="1"/>
        <pt x="911" y="776" on="0"/>
        <pt x="759" y="975" on="0"/>
        <pt x="590" y="975" on="1"/>
        <pt x="287" y="975" on="0"/>
        <pt x="287" y="543" on="1"/>
        <pt x="287" y="331" on="0"/>
        <pt x="434" y="119" on="0"/>
      </contour>
      <contour>
        <pt x="567" y="-20" on="1"/>
        <pt x="353" y="-20" on="0"/>
        <pt x="115" y="277" on="0"/>
        <pt x="115" y="545" on="1"/>
        <pt x="115" y="819" on="0"/>
        <pt x="359" y="1116" on="0"/>
        <pt x="584" y="1116" on="1"/>
        <pt x="705" y="1116" on="0"/>
        <pt x="866" y="1032" on="0"/>
        <pt x="920" y="948" on="1"/>
        <pt x="932" y="948" on="1"/>
        <pt x="956" y="1040" on="0"/>
        <pt x="997" y="1096" on="1"/>
        <pt x="1126" y="1096" on="1"/>
        <pt x="1105" y="1030" on="0"/>
        <pt x="1077" y="784" on="0"/>
        <pt x="1077" y="668" on="1"/>
        <pt x="1077" y="229" on="1"/>
        <pt x="1077" y="115" on="0"/>
        <pt x="1161" y="115" on="1"/>
        <pt x="1190" y="115" on="0"/>
        <pt x="1223" y="125" on="1"/>
        <pt x="1223" y="6" on="1"/>
        <pt x="1177" y="-20" on="0"/>
        <pt x="1112" y="-20" on="1"/>
        <pt x="1031" y="-20" on="0"/>
        <pt x="942" y="61" on="0"/>
        <pt x="924" y="147" on="1"/>
        <pt x="911" y="147" on="1"/>
        <pt x="852" y="61" on="0"/>
        <pt x="685" y="-20" on="0"/>
      </contour>
    </TTGlyph>
    <TTGlyph name="alphatonos" xMin="115" yMin="-20" xMax="1223" yMax="1651">
      <component glyphName="alpha" x="0" y="0" flags="0x204"/>
      <component glyphName="tonos" x="29" y="0" flags="0x4"/>
    </TTGlyph>
    <TTGlyph name="amacron" xMin="94" yMin="-20" xMax="973" yMax="1378">
      <component glyphName="a" x="0" y="0" flags="0x204"/>
      <component glyphName="macron" x="-11" y="0" flags="0x4"/>
    </TTGlyph>
    <TTGlyph name="ampersand" xMin="113" yMin="-20" xMax="1491" yMax="1485">
      <contour>
        <pt x="414" y="1171" on="1"/>
        <pt x="414" y="1102" on="0"/>
        <pt x="486" y="977" on="0"/>
        <pt x="573" y="889" on="1"/>
        <pt x="702" y="964" on="0"/>
        <pt x="803" y="1091" on="0"/>
        <pt x="803" y="1174" on="1"/>
        <pt x="803" y="1251" on="0"/>
        <pt x="700" y="1348" on="0"/>
        <pt x="614" y="1348" on="1"/>
        <pt x="525" y="1348" on="0"/>
        <pt x="414" y="1252" on="0"/>
      </contour>
      <contour>
        <pt x="569" y="129" on="1"/>
        <pt x="810" y="129" on="0"/>
        <pt x="969" y="283" on="1"/>
        <pt x="532" y="707" on="1"/>
        <pt x="421" y="639" on="0"/>
        <pt x="329" y="550" on="0"/>
        <pt x="285" y="448" on="0"/>
        <pt x="285" y="383" on="1"/>
        <pt x="285" y="266" on="0"/>
        <pt x="440" y="129" on="0"/>
      </contour>
      <contour>
        <pt x="113" y="379" on="1"/>
        <pt x="113" y="509" on="0"/>
        <pt x="252" y="709" on="0"/>
        <pt x="432" y="811" on="1"/>
        <pt x="347" y="906" on="0"/>
        <pt x="286" y="1004" on="0"/>
        <pt x="250" y="1110" on="0"/>
        <pt x="250" y="1167" on="1"/>
        <pt x="250" y="1317" on="0"/>
        <pt x="446" y="1485" on="0"/>
        <pt x="621" y="1485" on="1"/>
        <pt x="783" y="1485" on="0"/>
        <pt x="969" y="1318" on="0"/>
        <pt x="969" y="1169" on="1"/>
        <pt x="969" y="1062" on="0"/>
        <pt x="833" y="881" on="0"/>
        <pt x="676" y="788" on="1"/>
        <pt x="1083" y="397" on="1"/>
        <pt x="1139" y="459" on="0"/>
        <pt x="1206" y="626" on="0"/>
        <pt x="1229" y="725" on="1"/>
        <pt x="1397" y="725" on="1"/>
        <pt x="1329" y="439" on="0"/>
        <pt x="1192" y="291" on="1"/>
        <pt x="1491" y="0" on="1"/>
        <pt x="1262" y="0" on="1"/>
        <pt x="1077" y="178" on="1"/>
        <pt x="959" y="72" on="0"/>
        <pt x="715" y="-20" on="0"/>
        <pt x="565" y="-20" on="1"/>
        <pt x="350" y="-20" on="0"/>
        <pt x="113" y="192" on="0"/>
      </contour>
    </TTGlyph>
    <TTGlyph name="anoteleia" xMin="152" yMin="588" xMax="393" yMax="858">
      <component glyphName="periodcentered" x="0" y="0" flags="0x204"/>
    </TTGlyph>
    <TTGlyph name="aogonek" xMin="94" yMin="-446" xMax="1024" yMax="1114">
      <component glyphName="a" x="0" y="0" flags="0x204"/>
      <component glyphName="ogonek" x="655" y="0" flags="0x4"/>
    </TTGlyph>
    <TTGlyph name="approxequal" xMin="98" yMin="391" xMax="1069" yMax="1055">
      <contour>
        <pt x="336" y="512" on="1"/>
        <pt x="282" y="512" on="0"/>
        <pt x="155" y="448" on="0"/>
        <pt x="98" y="391" on="1"/>
        <pt x="98" y="541" on="1"/>
        <pt x="206" y="651" on="0"/>
        <pt x="354" y="651" on="1"/>
        <pt x="421" y="651" on="0"/>
        <pt x="533" y="623" on="0"/>
        <pt x="621" y="586" on="1"/>
        <pt x="698" y="553" on="0"/>
        <pt x="789" y="528" on="0"/>
        <pt x="834" y="528" on="1"/>
        <pt x="887" y="528" on="0"/>
        <pt x="1015" y="594" on="0"/>
        <pt x="1069" y="651" on="1"/>
        <pt x="1069" y="500" on="1"/>
        <pt x="968" y="391" on="0"/>
        <pt x="815" y="391" on="1"/>
        <pt x="748" y="391" on="0"/>
        <pt x="637" y="420" on="0"/>
        <pt x="549" y="457" on="1"/>
        <pt x="476" y="487" on="0"/>
        <pt x="385" y="512" on="0"/>
      </contour>
      <contour>
        <pt x="336" y="918" on="1"/>
        <pt x="279" y="918" on="0"/>
        <pt x="151" y="850" on="0"/>
        <pt x="98" y="797" on="1"/>
        <pt x="98" y="946" on="1"/>
        <pt x="204" y="1055" on="0"/>
        <pt x="354" y="1055" on="1"/>
        <pt x="423" y="1055" on="0"/>
        <pt x="539" y="1023" on="0"/>
        <pt x="621" y="989" on="1"/>
        <pt x="690" y="960" on="0"/>
        <pt x="785" y="934" on="0"/>
        <pt x="834" y="934" on="1"/>
        <pt x="889" y="934" on="0"/>
        <pt x="1018" y="1000" on="0"/>
        <pt x="1069" y="1055" on="1"/>
        <pt x="1069" y="905" on="1"/>
        <pt x="969" y="795" on="0"/>
        <pt x="815" y="795" on="1"/>
        <pt x="746" y="795" on="0"/>
        <pt x="628" y="827" on="0"/>
        <pt x="549" y="860" on="1"/>
        <pt x="465" y="894" on="0"/>
        <pt x="380" y="918" on="0"/>
      </contour>
    </TTGlyph>
    <TTGlyph name="aring" xMin="94" yMin="-20" xMax="973" yMax="1669">
      <component glyphName="a" x="0" y="0" flags="0x204"/>
      <component glyphName="ring" x="-9" y="0" flags="0x4"/>
    </TTGlyph>
    <TTGlyph name="aringacute" xMin="94" yMin="-20" xMax="973" yMax="1962">
      <contour>
        <pt x="471" y="1753" on="1"/>
        <pt x="471" y="1769" on="1"/>
        <pt x="517" y="1811" on="0"/>
        <pt x="623" y="1931" on="0"/>
        <pt x="645" y="1962" on="1"/>
        <pt x="905" y="1962" on="1"/>
        <pt x="905" y="1950" on="1"/>
        <pt x="884" y="1926" on="0"/>
        <pt x="720" y="1821" on="0"/>
        <pt x="592" y="1753" on="1"/>
      </contour>
      <contour>
        <pt x="850" y="0" on="1"/>
        <pt x="817" y="156" on="1"/>
        <pt x="809" y="156" on="1"/>
        <pt x="727" y="53" on="0"/>
        <pt x="564" y="-20" on="0"/>
        <pt x="442" y="-20" on="1"/>
        <pt x="279" y="-20" on="0"/>
        <pt x="94" y="148" on="0"/>
        <pt x="94" y="303" on="1"/>
        <pt x="94" y="635" on="0"/>
        <pt x="631" y="651" on="1"/>
        <pt x="811" y="657" on="1"/>
        <pt x="811" y="725" on="1"/>
        <pt x="811" y="855" on="0"/>
        <pt x="692" y="977" on="0"/>
        <pt x="559" y="977" on="1"/>
        <pt x="463" y="977" on="0"/>
        <pt x="296" y="925" on="0"/>
        <pt x="225" y="893" on="1"/>
        <pt x="170" y="1020" on="1"/>
        <pt x="254" y="1063" on="0"/>
        <pt x="462" y="1114" on="0"/>
        <pt x="563" y="1114" on="1"/>
        <pt x="772" y="1114" on="0"/>
        <pt x="973" y="940" on="0"/>
        <pt x="973" y="748" on="1"/>
        <pt x="973" y="0" on="1"/>
      </contour>
      <contour>
        <pt x="475" y="117" on="1"/>
        <pt x="630" y="117" on="0"/>
        <pt x="807" y="287" on="0"/>
        <pt x="807" y="440" on="1"/>
        <pt x="807" y="539" on="1"/>
        <pt x="641" y="532" on="1"/>
        <pt x="443" y="525" on="0"/>
        <pt x="268" y="416" on="0"/>
        <pt x="268" y="301" on="1"/>
        <pt x="268" y="211" on="0"/>
        <pt x="377" y="117" on="0"/>
      </contour>
      <contour>
        <pt x="803" y="1458" on="1"/>
        <pt x="803" y="1360" on="0"/>
        <pt x="680" y="1241" on="0"/>
        <pt x="578" y="1241" on="1"/>
        <pt x="477" y="1241" on="0"/>
        <pt x="356" y="1357" on="0"/>
        <pt x="356" y="1456" on="1"/>
        <pt x="356" y="1554" on="0"/>
        <pt x="477" y="1669" on="0"/>
        <pt x="578" y="1669" on="1"/>
        <pt x="679" y="1669" on="0"/>
        <pt x="803" y="1550" on="0"/>
      </contour>
      <contour>
        <pt x="694" y="1456" on="1"/>
        <pt x="694" y="1512" on="0"/>
        <pt x="629" y="1573" on="0"/>
        <pt x="578" y="1573" on="1"/>
        <pt x="527" y="1573" on="0"/>
        <pt x="461" y="1512" on="0"/>
        <pt x="461" y="1456" on="1"/>
        <pt x="461" y="1400" on="0"/>
        <pt x="521" y="1339" on="0"/>
        <pt x="578" y="1339" on="1"/>
        <pt x="630" y="1339" on="0"/>
        <pt x="694" y="1400" on="0"/>
      </contour>
    </TTGlyph>
    <TTGlyph name="asciicircum" xMin="49" yMin="551" xMax="1059" yMax="1473">
      <contour>
        <pt x="49" y="551" on="1"/>
        <pt x="483" y="1473" on="1"/>
        <pt x="582" y="1473" on="1"/>
        <pt x="1059" y="551" on="1"/>
        <pt x="907" y="551" on="1"/>
        <pt x="535" y="1296" on="1"/>
        <pt x="201" y="551" on="1"/>
      </contour>
    </TTGlyph>
    <TTGlyph name="asciitilde" xMin="104" yMin="592" xMax="1065" yMax="852">
      <contour>
        <pt x="338" y="713" on="1"/>
        <pt x="285" y="713" on="0"/>
        <pt x="158" y="646" on="0"/>
        <pt x="104" y="592" on="1"/>
        <pt x="104" y="743" on="1"/>
        <pt x="204" y="852" on="0"/>
        <pt x="348" y="852" on="1"/>
        <pt x="416" y="852" on="0"/>
        <pt x="529" y="824" on="0"/>
        <pt x="618" y="786" on="1"/>
        <pt x="684" y="758" on="0"/>
        <pt x="782" y="731" on="0"/>
        <pt x="829" y="731" on="1"/>
        <pt x="883" y="731" on="0"/>
        <pt x="1011" y="795" on="0"/>
        <pt x="1065" y="852" on="1"/>
        <pt x="1065" y="702" on="1"/>
        <pt x="963" y="592" on="0"/>
        <pt x="821" y="592" on="1"/>
        <pt x="749" y="592" on="0"/>
        <pt x="623" y="625" on="0"/>
        <pt x="551" y="657" on="1"/>
        <pt x="476" y="689" on="0"/>
        <pt x="386" y="713" on="0"/>
      </contour>
    </TTGlyph>
    <TTGlyph name="asterisk" xMin="86" yMin="639" xMax="1038" yMax="1556">
      <contour>
        <pt x="657" y="1556" on="1"/>
        <pt x="614" y="1161" on="1"/>
        <pt x="1012" y="1272" on="1"/>
        <pt x="1038" y="1090" on="1"/>
        <pt x="657" y="1059" on="1"/>
        <pt x="905" y="733" on="1"/>
        <pt x="733" y="639" on="1"/>
        <pt x="557" y="1001" on="1"/>
        <pt x="397" y="639" on="1"/>
        <pt x="221" y="733" on="1"/>
        <pt x="463" y="1059" on="1"/>
        <pt x="86" y="1090" on="1"/>
        <pt x="115" y="1272" on="1"/>
        <pt x="506" y="1161" on="1"/>
        <pt x="463" y="1556" on="1"/>
      </contour>
    </TTGlyph>
    <TTGlyph name="at" xMin="121" yMin="-186" xMax="1720" yMax="1460">
      <contour>
        <pt x="1720" y="729" on="1"/>
        <pt x="1720" y="587" on="0"/>
        <pt x="1632" y="351" on="0"/>
        <pt x="1472" y="221" on="0"/>
        <pt x="1368" y="221" on="1"/>
        <pt x="1282" y="221" on="0"/>
        <pt x="1164" y="325" on="0"/>
        <pt x="1153" y="406" on="1"/>
        <pt x="1145" y="406" on="1"/>
        <pt x="1105" y="319" on="0"/>
        <pt x="956" y="221" on="0"/>
        <pt x="854" y="221" on="1"/>
        <pt x="704" y="221" on="0"/>
        <pt x="535" y="426" on="0"/>
        <pt x="535" y="602" on="1"/>
        <pt x="535" y="806" on="0"/>
        <pt x="771" y="1061" on="0"/>
        <pt x="963" y="1061" on="1"/>
        <pt x="1031" y="1061" on="0"/>
        <pt x="1203" y="1036" on="0"/>
        <pt x="1272" y="1014" on="1"/>
        <pt x="1247" y="544" on="1"/>
        <pt x="1247" y="522" on="1"/>
        <pt x="1247" y="344" on="0"/>
        <pt x="1380" y="344" on="1"/>
        <pt x="1471" y="344" on="0"/>
        <pt x="1585" y="559" on="0"/>
        <pt x="1585" y="731" on="1"/>
        <pt x="1585" y="912" on="0"/>
        <pt x="1437" y="1184" on="0"/>
        <pt x="1164" y="1331" on="0"/>
        <pt x="987" y="1331" on="1"/>
        <pt x="764" y="1331" on="0"/>
        <pt x="434" y="1146" on="0"/>
        <pt x="260" y="803" on="0"/>
        <pt x="260" y="578" on="1"/>
        <pt x="260" y="273" on="0"/>
        <pt x="582" y="-55" on="0"/>
        <pt x="885" y="-55" on="1"/>
        <pt x="1095" y="-55" on="0"/>
        <pt x="1321" y="31" on="1"/>
        <pt x="1321" y="-102" on="1"/>
        <pt x="1129" y="-186" on="0"/>
        <pt x="885" y="-186" on="1"/>
        <pt x="522" y="-186" on="0"/>
        <pt x="121" y="213" on="0"/>
        <pt x="121" y="571" on="1"/>
        <pt x="121" y="831" on="0"/>
        <pt x="335" y="1237" on="0"/>
        <pt x="731" y="1460" on="0"/>
        <pt x="987" y="1460" on="1"/>
        <pt x="1202" y="1460" on="0"/>
        <pt x="1537" y="1279" on="0"/>
        <pt x="1720" y="946" on="0"/>
      </contour>
      <contour>
        <pt x="686" y="598" on="1"/>
        <pt x="686" y="344" on="0"/>
        <pt x="881" y="344" on="1"/>
        <pt x="1088" y="344" on="0"/>
        <pt x="1106" y="657" on="1"/>
        <pt x="1120" y="918" on="1"/>
        <pt x="1048" y="938" on="0"/>
        <pt x="963" y="938" on="1"/>
        <pt x="833" y="938" on="0"/>
        <pt x="686" y="758" on="0"/>
      </contour>
    </TTGlyph>
    <TTGlyph name="atilde" xMin="94" yMin="-20" xMax="973" yMax="1501">
      <component glyphName="a" x="0" y="0" flags="0x204"/>
      <component glyphName="tilde" x="-67" y="0" flags="0x4"/>
    </TTGlyph>
    <TTGlyph name="b" xMin="176" yMin="-20" xMax="1141" yMax="1556">
      <contour>
        <pt x="686" y="1114" on="1"/>
        <pt x="902" y="1114" on="0"/>
        <pt x="1141" y="819" on="0"/>
        <pt x="1141" y="549" on="1"/>
        <pt x="1141" y="279" on="0"/>
        <pt x="900" y="-20" on="0"/>
        <pt x="686" y="-20" on="1"/>
        <pt x="579" y="-20" on="0"/>
        <pt x="402" y="59" on="0"/>
        <pt x="342" y="141" on="1"/>
        <pt x="330" y="141" on="1"/>
        <pt x="295" y="0" on="1"/>
        <pt x="176" y="0" on="1"/>
        <pt x="176" y="1556" on="1"/>
        <pt x="342" y="1556" on="1"/>
        <pt x="342" y="1178" on="1"/>
        <pt x="342" y="1051" on="0"/>
        <pt x="334" y="950" on="1"/>
        <pt x="342" y="950" on="1"/>
        <pt x="458" y="1114" on="0"/>
      </contour>
      <contour>
        <pt x="662" y="975" on="1"/>
        <pt x="492" y="975" on="0"/>
        <pt x="342" y="780" on="0"/>
        <pt x="342" y="549" on="1"/>
        <pt x="342" y="318" on="0"/>
        <pt x="496" y="119" on="0"/>
        <pt x="666" y="119" on="1"/>
        <pt x="819" y="119" on="0"/>
        <pt x="969" y="342" on="0"/>
        <pt x="969" y="551" on="1"/>
        <pt x="969" y="765" on="0"/>
        <pt x="819" y="975" on="0"/>
      </contour>
    </TTGlyph>
    <TTGlyph name="backslash" xMin="23" yMin="0" xMax="733" yMax="1462">
      <contour>
        <pt x="186" y="1462" on="1"/>
        <pt x="733" y="0" on="1"/>
        <pt x="567" y="0" on="1"/>
        <pt x="23" y="1462" on="1"/>
      </contour>
    </TTGlyph>
    <TTGlyph name="bar" xMin="494" yMin="-496" xMax="635" yMax="1556">
      <contour>
        <pt x="494" y="1556" on="1"/>
        <pt x="635" y="1556" on="1"/>
        <pt x="635" y="-496" on="1"/>
        <pt x="494" y="-496" on="1"/>
      </contour>
    </TTGlyph>
    <TTGlyph name="beta" xMin="176" yMin="-492" xMax="1192" yMax="1567">
      <contour>
        <pt x="659" y="1567" on="1"/>
        <pt x="879" y="1567" on="0"/>
        <pt x="1128" y="1359" on="0"/>
        <pt x="1128" y="1176" on="1"/>
        <pt x="1128" y="882" on="0"/>
        <pt x="815" y="831" on="1"/>
        <pt x="815" y="823" on="1"/>
        <pt x="1192" y="781" on="0"/>
        <pt x="1192" y="414" on="1"/>
        <pt x="1192" y="205" on="0"/>
        <pt x="928" y="-20" on="0"/>
        <pt x="690" y="-20" on="1"/>
        <pt x="581" y="-20" on="0"/>
        <pt x="421" y="11" on="0"/>
        <pt x="342" y="49" on="1"/>
        <pt x="342" y="-492" on="1"/>
        <pt x="176" y="-492" on="1"/>
        <pt x="176" y="1096" on="1"/>
        <pt x="176" y="1321" on="0"/>
        <pt x="429" y="1567" on="0"/>
      </contour>
      <contour>
        <pt x="657" y="1427" on="1"/>
        <pt x="499" y="1427" on="0"/>
        <pt x="342" y="1255" on="0"/>
        <pt x="342" y="1090" on="1"/>
        <pt x="342" y="203" on="1"/>
        <pt x="435" y="154" on="0"/>
        <pt x="596" y="117" on="0"/>
        <pt x="682" y="117" on="1"/>
        <pt x="853" y="117" on="0"/>
        <pt x="1026" y="267" on="0"/>
        <pt x="1026" y="424" on="1"/>
        <pt x="1026" y="581" on="0"/>
        <pt x="836" y="745" on="0"/>
        <pt x="659" y="745" on="1"/>
        <pt x="547" y="745" on="1"/>
        <pt x="547" y="887" on="1"/>
        <pt x="639" y="887" on="1"/>
        <pt x="794" y="887" on="0"/>
        <pt x="956" y="1034" on="0"/>
        <pt x="956" y="1171" on="1"/>
        <pt x="956" y="1294" on="0"/>
        <pt x="800" y="1427" on="0"/>
      </contour>
    </TTGlyph>
    <TTGlyph name="braceleft" xMin="61" yMin="-324" xMax="705" yMax="1462">
      <contour>
        <pt x="475" y="12" on="1"/>
        <pt x="475" y="-90" on="0"/>
        <pt x="592" y="-182" on="0"/>
        <pt x="705" y="-184" on="1"/>
        <pt x="705" y="-324" on="1"/>
        <pt x="515" y="-322" on="0"/>
        <pt x="307" y="-152" on="0"/>
        <pt x="307" y="2" on="1"/>
        <pt x="307" y="305" on="1"/>
        <pt x="307" y="409" on="0"/>
        <pt x="181" y="498" on="0"/>
        <pt x="61" y="498" on="1"/>
        <pt x="61" y="639" on="1"/>
        <pt x="191" y="641" on="0"/>
        <pt x="307" y="733" on="0"/>
        <pt x="307" y="829" on="1"/>
        <pt x="307" y="1135" on="1"/>
        <pt x="307" y="1290" on="0"/>
        <pt x="523" y="1462" on="0"/>
        <pt x="705" y="1462" on="1"/>
        <pt x="705" y="1323" on="1"/>
        <pt x="475" y="1317" on="0"/>
        <pt x="475" y="1124" on="1"/>
        <pt x="475" y="829" on="1"/>
        <pt x="475" y="614" on="0"/>
        <pt x="252" y="575" on="1"/>
        <pt x="252" y="563" on="1"/>
        <pt x="475" y="524" on="0"/>
        <pt x="475" y="309" on="1"/>
      </contour>
    </TTGlyph>
    <TTGlyph name="braceright" xMin="72" yMin="-324" xMax="715" yMax="1462">
      <contour>
        <pt x="522" y="575" on="1"/>
        <pt x="299" y="614" on="0"/>
        <pt x="299" y="829" on="1"/>
        <pt x="299" y="1124" on="1"/>
        <pt x="299" y="1317" on="0"/>
        <pt x="72" y="1323" on="1"/>
        <pt x="72" y="1462" on="1"/>
        <pt x="256" y="1462" on="0"/>
        <pt x="467" y="1288" on="0"/>
        <pt x="467" y="1135" on="1"/>
        <pt x="467" y="829" on="1"/>
        <pt x="467" y="732" on="0"/>
        <pt x="585" y="641" on="0"/>
        <pt x="715" y="639" on="1"/>
        <pt x="715" y="498" on="1"/>
        <pt x="593" y="498" on="0"/>
        <pt x="467" y="409" on="0"/>
        <pt x="467" y="305" on="1"/>
        <pt x="467" y="2" on="1"/>
        <pt x="467" y="-151" on="0"/>
        <pt x="262" y="-322" on="0"/>
        <pt x="72" y="-324" on="1"/>
        <pt x="72" y="-184" on="1"/>
        <pt x="183" y="-182" on="0"/>
        <pt x="299" y="-90" on="0"/>
        <pt x="299" y="12" on="1"/>
        <pt x="299" y="309" on="1"/>
        <pt x="299" y="423" on="0"/>
        <pt x="409" y="543" on="0"/>
        <pt x="522" y="563" on="1"/>
      </contour>
    </TTGlyph>
    <TTGlyph name="bracketleft" xMin="166" yMin="-324" xMax="623" yMax="1462">
      <contour>
        <pt x="623" y="-324" on="1"/>
        <pt x="166" y="-324" on="1"/>
        <pt x="166" y="1462" on="1"/>
        <pt x="623" y="1462" on="1"/>
        <pt x="623" y="1321" on="1"/>
        <pt x="334" y="1321" on="1"/>
        <pt x="334" y="-182" on="1"/>
        <pt x="623" y="-182" on="1"/>
      </contour>
    </TTGlyph>
    <TTGlyph name="bracketright" xMin="51" yMin="-324" xMax="508" yMax="1462">
      <contour>
        <pt x="51" y="-182" on="1"/>
        <pt x="340" y="-182" on="1"/>
        <pt x="340" y="1321" on="1"/>
        <pt x="51" y="1321" on="1"/>
        <pt x="51" y="1462" on="1"/>
        <pt x="508" y="1462" on="1"/>
        <pt x="508" y="-324" on="1"/>
        <pt x="51" y="-324" on="1"/>
      </contour>
    </TTGlyph>
    <TTGlyph name="breve" xMin="293" yMin="1241" xMax="913" yMax="1509">
      <contour>
        <pt x="598" y="1241" on="1"/>
        <pt x="458" y="1241" on="0"/>
        <pt x="302" y="1378" on="0"/>
        <pt x="293" y="1509" on="1"/>
        <pt x="397" y="1509" on="1"/>
        <pt x="403" y="1460" on="0"/>
        <pt x="444" y="1404" on="0"/>
        <pt x="517" y="1378" on="0"/>
        <pt x="602" y="1378" on="1"/>
        <pt x="703" y="1378" on="0"/>
        <pt x="799" y="1442" on="0"/>
        <pt x="809" y="1509" on="1"/>
        <pt x="913" y="1509" on="1"/>
        <pt x="903" y="1383" on="0"/>
        <pt x="736" y="1241" on="0"/>
      </contour>
    </TTGlyph>
    <TTGlyph name="breveacutecomb" xMin="-903" yMin="1241" xMax="-313" yMax="1729">
      <contour>
        <pt x="-674" y="1524" on="1"/>
        <pt x="-594" y="1628" on="0"/>
        <pt x="-545" y="1729" on="1"/>
        <pt x="-373" y="1729" on="1"/>
        <pt x="-373" y="1708" on="1"/>
        <pt x="-459" y="1594" on="0"/>
        <pt x="-578" y="1501" on="1"/>
        <pt x="-674" y="1501" on="1"/>
      </contour>
      <contour>
        <pt x="-612" y="1241" on="1"/>
        <pt x="-888" y="1241" on="0"/>
        <pt x="-903" y="1501" on="1"/>
        <pt x="-801" y="1501" on="1"/>
        <pt x="-792" y="1429" on="0"/>
        <pt x="-716" y="1372" on="0"/>
        <pt x="-610" y="1372" on="1"/>
        <pt x="-512" y="1372" on="0"/>
        <pt x="-426" y="1437" on="0"/>
        <pt x="-418" y="1501" on="1"/>
        <pt x="-313" y="1501" on="1"/>
        <pt x="-324" y="1381" on="0"/>
        <pt x="-473" y="1241" on="0"/>
      </contour>
    </TTGlyph>
    <TTGlyph name="brevegravecomb" xMin="-903" yMin="1241" xMax="-313" yMax="1729">
      <contour>
        <pt x="-559" y="1501" on="1"/>
        <pt x="-653" y="1501" on="1"/>
        <pt x="-772" y="1594" on="0"/>
        <pt x="-858" y="1708" on="1"/>
        <pt x="-858" y="1729" on="1"/>
        <pt x="-686" y="1729" on="1"/>
        <pt x="-634" y="1621" on="0"/>
        <pt x="-559" y="1524" on="1"/>
      </contour>
      <contour>
        <pt x="-612" y="1241" on="1"/>
        <pt x="-888" y="1241" on="0"/>
        <pt x="-903" y="1501" on="1"/>
        <pt x="-801" y="1501" on="1"/>
        <pt x="-792" y="1429" on="0"/>
        <pt x="-716" y="1372" on="0"/>
        <pt x="-610" y="1372" on="1"/>
        <pt x="-512" y="1372" on="0"/>
        <pt x="-426" y="1437" on="0"/>
        <pt x="-418" y="1501" on="1"/>
        <pt x="-313" y="1501" on="1"/>
        <pt x="-324" y="1381" on="0"/>
        <pt x="-473" y="1241" on="0"/>
      </contour>
    </TTGlyph>
    <TTGlyph name="brevehookcomb" xMin="-903" yMin="1241" xMax="-313" yMax="1798">
      <contour>
        <pt x="-463" y="1657" on="1"/>
        <pt x="-463" y="1557" on="0"/>
        <pt x="-590" y="1528" on="1"/>
        <pt x="-596" y="1487" on="1"/>
        <pt x="-678" y="1487" on="1"/>
        <pt x="-688" y="1577" on="1"/>
        <pt x="-631" y="1586" on="0"/>
        <pt x="-565" y="1618" on="0"/>
        <pt x="-565" y="1655" on="1"/>
        <pt x="-565" y="1692" on="0"/>
        <pt x="-622" y="1718" on="0"/>
        <pt x="-666" y="1718" on="1"/>
        <pt x="-703" y="1718" on="0"/>
        <pt x="-739" y="1712" on="1"/>
        <pt x="-739" y="1790" on="1"/>
        <pt x="-717" y="1798" on="0"/>
        <pt x="-655" y="1798" on="1"/>
        <pt x="-463" y="1798" on="0"/>
      </contour>
      <contour>
        <pt x="-612" y="1241" on="1"/>
        <pt x="-888" y="1241" on="0"/>
        <pt x="-903" y="1501" on="1"/>
        <pt x="-801" y="1501" on="1"/>
        <pt x="-792" y="1429" on="0"/>
        <pt x="-716" y="1372" on="0"/>
        <pt x="-610" y="1372" on="1"/>
        <pt x="-512" y="1372" on="0"/>
        <pt x="-426" y="1437" on="0"/>
        <pt x="-418" y="1501" on="1"/>
        <pt x="-313" y="1501" on="1"/>
        <pt x="-324" y="1381" on="0"/>
        <pt x="-473" y="1241" on="0"/>
      </contour>
    </TTGlyph>
    <TTGlyph name="brevetildecomb" xMin="-920" yMin="1241" xMax="-281" yMax="1804">
      <contour>
        <pt x="-467" y="1587" on="1"/>
        <pt x="-504" y="1587" on="0"/>
        <pt x="-575" y="1617" on="0"/>
        <pt x="-642" y="1653" on="0"/>
        <pt x="-705" y="1683" on="0"/>
        <pt x="-733" y="1683" on="1"/>
        <pt x="-773" y="1683" on="0"/>
        <pt x="-815" y="1635" on="0"/>
        <pt x="-829" y="1585" on="1"/>
        <pt x="-920" y="1585" on="1"/>
        <pt x="-907" y="1689" on="0"/>
        <pt x="-807" y="1802" on="0"/>
        <pt x="-731" y="1802" on="1"/>
        <pt x="-694" y="1802" on="0"/>
        <pt x="-621" y="1772" on="0"/>
        <pt x="-554" y="1736" on="0"/>
        <pt x="-492" y="1706" on="0"/>
        <pt x="-465" y="1706" on="1"/>
        <pt x="-425" y="1706" on="0"/>
        <pt x="-383" y="1755" on="0"/>
        <pt x="-371" y="1804" on="1"/>
        <pt x="-281" y="1804" on="1"/>
        <pt x="-292" y="1701" on="0"/>
        <pt x="-391" y="1587" on="0"/>
      </contour>
      <contour>
        <pt x="-612" y="1241" on="1"/>
        <pt x="-888" y="1241" on="0"/>
        <pt x="-903" y="1501" on="1"/>
        <pt x="-801" y="1501" on="1"/>
        <pt x="-792" y="1429" on="0"/>
        <pt x="-716" y="1372" on="0"/>
        <pt x="-610" y="1372" on="1"/>
        <pt x="-512" y="1372" on="0"/>
        <pt x="-426" y="1437" on="0"/>
        <pt x="-418" y="1501" on="1"/>
        <pt x="-313" y="1501" on="1"/>
        <pt x="-324" y="1381" on="0"/>
        <pt x="-473" y="1241" on="0"/>
      </contour>
    </TTGlyph>
    <TTGlyph name="brokenbar" xMin="494" yMin="-496" xMax="635" yMax="1556">
      <contour>
        <pt x="494" y="1556" on="1"/>
        <pt x="635" y="1556" on="1"/>
        <pt x="635" y="780" on="1"/>
        <pt x="494" y="780" on="1"/>
      </contour>
      <contour>
        <pt x="494" y="281" on="1"/>
        <pt x="635" y="281" on="1"/>
        <pt x="635" y="-496" on="1"/>
        <pt x="494" y="-496" on="1"/>
      </contour>
    </TTGlyph>
    <TTGlyph name="bullet" xMin="164" yMin="500" xMax="606" yMax="995">
      <contour>
        <pt x="164" y="748" on="1"/>
        <pt x="164" y="869" on="0"/>
        <pt x="277" y="995" on="0"/>
        <pt x="385" y="995" on="1"/>
        <pt x="490" y="995" on="0"/>
        <pt x="606" y="871" on="0"/>
        <pt x="606" y="748" on="1"/>
        <pt x="606" y="629" on="0"/>
        <pt x="491" y="500" on="0"/>
        <pt x="385" y="500" on="1"/>
        <pt x="278" y="500" on="0"/>
        <pt x="164" y="631" on="0"/>
      </contour>
    </TTGlyph>
    <TTGlyph name="c" xMin="115" yMin="-20" xMax="907" yMax="1116">
      <contour>
        <pt x="614" y="-20" on="1"/>
        <pt x="376" y="-20" on="0"/>
        <pt x="115" y="273" on="0"/>
        <pt x="115" y="541" on="1"/>
        <pt x="115" y="816" on="0"/>
        <pt x="380" y="1116" on="0"/>
        <pt x="625" y="1116" on="1"/>
        <pt x="704" y="1116" on="0"/>
        <pt x="862" y="1082" on="0"/>
        <pt x="907" y="1059" on="1"/>
        <pt x="856" y="918" on="1"/>
        <pt x="801" y="940" on="0"/>
        <pt x="671" y="969" on="0"/>
        <pt x="621" y="969" on="1"/>
        <pt x="287" y="969" on="0"/>
        <pt x="287" y="543" on="1"/>
        <pt x="287" y="341" on="0"/>
        <pt x="450" y="125" on="0"/>
        <pt x="610" y="125" on="1"/>
        <pt x="747" y="125" on="0"/>
        <pt x="891" y="184" on="1"/>
        <pt x="891" y="37" on="1"/>
        <pt x="781" y="-20" on="0"/>
      </contour>
    </TTGlyph>
    <TTGlyph name="cacute" xMin="115" yMin="-20" xMax="907" yMax="1569">
      <component glyphName="c" x="0" y="0" flags="0x204"/>
      <component glyphName="acute" x="68" y="0" flags="0x4"/>
    </TTGlyph>
    <TTGlyph name="caron" xMin="268" yMin="1241" xMax="942" yMax="1569">
      <contour>
        <pt x="268" y="1569" on="1"/>
        <pt x="383" y="1569" on="1"/>
        <pt x="497" y="1495" on="0"/>
        <pt x="602" y="1380" on="1"/>
        <pt x="732" y="1510" on="0"/>
        <pt x="823" y="1569" on="1"/>
        <pt x="942" y="1569" on="1"/>
        <pt x="942" y="1544" on="1"/>
        <pt x="876" y="1476" on="1"/>
        <pt x="732" y="1328" on="0"/>
        <pt x="686" y="1241" on="1"/>
        <pt x="520" y="1241" on="1"/>
        <pt x="497" y="1282" on="0"/>
        <pt x="395" y="1408" on="0"/>
        <pt x="268" y="1544" on="1"/>
      </contour>
    </TTGlyph>
    <TTGlyph name="caroncommaaccent" xMin="393" yMin="1229" xMax="629" yMax="1556">
      <contour>
        <pt x="393" y="1253" on="1"/>
        <pt x="412" y="1308" on="0"/>
        <pt x="451" y="1475" on="0"/>
        <pt x="461" y="1556" on="1"/>
        <pt x="629" y="1556" on="1"/>
        <pt x="629" y="1538" on="1"/>
        <pt x="618" y="1487" on="0"/>
        <pt x="530" y="1299" on="0"/>
        <pt x="483" y="1229" on="1"/>
        <pt x="393" y="1229" on="1"/>
      </contour>
    </TTGlyph>
    <TTGlyph name="ccaron" xMin="115" yMin="-20" xMax="929" yMax="1569">
      <component glyphName="c" x="0" y="0" flags="0x204"/>
      <component glyphName="caron" x="-13" y="0" flags="0x4"/>
    </TTGlyph>
    <TTGlyph name="ccedilla" xMin="115" yMin="-492" xMax="907" yMax="1116">
      <component glyphName="c" x="0" y="0" flags="0x204"/>
      <component glyphName="cedilla" x="326" y="0" flags="0x4"/>
    </TTGlyph>
    <TTGlyph name="ccircumflex" xMin="115" yMin="-20" xMax="907" yMax="1569">
      <component glyphName="c" x="0" y="0" flags="0x204"/>
      <component glyphName="circumflex" x="-44" y="0" flags="0x4"/>
    </TTGlyph>
    <TTGlyph name="cdot" xMin="115" yMin="-20" xMax="907" yMax="1503">
      <component glyphName="c" x="0" y="0" flags="0x204"/>
      <component glyphName="dotaccent" x="336" y="0" flags="0x4"/>
    </TTGlyph>
    <TTGlyph name="cedilla" xMin="37" yMin="-492" xMax="436" yMax="0">
      <contour>
        <pt x="436" y="-289" on="1"/>
        <pt x="436" y="-386" on="0"/>
        <pt x="283" y="-492" on="0"/>
        <pt x="133" y="-492" on="1"/>
        <pt x="82" y="-492" on="0"/>
        <pt x="37" y="-483" on="1"/>
        <pt x="37" y="-377" on="1"/>
        <pt x="82" y="-385" on="0"/>
        <pt x="141" y="-385" on="1"/>
        <pt x="220" y="-385" on="0"/>
        <pt x="301" y="-345" on="0"/>
        <pt x="301" y="-291" on="1"/>
        <pt x="301" y="-248" on="0"/>
        <pt x="222" y="-195" on="0"/>
        <pt x="113" y="-178" on="1"/>
        <pt x="201" y="0" on="1"/>
        <pt x="311" y="0" on="1"/>
        <pt x="256" y="-115" on="1"/>
        <pt x="436" y="-154" on="0"/>
      </contour>
    </TTGlyph>
    <TTGlyph name="cent" xMin="190" yMin="-20" xMax="987" yMax="1483">
      <contour>
        <pt x="971" y="240" on="1"/>
        <pt x="866" y="186" on="0"/>
        <pt x="719" y="180" on="1"/>
        <pt x="719" y="-20" on="1"/>
        <pt x="586" y="-20" on="1"/>
        <pt x="586" y="186" on="1"/>
        <pt x="383" y="218" on="0"/>
        <pt x="190" y="491" on="0"/>
        <pt x="190" y="741" on="1"/>
        <pt x="190" y="1249" on="0"/>
        <pt x="586" y="1311" on="1"/>
        <pt x="586" y="1483" on="1"/>
        <pt x="721" y="1483" on="1"/>
        <pt x="721" y="1319" on="1"/>
        <pt x="796" y="1316" on="0"/>
        <pt x="938" y="1283" on="0"/>
        <pt x="987" y="1260" on="1"/>
        <pt x="938" y="1120" on="1"/>
        <pt x="805" y="1171" on="0"/>
        <pt x="696" y="1171" on="1"/>
        <pt x="524" y="1171" on="0"/>
        <pt x="362" y="960" on="0"/>
        <pt x="362" y="743" on="1"/>
        <pt x="362" y="531" on="0"/>
        <pt x="521" y="328" on="0"/>
        <pt x="688" y="328" on="1"/>
        <pt x="829" y="328" on="0"/>
        <pt x="971" y="387" on="1"/>
      </contour>
    </TTGlyph>
    <TTGlyph name="chi" xMin="-20" yMin="-492" xMax="1104" yMax="1102">
      <contour>
        <pt x="178" y="1102" on="1"/>
        <pt x="232" y="1102" on="0"/>
        <pt x="310" y="1059" on="0"/>
        <pt x="372" y="968" on="0"/>
        <pt x="416" y="856" on="1"/>
        <pt x="561" y="487" on="1"/>
        <pt x="879" y="1096" on="1"/>
        <pt x="1059" y="1096" on="1"/>
        <pt x="631" y="324" on="1"/>
        <pt x="821" y="-160" on="1"/>
        <pt x="869" y="-282" on="0"/>
        <pt x="951" y="-356" on="0"/>
        <pt x="1014" y="-356" on="1"/>
        <pt x="1059" y="-356" on="0"/>
        <pt x="1104" y="-348" on="1"/>
        <pt x="1104" y="-477" on="1"/>
        <pt x="1044" y="-492" on="0"/>
        <pt x="985" y="-492" on="1"/>
        <pt x="870" y="-492" on="0"/>
        <pt x="729" y="-374" on="0"/>
        <pt x="670" y="-215" on="1"/>
        <pt x="520" y="172" on="1"/>
        <pt x="158" y="-492" on="1"/>
        <pt x="-20" y="-492" on="1"/>
        <pt x="444" y="344" on="1"/>
        <pt x="272" y="788" on="1"/>
        <pt x="234" y="887" on="0"/>
        <pt x="164" y="967" on="0"/>
        <pt x="121" y="967" on="1"/>
        <pt x="84" y="967" on="0"/>
        <pt x="57" y="956" on="1"/>
        <pt x="57" y="1085" on="1"/>
        <pt x="106" y="1102" on="0"/>
      </contour>
    </TTGlyph>
    <TTGlyph name="circumflex" xMin="268" yMin="1241" xMax="942" yMax="1569">
      <contour>
        <pt x="268" y="1264" on="1"/>
        <pt x="395" y="1400" on="0"/>
        <pt x="497" y="1528" on="0"/>
        <pt x="520" y="1569" on="1"/>
        <pt x="686" y="1569" on="1"/>
        <pt x="708" y="1527" on="0"/>
        <pt x="817" y="1394" on="0"/>
        <pt x="942" y="1264" on="1"/>
        <pt x="942" y="1241" on="1"/>
        <pt x="823" y="1241" on="1"/>
        <pt x="735" y="1296" on="0"/>
        <pt x="602" y="1427" on="1"/>
        <pt x="466" y="1293" on="0"/>
        <pt x="383" y="1241" on="1"/>
        <pt x="268" y="1241" on="1"/>
      </contour>
    </TTGlyph>
    <TTGlyph name="circumflexacutecomb" xMin="-911" yMin="1241" xMax="-82" yMax="1663">
      <contour>
        <pt x="-301" y="1241" on="1"/>
        <pt x="-395" y="1241" on="1"/>
        <pt x="-507" y="1316" on="0"/>
        <pt x="-606" y="1407" on="1"/>
        <pt x="-720" y="1306" on="0"/>
        <pt x="-817" y="1241" on="1"/>
        <pt x="-911" y="1241" on="1"/>
        <pt x="-911" y="1266" on="1"/>
        <pt x="-858" y="1326" on="1"/>
        <pt x="-746" y="1449" on="0"/>
        <pt x="-694" y="1526" on="1"/>
        <pt x="-518" y="1526" on="1"/>
        <pt x="-452" y="1432" on="0"/>
        <pt x="-301" y="1266" on="1"/>
      </contour>
      <contour>
        <pt x="-381" y="1460" on="1"/>
        <pt x="-308" y="1551" on="0"/>
        <pt x="-254" y="1663" on="1"/>
        <pt x="-82" y="1663" on="1"/>
        <pt x="-82" y="1642" on="1"/>
        <pt x="-165" y="1532" on="0"/>
        <pt x="-285" y="1436" on="1"/>
        <pt x="-381" y="1436" on="1"/>
      </contour>
    </TTGlyph>
    <TTGlyph name="circumflexgravecomb" xMin="-1126" yMin="1241" xMax="-297" yMax="1663">
      <contour>
        <pt x="-297" y="1241" on="1"/>
        <pt x="-391" y="1241" on="1"/>
        <pt x="-488" y="1306" on="0"/>
        <pt x="-602" y="1407" on="1"/>
        <pt x="-708" y="1311" on="0"/>
        <pt x="-813" y="1241" on="1"/>
        <pt x="-907" y="1241" on="1"/>
        <pt x="-907" y="1264" on="1"/>
        <pt x="-854" y="1324" on="1"/>
        <pt x="-742" y="1447" on="0"/>
        <pt x="-690" y="1524" on="1"/>
        <pt x="-514" y="1524" on="1"/>
        <pt x="-448" y="1430" on="0"/>
        <pt x="-297" y="1264" on="1"/>
      </contour>
      <contour>
        <pt x="-827" y="1436" on="1"/>
        <pt x="-922" y="1436" on="1"/>
        <pt x="-1042" y="1530" on="0"/>
        <pt x="-1126" y="1642" on="1"/>
        <pt x="-1126" y="1663" on="1"/>
        <pt x="-954" y="1663" on="1"/>
        <pt x="-902" y="1555" on="0"/>
        <pt x="-827" y="1458" on="1"/>
      </contour>
    </TTGlyph>
    <TTGlyph name="circumflexhookcomb" xMin="-911" yMin="1241" xMax="-133" yMax="1784">
      <contour>
        <pt x="-301" y="1241" on="1"/>
        <pt x="-395" y="1241" on="1"/>
        <pt x="-507" y="1316" on="0"/>
        <pt x="-606" y="1407" on="1"/>
        <pt x="-720" y="1306" on="0"/>
        <pt x="-817" y="1241" on="1"/>
        <pt x="-911" y="1241" on="1"/>
        <pt x="-911" y="1266" on="1"/>
        <pt x="-858" y="1326" on="1"/>
        <pt x="-746" y="1449" on="0"/>
        <pt x="-694" y="1526" on="1"/>
        <pt x="-518" y="1526" on="1"/>
        <pt x="-452" y="1432" on="0"/>
        <pt x="-301" y="1266" on="1"/>
      </contour>
      <contour>
        <pt x="-133" y="1645" on="1"/>
        <pt x="-133" y="1542" on="0"/>
        <pt x="-260" y="1513" on="1"/>
        <pt x="-266" y="1432" on="1"/>
        <pt x="-346" y="1432" on="1"/>
        <pt x="-356" y="1563" on="1"/>
        <pt x="-299" y="1572" on="0"/>
        <pt x="-236" y="1604" on="0"/>
        <pt x="-236" y="1642" on="1"/>
        <pt x="-236" y="1679" on="0"/>
        <pt x="-293" y="1704" on="0"/>
        <pt x="-336" y="1704" on="1"/>
        <pt x="-382" y="1704" on="0"/>
        <pt x="-408" y="1698" on="1"/>
        <pt x="-408" y="1778" on="1"/>
        <pt x="-383" y="1784" on="0"/>
        <pt x="-328" y="1784" on="1"/>
        <pt x="-133" y="1784" on="0"/>
      </contour>
    </TTGlyph>
    <TTGlyph name="circumflextildecomb" xMin="-920" yMin="1241" xMax="-281" yMax="1808">
      <contour>
        <pt x="-467" y="1589" on="1"/>
        <pt x="-504" y="1589" on="0"/>
        <pt x="-575" y="1619" on="0"/>
        <pt x="-642" y="1656" on="0"/>
        <pt x="-705" y="1686" on="0"/>
        <pt x="-733" y="1686" on="1"/>
        <pt x="-773" y="1686" on="0"/>
        <pt x="-815" y="1637" on="0"/>
        <pt x="-829" y="1587" on="1"/>
        <pt x="-920" y="1587" on="1"/>
        <pt x="-907" y="1693" on="0"/>
        <pt x="-806" y="1806" on="0"/>
        <pt x="-731" y="1806" on="1"/>
        <pt x="-694" y="1806" on="0"/>
        <pt x="-621" y="1776" on="0"/>
        <pt x="-554" y="1740" on="0"/>
        <pt x="-492" y="1710" on="0"/>
        <pt x="-465" y="1710" on="1"/>
        <pt x="-425" y="1710" on="0"/>
        <pt x="-383" y="1759" on="0"/>
        <pt x="-371" y="1808" on="1"/>
        <pt x="-281" y="1808" on="1"/>
        <pt x="-292" y="1704" on="0"/>
        <pt x="-391" y="1589" on="0"/>
      </contour>
      <contour>
        <pt x="-297" y="1241" on="1"/>
        <pt x="-391" y="1241" on="1"/>
        <pt x="-488" y="1306" on="0"/>
        <pt x="-602" y="1407" on="1"/>
        <pt x="-708" y="1311" on="0"/>
        <pt x="-813" y="1241" on="1"/>
        <pt x="-907" y="1241" on="1"/>
        <pt x="-907" y="1264" on="1"/>
        <pt x="-854" y="1324" on="1"/>
        <pt x="-742" y="1447" on="0"/>
        <pt x="-690" y="1524" on="1"/>
        <pt x="-514" y="1524" on="1"/>
        <pt x="-448" y="1430" on="0"/>
        <pt x="-297" y="1264" on="1"/>
      </contour>
    </TTGlyph>
    <TTGlyph name="colon" xMin="152" yMin="-29" xMax="393" yMax="1124">
      <contour>
        <pt x="152" y="106" on="1"/>
        <pt x="152" y="173" on="0"/>
        <pt x="213" y="242" on="0"/>
        <pt x="270" y="242" on="1"/>
        <pt x="328" y="242" on="0"/>
        <pt x="393" y="173" on="0"/>
        <pt x="393" y="106" on="1"/>
        <pt x="393" y="41" on="0"/>
        <pt x="327" y="-29" on="0"/>
        <pt x="270" y="-29" on="1"/>
        <pt x="219" y="-29" on="0"/>
        <pt x="152" y="34" on="0"/>
      </contour>
      <contour>
        <pt x="152" y="989" on="1"/>
        <pt x="152" y="1124" on="0"/>
        <pt x="270" y="1124" on="1"/>
        <pt x="393" y="1124" on="0"/>
        <pt x="393" y="989" on="1"/>
        <pt x="393" y="924" on="0"/>
        <pt x="327" y="854" on="0"/>
        <pt x="270" y="854" on="1"/>
        <pt x="219" y="854" on="0"/>
        <pt x="152" y="917" on="0"/>
      </contour>
    </TTGlyph>
    <TTGlyph name="comma" xMin="63" yMin="-264" xMax="365" yMax="238">
      <contour>
        <pt x="350" y="238" on="1"/>
        <pt x="365" y="215" on="1"/>
        <pt x="339" y="115" on="0"/>
        <pt x="241" y="-150" on="0"/>
        <pt x="188" y="-264" on="1"/>
        <pt x="63" y="-264" on="1"/>
        <pt x="90" y="-160" on="0"/>
        <pt x="155" y="146" on="0"/>
        <pt x="168" y="238" on="1"/>
      </contour>
    </TTGlyph>
    <TTGlyph name="commaaccent" xMin="369" yMin="-453" xMax="623" yMax="-125">
      <contour>
        <pt x="369" y="-428" on="1"/>
        <pt x="397" y="-364" on="0"/>
        <pt x="448" y="-178" on="0"/>
        <pt x="455" y="-125" on="1"/>
        <pt x="623" y="-125" on="1"/>
        <pt x="623" y="-143" on="1"/>
        <pt x="612" y="-194" on="0"/>
        <pt x="514" y="-387" on="0"/>
        <pt x="459" y="-453" on="1"/>
        <pt x="369" y="-453" on="1"/>
      </contour>
    </TTGlyph>
    <TTGlyph name="commaaccentrotate" xMin="385" yMin="1241" xMax="639" yMax="1569">
      <contour>
        <pt x="639" y="1544" on="1"/>
        <pt x="610" y="1483" on="0"/>
        <pt x="557" y="1290" on="0"/>
        <pt x="551" y="1241" on="1"/>
        <pt x="385" y="1241" on="1"/>
        <pt x="385" y="1260" on="1"/>
        <pt x="399" y="1321" on="0"/>
        <pt x="498" y="1512" on="0"/>
        <pt x="547" y="1569" on="1"/>
        <pt x="639" y="1569" on="1"/>
      </contour>
    </TTGlyph>
    <TTGlyph name="copyright" xMin="100" yMin="-20" xMax="1604" yMax="1483">
      <contour>
        <pt x="893" y="1059" on="1"/>
        <pt x="768" y="1059" on="0"/>
        <pt x="633" y="885" on="0"/>
        <pt x="633" y="731" on="1"/>
        <pt x="633" y="563" on="0"/>
        <pt x="760" y="401" on="0"/>
        <pt x="891" y="401" on="1"/>
        <pt x="977" y="401" on="0"/>
        <pt x="1102" y="446" on="1"/>
        <pt x="1102" y="322" on="1"/>
        <pt x="1054" y="302" on="0"/>
        <pt x="953" y="274" on="0"/>
        <pt x="883" y="274" on="1"/>
        <pt x="689" y="274" on="0"/>
        <pt x="481" y="515" on="0"/>
        <pt x="481" y="731" on="1"/>
        <pt x="481" y="940" on="0"/>
        <pt x="702" y="1186" on="0"/>
        <pt x="893" y="1186" on="1"/>
        <pt x="1021" y="1186" on="0"/>
        <pt x="1139" y="1126" on="1"/>
        <pt x="1081" y="1008" on="1"/>
        <pt x="973" y="1059" on="0"/>
      </contour>
      <contour>
        <pt x="100" y="731" on="1"/>
        <pt x="100" y="931" on="0"/>
        <pt x="300" y="1281" on="0"/>
        <pt x="650" y="1483" on="0"/>
        <pt x="852" y="1483" on="1"/>
        <pt x="1052" y="1483" on="0"/>
        <pt x="1402" y="1283" on="0"/>
        <pt x="1604" y="933" on="0"/>
        <pt x="1604" y="731" on="1"/>
        <pt x="1604" y="534" on="0"/>
        <pt x="1410" y="188" on="0"/>
        <pt x="1060" y="-20" on="0"/>
        <pt x="852" y="-20" on="1"/>
        <pt x="645" y="-20" on="0"/>
        <pt x="295" y="187" on="0"/>
        <pt x="100" y="533" on="0"/>
      </contour>
      <contour>
        <pt x="205" y="731" on="1"/>
        <pt x="205" y="558" on="0"/>
        <pt x="379" y="257" on="0"/>
        <pt x="680" y="84" on="0"/>
        <pt x="852" y="84" on="1"/>
        <pt x="1026" y="84" on="0"/>
        <pt x="1324" y="258" on="0"/>
        <pt x="1499" y="555" on="0"/>
        <pt x="1499" y="731" on="1"/>
        <pt x="1499" y="905" on="0"/>
        <pt x="1325" y="1203" on="0"/>
        <pt x="1028" y="1378" on="0"/>
        <pt x="852" y="1378" on="1"/>
        <pt x="678" y="1378" on="0"/>
        <pt x="380" y="1204" on="0"/>
        <pt x="205" y="907" on="0"/>
      </contour>
    </TTGlyph>
    <TTGlyph name="currency" xMin="123" yMin="262" xMax="1047" yMax="1184">
      <contour>
        <pt x="184" y="723" on="1"/>
        <pt x="184" y="845" on="0"/>
        <pt x="258" y="952" on="1"/>
        <pt x="123" y="1092" on="1"/>
        <pt x="217" y="1184" on="1"/>
        <pt x="352" y="1051" on="1"/>
        <pt x="456" y="1124" on="0"/>
        <pt x="586" y="1124" on="1"/>
        <pt x="713" y="1124" on="0"/>
        <pt x="815" y="1051" on="1"/>
        <pt x="952" y="1184" on="1"/>
        <pt x="1047" y="1092" on="1"/>
        <pt x="913" y="954" on="1"/>
        <pt x="987" y="841" on="0"/>
        <pt x="987" y="723" on="1"/>
        <pt x="987" y="592" on="0"/>
        <pt x="913" y="489" on="1"/>
        <pt x="1044" y="354" on="1"/>
        <pt x="952" y="262" on="1"/>
        <pt x="815" y="395" on="1"/>
        <pt x="713" y="324" on="0"/>
        <pt x="586" y="324" on="1"/>
        <pt x="452" y="324" on="0"/>
        <pt x="352" y="397" on="1"/>
        <pt x="217" y="264" on="1"/>
        <pt x="125" y="356" on="1"/>
        <pt x="258" y="492" on="1"/>
        <pt x="184" y="599" on="0"/>
      </contour>
      <contour>
        <pt x="313" y="723" on="1"/>
        <pt x="313" y="611" on="0"/>
        <pt x="470" y="451" on="0"/>
        <pt x="586" y="451" on="1"/>
        <pt x="702" y="451" on="0"/>
        <pt x="860" y="610" on="0"/>
        <pt x="860" y="723" on="1"/>
        <pt x="860" y="837" on="0"/>
        <pt x="700" y="999" on="0"/>
        <pt x="586" y="999" on="1"/>
        <pt x="470" y="999" on="0"/>
        <pt x="313" y="835" on="0"/>
      </contour>
    </TTGlyph>
    <TTGlyph name="cyrillicbighookLC" xMin="25" yMin="-395" xMax="369" yMax="143">
      <contour>
        <pt x="369" y="143" on="1"/>
        <pt x="369" y="-135" on="1"/>
        <pt x="369" y="-395" on="0"/>
        <pt x="141" y="-395" on="1"/>
        <pt x="85" y="-395" on="0"/>
        <pt x="25" y="-371" on="1"/>
        <pt x="25" y="-231" on="1"/>
        <pt x="66" y="-250" on="0"/>
        <pt x="127" y="-250" on="1"/>
        <pt x="221" y="-250" on="0"/>
        <pt x="221" y="-150" on="1"/>
        <pt x="221" y="143" on="1"/>
      </contour>
    </TTGlyph>
    <TTGlyph name="cyrillicbighookUC" xMin="25" yMin="-395" xMax="369" yMax="154">
      <contour>
        <pt x="369" y="154" on="1"/>
        <pt x="369" y="-135" on="1"/>
        <pt x="369" y="-395" on="0"/>
        <pt x="141" y="-395" on="1"/>
        <pt x="85" y="-395" on="0"/>
        <pt x="25" y="-371" on="1"/>
        <pt x="25" y="-231" on="1"/>
        <pt x="66" y="-250" on="0"/>
        <pt x="127" y="-250" on="1"/>
        <pt x="221" y="-250" on="0"/>
        <pt x="221" y="-150" on="1"/>
        <pt x="221" y="154" on="1"/>
      </contour>
    </TTGlyph>
    <TTGlyph name="cyrillicbreve" xMin="219" yMin="1241" xMax="958" yMax="1548">
      <contour>
        <pt x="584" y="1241" on="1"/>
        <pt x="399" y="1241" on="0"/>
        <pt x="229" y="1384" on="0"/>
        <pt x="219" y="1548" on="1"/>
        <pt x="375" y="1548" on="1"/>
        <pt x="384" y="1444" on="0"/>
        <pt x="475" y="1362" on="0"/>
        <pt x="588" y="1362" on="1"/>
        <pt x="691" y="1362" on="0"/>
        <pt x="790" y="1450" on="0"/>
        <pt x="801" y="1548" on="1"/>
        <pt x="958" y="1548" on="1"/>
        <pt x="946" y="1390" on="0"/>
        <pt x="768" y="1241" on="0"/>
      </contour>
    </TTGlyph>
    <TTGlyph name="cyrillichookleft" xMin="49" yMin="-446" xMax="365" yMax="0">
      <contour>
        <pt x="223" y="-238" on="1"/>
        <pt x="223" y="-135" on="0"/>
        <pt x="84" y="0" on="1"/>
        <pt x="207" y="0" on="1"/>
        <pt x="365" y="-120" on="0"/>
        <pt x="365" y="-252" on="1"/>
        <pt x="365" y="-343" on="0"/>
        <pt x="263" y="-446" on="0"/>
        <pt x="164" y="-446" on="1"/>
        <pt x="99" y="-446" on="0"/>
        <pt x="49" y="-430" on="1"/>
        <pt x="49" y="-322" on="1"/>
        <pt x="81" y="-332" on="0"/>
        <pt x="135" y="-332" on="1"/>
        <pt x="172" y="-332" on="0"/>
        <pt x="223" y="-284" on="0"/>
      </contour>
    </TTGlyph>
    <TTGlyph name="d" xMin="115" yMin="-20" xMax="1079" yMax="1556">
      <contour>
        <pt x="922" y="147" on="1"/>
        <pt x="913" y="147" on="1"/>
        <pt x="798" y="-20" on="0"/>
        <pt x="569" y="-20" on="1"/>
        <pt x="354" y="-20" on="0"/>
        <pt x="115" y="274" on="0"/>
        <pt x="115" y="545" on="1"/>
        <pt x="115" y="816" on="0"/>
        <pt x="355" y="1116" on="0"/>
        <pt x="569" y="1116" on="1"/>
        <pt x="792" y="1116" on="0"/>
        <pt x="911" y="954" on="1"/>
        <pt x="924" y="954" on="1"/>
        <pt x="917" y="1033" on="1"/>
        <pt x="913" y="1110" on="1"/>
        <pt x="913" y="1556" on="1"/>
        <pt x="1079" y="1556" on="1"/>
        <pt x="1079" y="0" on="1"/>
        <pt x="944" y="0" on="1"/>
      </contour>
      <contour>
        <pt x="590" y="119" on="1"/>
        <pt x="760" y="119" on="0"/>
        <pt x="913" y="304" on="0"/>
        <pt x="913" y="510" on="1"/>
        <pt x="913" y="545" on="1"/>
        <pt x="913" y="778" on="0"/>
        <pt x="758" y="977" on="0"/>
        <pt x="588" y="977" on="1"/>
        <pt x="442" y="977" on="0"/>
        <pt x="287" y="750" on="0"/>
        <pt x="287" y="543" on="1"/>
        <pt x="287" y="333" on="0"/>
        <pt x="441" y="119" on="0"/>
      </contour>
    </TTGlyph>
    <TTGlyph name="dagger" xMin="123" yMin="0" xMax="905" yMax="1556">
      <contour>
        <pt x="905" y="999" on="1"/>
        <pt x="553" y="1030" on="1"/>
        <pt x="602" y="0" on="1"/>
        <pt x="406" y="0" on="1"/>
        <pt x="455" y="1030" on="1"/>
        <pt x="123" y="999" on="1"/>
        <pt x="123" y="1169" on="1"/>
        <pt x="455" y="1139" on="1"/>
        <pt x="406" y="1556" on="1"/>
        <pt x="602" y="1556" on="1"/>
        <pt x="553" y="1139" on="1"/>
        <pt x="905" y="1169" on="1"/>
      </contour>
    </TTGlyph>
    <TTGlyph name="daggerdbl" xMin="123" yMin="0" xMax="922" yMax="1556">
      <contour>
        <pt x="569" y="487" on="1"/>
        <pt x="922" y="518" on="1"/>
        <pt x="922" y="350" on="1"/>
        <pt x="569" y="379" on="1"/>
        <pt x="618" y="0" on="1"/>
        <pt x="420" y="0" on="1"/>
        <pt x="469" y="379" on="1"/>
        <pt x="123" y="350" on="1"/>
        <pt x="123" y="518" on="1"/>
        <pt x="469" y="487" on="1"/>
        <pt x="426" y="786" on="1"/>
        <pt x="469" y="1069" on="1"/>
        <pt x="123" y="1038" on="1"/>
        <pt x="123" y="1206" on="1"/>
        <pt x="469" y="1176" on="1"/>
        <pt x="420" y="1556" on="1"/>
        <pt x="618" y="1556" on="1"/>
        <pt x="569" y="1176" on="1"/>
        <pt x="922" y="1206" on="1"/>
        <pt x="922" y="1038" on="1"/>
        <pt x="569" y="1069" on="1"/>
        <pt x="612" y="786" on="1"/>
      </contour>
    </TTGlyph>
    <TTGlyph name="dasiaoxia" xMin="152" yMin="1128" xMax="719" yMax="1477">
      <contour>
        <pt x="432" y="1159" on="1"/>
        <pt x="502" y="1340" on="0"/>
        <pt x="530" y="1462" on="1"/>
        <pt x="719" y="1462" on="1"/>
        <pt x="719" y="1442" on="1"/>
        <pt x="678" y="1364" on="0"/>
        <pt x="559" y="1192" on="0"/>
        <pt x="510" y="1135" on="1"/>
        <pt x="432" y="1135" on="1"/>
      </contour>
      <contour>
        <pt x="152" y="1253" on="1"/>
        <pt x="152" y="1416" on="0"/>
        <pt x="389" y="1477" on="1"/>
        <pt x="389" y="1405" on="1"/>
        <pt x="268" y="1364" on="0"/>
        <pt x="268" y="1311" on="1"/>
        <pt x="268" y="1291" on="0"/>
        <pt x="299" y="1272" on="0"/>
        <pt x="336" y="1256" on="0"/>
        <pt x="367" y="1230" on="0"/>
        <pt x="367" y="1202" on="1"/>
        <pt x="367" y="1128" on="0"/>
        <pt x="274" y="1128" on="1"/>
        <pt x="219" y="1128" on="0"/>
        <pt x="152" y="1196" on="0"/>
      </contour>
    </TTGlyph>
    <TTGlyph name="dcaron" xMin="115" yMin="-20" xMax="1409" yMax="1556">
      <component glyphName="d" x="0" y="0" flags="0x204"/>
      <component glyphName="caroncommaaccent" x="780" y="0" flags="0x4"/>
    </TTGlyph>
    <TTGlyph name="dcroat" xMin="115" yMin="-20" xMax="1235" yMax="1556">
      <contour>
        <pt x="922" y="147" on="1"/>
        <pt x="913" y="147" on="1"/>
        <pt x="798" y="-20" on="0"/>
        <pt x="569" y="-20" on="1"/>
        <pt x="354" y="-20" on="0"/>
        <pt x="115" y="274" on="0"/>
        <pt x="115" y="545" on="1"/>
        <pt x="115" y="816" on="0"/>
        <pt x="355" y="1116" on="0"/>
        <pt x="569" y="1116" on="1"/>
        <pt x="792" y="1116" on="0"/>
        <pt x="911" y="954" on="1"/>
        <pt x="924" y="954" on="1"/>
        <pt x="913" y="1037" on="0"/>
        <pt x="913" y="1110" on="1"/>
        <pt x="913" y="1243" on="1"/>
        <pt x="465" y="1243" on="1"/>
        <pt x="465" y="1372" on="1"/>
        <pt x="913" y="1372" on="1"/>
        <pt x="913" y="1556" on="1"/>
        <pt x="1079" y="1556" on="1"/>
        <pt x="1079" y="1372" on="1"/>
        <pt x="1235" y="1372" on="1"/>
        <pt x="1235" y="1243" on="1"/>
        <pt x="1079" y="1243" on="1"/>
        <pt x="1079" y="0" on="1"/>
        <pt x="944" y="0" on="1"/>
      </contour>
      <contour>
        <pt x="590" y="119" on="1"/>
        <pt x="760" y="119" on="0"/>
        <pt x="913" y="304" on="0"/>
        <pt x="913" y="510" on="1"/>
        <pt x="913" y="545" on="1"/>
        <pt x="913" y="778" on="0"/>
        <pt x="758" y="977" on="0"/>
        <pt x="588" y="977" on="1"/>
        <pt x="442" y="977" on="0"/>
        <pt x="287" y="750" on="0"/>
        <pt x="287" y="543" on="1"/>
        <pt x="287" y="333" on="0"/>
        <pt x="441" y="119" on="0"/>
      </contour>
    </TTGlyph>
    <TTGlyph name="degree" xMin="127" yMin="860" xMax="750" yMax="1483">
      <contour>
        <pt x="127" y="1171" on="1"/>
        <pt x="127" y="1301" on="0"/>
        <pt x="308" y="1483" on="0"/>
        <pt x="438" y="1483" on="1"/>
        <pt x="568" y="1483" on="0"/>
        <pt x="750" y="1302" on="0"/>
        <pt x="750" y="1171" on="1"/>
        <pt x="750" y="1087" on="0"/>
        <pt x="668" y="944" on="0"/>
        <pt x="522" y="860" on="0"/>
        <pt x="438" y="860" on="1"/>
        <pt x="308" y="860" on="0"/>
        <pt x="127" y="1040" on="0"/>
      </contour>
      <contour>
        <pt x="242" y="1171" on="1"/>
        <pt x="242" y="1089" on="0"/>
        <pt x="359" y="975" on="0"/>
        <pt x="440" y="975" on="1"/>
        <pt x="520" y="975" on="0"/>
        <pt x="635" y="1088" on="0"/>
        <pt x="635" y="1171" on="1"/>
        <pt x="635" y="1255" on="0"/>
        <pt x="522" y="1368" on="0"/>
        <pt x="440" y="1368" on="1"/>
        <pt x="357" y="1368" on="0"/>
        <pt x="242" y="1254" on="0"/>
      </contour>
    </TTGlyph>
    <TTGlyph name="delta" xMin="113" yMin="-20" xMax="1120" yMax="1554">
      <contour>
        <pt x="545" y="936" on="1"/>
        <pt x="405" y="1014" on="0"/>
        <pt x="289" y="1173" on="0"/>
        <pt x="289" y="1272" on="1"/>
        <pt x="289" y="1402" on="0"/>
        <pt x="483" y="1554" on="0"/>
        <pt x="647" y="1554" on="1"/>
        <pt x="750" y="1554" on="0"/>
        <pt x="939" y="1509" on="0"/>
        <pt x="1065" y="1446" on="1"/>
        <pt x="993" y="1311" on="1"/>
        <pt x="881" y="1373" on="0"/>
        <pt x="722" y="1417" on="0"/>
        <pt x="641" y="1417" on="1"/>
        <pt x="556" y="1417" on="0"/>
        <pt x="459" y="1338" on="0"/>
        <pt x="459" y="1272" on="1"/>
        <pt x="459" y="1201" on="0"/>
        <pt x="566" y="1090" on="0"/>
        <pt x="733" y="999" on="1"/>
        <pt x="943" y="884" on="0"/>
        <pt x="1120" y="643" on="0"/>
        <pt x="1120" y="479" on="1"/>
        <pt x="1120" y="244" on="0"/>
        <pt x="848" y="-20" on="0"/>
        <pt x="612" y="-20" on="1"/>
        <pt x="385" y="-20" on="0"/>
        <pt x="113" y="228" on="0"/>
        <pt x="113" y="438" on="1"/>
        <pt x="113" y="615" on="0"/>
        <pt x="339" y="876" on="0"/>
      </contour>
      <contour>
        <pt x="948" y="479" on="1"/>
        <pt x="948" y="607" on="0"/>
        <pt x="825" y="790" on="0"/>
        <pt x="684" y="864" on="1"/>
        <pt x="478" y="811" on="0"/>
        <pt x="287" y="594" on="0"/>
        <pt x="287" y="434" on="1"/>
        <pt x="287" y="290" on="0"/>
        <pt x="465" y="119" on="0"/>
        <pt x="612" y="119" on="1"/>
        <pt x="774" y="119" on="0"/>
        <pt x="948" y="305" on="0"/>
      </contour>
    </TTGlyph>
</ttFont>
